<svg width="177" height="33" viewBox="0 0 177 33" fill="none" xmlns="http://www.w3.org/2000/svg">
<path d="M2.774 32.522C2.166 32.522 1.72267 32.3827 1.444 32.104C1.16533 31.8253 1.026 31.382 1.026 30.774V26.328C1.026 25.9987 1.064 25.72 1.14 25.492C1.24133 25.264 1.38067 25.074 1.558 24.922L5.358 21.73C4.01533 21.3247 2.95133 20.6407 2.166 19.678C1.406 18.69 1.026 17.284 1.026 15.46V11.47C1.026 10.33 1.216 9.31667 1.596 8.43C1.976 7.54333 2.52067 6.796 3.23 6.188L8.17 2.046C8.854 1.48867 9.70267 1.058 10.716 0.754C11.7293 0.424666 12.882 0.259999 14.174 0.259999H24.814C25.422 0.259999 25.8653 0.399332 26.144 0.677998C26.4227 0.956666 26.562 1.4 26.562 2.008V6.53C26.562 6.85933 26.5113 7.138 26.41 7.366C26.334 7.594 26.2073 7.784 26.03 7.936L22.61 10.786C24.206 11.1407 25.4853 11.812 26.448 12.8C27.436 13.7627 27.93 15.27 27.93 17.322V21.312C27.93 22.452 27.74 23.4653 27.36 24.352C26.98 25.2387 26.4227 25.986 25.688 26.594L20.786 30.698C20.0767 31.2807 19.2153 31.724 18.202 32.028C17.1887 32.3573 16.0487 32.522 14.782 32.522H2.774ZM19.684 28C22.116 28 24.0287 27.43 25.422 26.29C26.8407 25.1247 27.55 23.4653 27.55 21.312V17.322C27.55 15.194 27.0053 13.674 25.916 12.762C24.8267 11.85 23.3953 11.2673 21.622 11.014L15.96 10.254C15.6307 10.2287 15.3773 10.102 15.2 9.874C15.0227 9.646 14.934 9.36733 14.934 9.038C14.934 8.70867 15.0227 8.44267 15.2 8.24C15.3773 8.012 15.6307 7.898 15.96 7.898H24.814C25.2953 7.898 25.6373 7.79667 25.84 7.594C26.068 7.366 26.182 7.01133 26.182 6.53V2.008C26.182 1.52667 26.068 1.18467 25.84 0.981999C25.6373 0.753999 25.2953 0.639999 24.814 0.639999H14.174C11.7167 0.639999 9.79133 1.22267 8.398 2.388C7.00467 3.528 6.308 5.17467 6.308 7.328V11.318C6.308 13.446 6.84 14.966 7.904 15.878C8.99333 16.79 10.4247 17.3727 12.198 17.626L17.898 18.424C18.2273 18.4493 18.468 18.5633 18.62 18.766C18.7973 18.9687 18.886 19.2853 18.886 19.716C18.886 20.02 18.7973 20.286 18.62 20.514C18.468 20.7167 18.2273 20.818 17.898 20.818H7.676C7.19467 20.818 6.84 20.932 6.612 21.16C6.40933 21.3627 6.308 21.7047 6.308 22.186V26.632C6.308 27.1133 6.40933 27.468 6.612 27.696C6.84 27.8987 7.19467 28 7.676 28H19.684ZM22.762 4.06V4.44H14.326C13.262 4.44 12.4133 4.73133 11.78 5.314C11.1467 5.89667 10.83 6.63133 10.83 7.518V10.634C10.83 11.5207 11.0073 12.1413 11.362 12.496C11.7167 12.8507 12.1853 13.0787 12.768 13.18L20.786 14.814C21.546 14.966 22.1667 15.2953 22.648 15.802C23.1547 16.3087 23.408 17.2207 23.408 18.538V20.742C23.408 21.8567 23.028 22.7813 22.268 23.516C21.508 24.2253 20.482 24.58 19.19 24.58H9.728V24.2H19.19C20.3553 24.2 21.28 23.8833 21.964 23.25C22.6733 22.5913 23.028 21.7553 23.028 20.742V18.538C23.028 17.3473 22.8127 16.5367 22.382 16.106C21.9767 15.65 21.4193 15.346 20.71 15.194L12.692 13.56C12.0333 13.4333 11.4887 13.18 11.058 12.8C10.6527 12.3947 10.45 11.6727 10.45 10.634V7.518C10.45 6.50466 10.8047 5.68133 11.514 5.048C12.2233 4.38933 13.1607 4.06 14.326 4.06H22.762Z" fill="black"/>
<path d="M48.66 16.64H41.22C40.0333 16.64 39.0133 16.22 38.16 15.38C37.32 14.5267 36.9 13.5067 36.9 12.32C36.9 11.1333 37.32 10.12 38.16 9.28C39.0133 8.42667 40.0333 8 41.22 8H54.18V11.26H41.22C40.78 11.26 40.4733 11.44 40.3 11.8C40.1267 12.1467 40.1267 12.4933 40.3 12.84C40.4733 13.1867 40.78 13.36 41.22 13.36H49.86C51.0467 13.36 52.06 13.7867 52.9 14.64C53.7533 15.48 54.18 16.4933 54.18 17.68C54.18 18.8667 53.7533 19.8867 52.9 20.74C52.06 21.58 51.0467 22 49.86 22H36.9V18.74H49.86C50.1933 18.74 50.4467 18.6333 50.62 18.42C50.8067 18.1933 50.9 17.9467 50.9 17.68C50.9 17.4133 50.8067 17.1733 50.62 16.96C50.4467 16.7467 50.1933 16.64 49.86 16.64H48.66ZM54.7016 8H58.4816L64.6816 18.74L66.8016 15.04L62.7416 8H66.5216L72.7216 18.74L78.9216 8H82.6816L74.6016 22H70.8216L68.7016 18.3L66.5616 22H62.7816L54.7016 8ZM86.8694 22H83.6094V8H86.8694V22ZM88.8883 11.26V8H104.308V11.26H88.8883ZM88.8883 22V13.36H104.308V16.64H92.1483V22H88.8883ZM120.716 8V11.26H114.396V22H111.136V11.26H104.816V8H120.716ZM121.782 11.26V8H134.602C135.895 8 137.002 8.46667 137.922 9.4C138.855 10.32 139.322 11.4333 139.322 12.74C139.322 14.0333 138.855 15.1467 137.922 16.08C137.002 17 135.895 17.46 134.602 17.46H125.042V22H121.782V14.18H134.602C134.988 14.18 135.322 14.04 135.602 13.76C135.895 13.4667 136.042 13.12 136.042 12.72C136.042 12.32 135.895 11.98 135.602 11.7C135.322 11.4067 134.988 11.26 134.602 11.26H121.782ZM154.52 17.56V12.44C154.52 11.6533 154.087 11.26 153.22 11.26H145C144.12 11.26 143.68 11.6533 143.68 12.44V17.56C143.68 18.3467 144.12 18.74 145 18.74H153.22C154.087 18.74 154.52 18.3467 154.52 17.56ZM157.8 12.44V17.56C157.8 18.84 157.354 19.9 156.46 20.74C155.567 21.58 154.487 22 153.22 22H145C143.734 22 142.654 21.58 141.76 20.74C140.867 19.9 140.42 18.84 140.42 17.56V12.44C140.42 11.16 140.867 10.1 141.76 9.26C142.654 8.42 143.734 8 145 8H153.22C154.487 8 155.567 8.42 156.46 9.26C157.354 10.1 157.8 11.16 157.8 12.44ZM159.615 13.36H162.875V18.74H170.455C170.815 18.74 171.122 18.6133 171.375 18.36C171.629 18.0933 171.755 17.78 171.755 17.42V12.58C171.755 12.22 171.629 11.9133 171.375 11.66C171.122 11.3933 170.815 11.26 170.455 11.26H159.615V8H170.455C171.709 8 172.782 8.44667 173.675 9.34C174.582 10.2333 175.035 11.3133 175.035 12.58V17.42C175.035 18.2467 174.829 19.0133 174.415 19.72C174.002 20.4267 173.442 20.9867 172.735 21.4C172.042 21.8 171.282 22 170.455 22H159.615V13.36Z" fill="#131316"/>
</svg>
