<svg width="1125" height="172" viewBox="0 0 1125 172" fill="none" xmlns="http://www.w3.org/2000/svg">
<g clip-path="url(#clip0_13183_14314)">
<path d="M1124.42 49C1124.36 43.77 1123.69 38.49 1122.43 33.32C1121.02 27.53 1118.46 22.44 1114.83 18.19C1111.27 14.02 1106.69 10.67 1101.22 8.25002C1093.91 5.01002 1087.15 3.39002 1080.58 3.30002C1061.61 3.04002 1042.3 2.92002 1023.58 2.80002L1012 2.73002C1007.06 2.73002 1002.55 4.48002 998.59 7.95002C992.6 13.18 986.71 18.28 980.53 23.12C976.85 26.01 974.45 29.5 973.28 33.69C973.18 33.11 973.1 32.54 972.99 31.97C971.41 23.61 966.69 16.63 958.96 11.22C953.06 7.08002 946.2 4.28002 937.99 2.65002C929.2 0.90002 919.99 0.0200195 910.63 0.0200195C902.75 0.0200195 894.5 0.65002 886.12 1.89002C875.41 3.48002 866.92 6.89002 860.17 12.33C851.87 19.02 843.61 25.96 835.62 32.67L835.27 32.96C833.26 34.65 831.51 36.48 830.02 38.44C829.98 38.01 829.94 37.59 829.89 37.16L830.13 37.1L829.36 33.84C829.32 33.66 829.28 33.48 829.24 33.32L829.12 32.83C829.07 32.62 829.02 32.41 828.97 32.2L828.36 29.65L828.26 29.67C824.94 19.2 817.82 11.63 807.49 7.69002C802.6 5.83002 796.15 3.66002 789.54 3.48002C768.04 2.89002 746.22 2.86002 725.1 2.83002H725C721.08 2.83002 716.88 4.31002 713.78 6.80002C708.6 10.95 703.52 15.26 698.59 19.46C696.99 20.82 695.36 22.21 693.72 23.59V22.52C693.73 21.54 693.74 20.43 693.7 19.31C693.34 8.61002 687.93 3.19002 677.15 2.75002C676.52 2.72002 675.84 2.71002 674.99 2.71002H672.74H593.79C590.61 2.71002 588.04 2.71002 585.7 2.73002C581.57 2.75002 576.78 3.26002 572.46 6.91002L564.71 13.45C562.92 14.96 561.13 16.47 559.33 17.99C559.03 13.97 558.03 10.08 555 7.08002C551.15 3.28002 545.86 2.75002 540.7 2.74002C535.31 2.73002 529.47 2.72002 522.35 2.72002L479.08 2.74002C474.17 2.74002 470.15 2.74002 466.41 2.71002H466.28C460.24 2.71002 455.01 4.65002 450.71 8.49002C445.17 13.44 439.23 18.46 433.05 23.39C431.04 25 429.41 26.79 428.19 28.74C428.19 24.78 428.15 20.79 428.04 16.82C427.84 9.56002 423.21 4.46002 415.65 3.17002C413.61 2.82002 411.67 2.76002 409.88 2.74002C408.34 2.72002 406.67 2.72002 404.61 2.72002H339.53C335.76 2.73002 330.05 2.73002 324.92 7.10002C319.72 11.51 314.42 15.98 309.28 20.3L303.81 24.91C303.38 25.27 302.98 25.65 302.6 26.03C302.6 24.65 302.6 23.27 302.6 21.89C302.6 19.64 302.46 17.64 302.19 15.77C301.15 8.66002 297.01 4.40002 289.88 3.11002C288.51 2.86002 287.06 2.75002 285.32 2.74002H282.45C280.59 2.74002 278.73 2.74002 276.87 2.74002C275.02 2.74002 273.17 2.74002 271.32 2.74002C267.34 2.74002 264.28 2.72002 261.36 2.69002H261.08C255.78 2.69002 251.02 4.49002 246.95 8.03002L245.01 9.72002C240.16 13.95 235.14 18.33 230.02 22.15C223.42 27.08 220.34 33.73 220.88 41.92C220.99 43.6 221.01 45.34 221 47.14C219.64 47.43 218.17 47.86 216.7 48.56V47.41C216.7 38.38 216.71 29.04 216.68 19.85C216.67 16.25 216.22 11.02 212.49 7.18002C208.69 3.27002 203.45 2.77002 199.85 2.73002C197.46 2.71002 194.87 2.70002 191.7 2.70002C189.84 2.70002 187.98 2.70002 186.13 2.70002H180.58C178.24 2.70002 176.29 2.70002 174.44 2.69002H174.29C169.07 2.69002 164.42 4.44002 160.46 7.89002L160.21 8.11002C154.44 13.15 148.47 18.35 142.42 23.08C138.67 26.01 136.24 29.57 135.09 33.86C135.09 33.39 135.09 32.92 135.09 32.45C135.11 28.27 135.13 23.95 135.05 19.65C134.98 16.06 134.46 10.85 130.66 7.05002C126.82 3.21002 121.6 2.74002 118 2.73002H116.63C107.99 2.69002 99.05 2.65002 90.26 2.65002C82.07 2.65002 74.8 2.68002 68.04 2.74002C53.51 2.88002 41.72 7.32002 32 16.34C27.64 20.38 22.86 24.27 18.23 28.04C16.93 29.1 15.63 30.16 14.34 31.22C5.47999 38.51 0.749986 48.03 0.289986 59.53C-0.0400143 67.65 0.0299857 75.83 0.119986 83.52C0.159986 87.06 0.829986 90.38 1.35999 93.05C2.95999 101.11 7.14999 107.6 13.83 112.41C11.59 114.29 9.39999 116.12 7.17999 117.89C2.46999 121.65 -1.42548e-05 126.81 0.0299857 132.81C0.0399857 135.21 0.0299857 137.67 0.0199857 140.04C-1.42548e-05 144.08 -0.0200143 148.26 0.0699857 152.44C0.149986 155.96 0.689986 161.07 4.53999 164.8C8.31999 168.47 13.42 168.94 16.92 168.97C19.56 168.99 22.4 169 25.86 169C28.02 169 30.17 169 32.33 169H33.4C38.07 168.99 42.86 169 47.63 169H48.89C52.27 169 55.65 169.01 59.03 169.01C64.36 169.01 68.73 168.99 72.79 168.96C86.18 168.85 96.28 165.72 104.56 159.09C112.12 153.04 119.54 146.71 126.71 140.58L128.73 138.85C132.33 135.78 135.17 132.17 137.2 128.16C139.74 136.25 142.71 144.19 145.59 151.91L145.72 152.25C146.32 153.85 146.91 155.45 147.51 157.05C150.33 164.66 156.66 169.02 164.93 169.02H165.38C171.7 168.89 178.27 168.89 185.5 169.02H185.9C191.3 169.02 196.16 167.2 200.35 163.59C203.34 161.02 206.41 158.45 209.5 155.91C212.56 165.02 218.03 168.82 228.08 168.96C230.02 168.99 232.12 169 234.69 169C236.16 169 237.62 169 239.11 169C240.56 169 242.02 169 243.47 169C245.77 169 247.65 169 249.42 169.03H249.65C254.13 169.03 258.18 167.52 261.69 164.55C269.08 158.29 276.51 152.19 282.16 147.57C285.86 144.55 288.43 140.87 290.02 136.33C290.37 135.33 290.72 134.33 291.06 133.33L291.19 132.94C292.75 128.43 294.35 123.78 296.24 119.49C300.66 109.46 302.69 98.6 302.64 85.3C302.62 80.86 302.61 76.4 302.61 71.93C305.08 74.12 308.43 75.44 312.48 75.65C313.4 75.7 314.37 75.72 315.54 75.72C316.17 75.72 316.81 75.72 317.45 75.71H317.56C318.1 75.71 318.65 75.7 319.24 75.7H321.61C321.61 77.63 321.61 79.57 321.61 81.46V82.04C321.59 89.05 321.57 96.3 321.7 103.49C321.65 103.54 321.58 103.59 321.5 103.65C318.24 106.3 315.05 109.02 311.96 111.65L311.87 111.73C309.44 113.8 306.93 115.93 304.45 117.99C300.06 121.62 297.76 126.5 297.81 132.1C297.83 135.11 297.82 138.18 297.81 141.15C297.8 144.66 297.79 148.65 297.84 152.54C297.98 162.93 303.63 168.61 314.2 168.97C314.66 168.98 315.1 168.99 315.43 168.99H347.6C360.73 168.99 373.86 168.99 386.99 168.99H387.13C390.31 168.99 395.64 168.99 400.28 165.14L403.46 162.51C409.63 157.4 416.01 152.11 422.27 146.89C423.51 145.86 424.54 144.7 425.4 143.46C425.4 146.21 425.4 148.96 425.41 151.71C425.41 155.74 425.91 160.86 429.68 164.64C433.44 168.41 438.53 168.93 442.55 168.97C444.81 168.99 447.26 169 450.26 169H460.75C463.34 168.99 465.48 169 467.5 169H467.65C472.9 169 477.55 167.29 481.46 163.91L482.59 162.94C487.86 158.39 493.3 153.69 498.84 149.53C505.6 144.46 508.66 137.76 507.94 129.62C507.88 128.99 507.86 128.34 507.85 127.67C511.94 127.06 515.71 125.22 519.28 122.09C525.3 116.82 531.7 111.62 537.91 106.57L538.2 106.34C542.77 102.62 545.16 97.6 545.1 91.81C545.07 88.58 545.08 85.28 545.09 81.96C545.09 78.53 545.11 74.99 545.07 71.41C545.04 68.45 544.73 65.06 542.81 61.91C543.63 61.23 544.45 60.54 545.29 59.85C545.29 60.33 545.31 60.81 545.32 61.28C545.53 69.59 551.12 75.22 559.56 75.63C561.04 75.7 562.64 75.73 564.6 75.73C565.63 75.73 566.66 75.73 567.71 75.71C568.69 75.71 569.68 75.69 570.66 75.69H577.47V94.62C577.47 99.99 577.47 105.36 577.47 110.74V111.12C577.47 124.41 577.45 138.15 577.51 151.76C577.53 155.47 578 160.84 581.9 164.69C585.69 168.42 590.76 168.93 594.76 168.97C597.05 168.99 599.52 169 602.54 169C604.39 169 606.23 169 608.08 169H613.6C616.48 169 618.85 169 621.05 169.02H621.22C626.35 169.02 630.99 167.27 634.99 163.81C640.97 158.65 646.83 153.65 652.78 149.07C658.64 144.57 661.44 138.65 661.36 130.96C661.2 116.87 661.23 102.61 661.25 88.81C661.25 84.01 661.27 79.2 661.27 74.39C664.48 73 666.9 70.93 668.78 69.32L670.82 67.58C675.48 63.59 680.31 59.47 685.19 55.78C685.48 55.56 685.76 55.33 686.04 55.1C686.04 85.76 686.04 116.41 686.04 147.07C686.04 147.55 686.04 148.02 686.04 148.54C686.04 149.92 686.02 151.34 686.08 152.85C686.22 156.22 686.85 161.13 690.58 164.78C694.36 168.47 699.31 168.94 702.71 168.98C705.09 169 707.68 169.01 710.86 169.01H721.4C724.17 169 726.44 169.01 728.56 169.02H728.74C733.64 169.02 738 167.43 741.69 164.3C747.12 159.69 754.31 153.63 761.74 147.67C766.32 144 768.72 138.98 768.69 133.15C768.69 132.93 768.69 132.71 768.69 132.5C779.87 131.11 789.09 127.13 796.82 120.37C802.83 115.11 809.14 109.98 815.24 105.01L816.1 104.31C818.61 102.27 820.79 100.06 822.63 97.7C822.63 101.43 822.64 105.19 822.65 108.97V111.08C822.66 114.59 822.67 118.1 822.67 121.6C822.67 123.73 822.78 125.82 822.98 127.82C824.77 145.68 833.97 158.28 850.31 165.29C853.13 166.5 855.72 167.41 858.23 168.08C867.51 170.54 877.37 171.79 887.54 171.79C896.04 171.79 904.78 170.96 914.26 169.26C923.89 167.53 931.57 164.23 937.75 159.19C946.02 152.44 954.35 145.37 962.18 138.71C967.44 134.23 970.91 128.84 972.53 122.66C972.53 131.79 972.53 140.92 972.53 150.05C972.53 154.97 972.86 160.56 976.82 164.58C980.82 168.65 986.4 169 991.31 169C999.29 169 1007.27 169 1015.25 169C1025.74 169 1036.44 169 1047.04 168.98H1047.41C1050.14 168.98 1052.96 168.98 1055.88 168.72C1065.98 167.83 1077.66 165.8 1087.69 157.5C1094.43 151.91 1102.28 145.42 1110.02 138.96C1116.47 133.58 1120.63 126.9 1122.41 119.11C1123.72 113.35 1124.38 108.27 1124.44 103.56C1124.64 85.8 1124.64 67.44 1124.44 49.02L1124.42 49ZM134.36 65.83C132.05 62.9 129.16 60.38 125.7 58.32C125.13 57.98 124.55 57.66 123.98 57.36C125.29 56.28 126.59 55.22 127.88 54.19C131.08 51.65 133.25 48.46 134.32 44.79C134.35 51.85 134.36 58.9 134.36 65.83ZM136.79 115.99C135.93 123.81 132.27 130.69 126.2 135.87L124.18 137.6C117.03 143.71 109.64 150.02 102.13 156.03C94.56 162.08 85.24 164.94 72.77 165.04C68.71 165.07 64.35 165.09 59.04 165.09C55.66 165.09 52.28 165.09 48.9 165.08H47.64C42.87 165.07 38.07 165.06 33.39 165.08H32.32C30.17 165.08 28.01 165.08 25.86 165.08C22.41 165.08 19.59 165.07 16.96 165.05C13.89 165.02 10.02 164.65 7.27999 161.99C4.49999 159.29 4.06999 155.42 3.99999 152.36C3.90999 148.24 3.92999 144.08 3.94999 140.06C3.95999 137.68 3.96999 135.21 3.95999 132.8C3.93999 127.97 5.84999 123.99 9.63999 120.96C13.21 118.1 16.71 115.13 20.42 111.99L20.51 111.91C20.1 111.7 19.69 111.48 19.28 111.25C11.58 106.9 6.84999 100.52 5.21999 92.3C4.71999 89.79 4.09999 86.65 4.05999 83.48C3.95999 75.85 3.89999 67.73 4.21999 59.7C4.63999 49.36 8.88999 40.81 16.85 34.26C18.14 33.2 19.43 32.15 20.73 31.09C25.4 27.28 30.24 23.35 34.69 19.23C43.67 10.91 54.6 6.81002 68.11 6.68002C74.85 6.62002 82.11 6.59002 90.3 6.59002C99.09 6.59002 108.02 6.63002 116.66 6.66002H118.03C121.18 6.68002 125.14 7.05002 127.93 9.84002C130.69 12.6 131.11 16.58 131.17 19.74C131.25 24 131.23 28.32 131.21 32.49C131.2 34.75 131.19 37.05 131.19 39.3C131.19 44.15 129.28 48.13 125.48 51.15C122.55 53.48 119.63 55.94 116.8 58.33C119.1 59.33 121.46 60.37 123.73 61.72C131.16 66.14 135.65 73.01 136.71 81.61C138.07 92.64 138.11 104.22 136.82 116.02L136.79 115.99ZM298.74 85.31C298.79 98.04 296.86 108.4 292.68 117.9C290.73 122.32 289.1 127.06 287.51 131.65L287.38 132.04C287.04 133.03 286.69 134.03 286.34 135.02C285 138.86 282.82 141.97 279.69 144.52C274.06 149.12 266.64 155.21 259.17 161.55C256.34 163.94 253.23 165.11 249.66 165.11H249.45C247.69 165.09 245.8 165.08 243.48 165.08C242.02 165.08 240.56 165.08 239.11 165.08C237.64 165.08 236.17 165.08 234.71 165.08C232.16 165.08 230.07 165.07 228.15 165.04C219.34 164.92 215.33 161.88 212.85 153.44C212.43 152.01 212.01 150.58 211.58 149.12L211.06 149.55C206.68 153.16 202.16 156.88 197.81 160.62C194.3 163.64 190.41 165.1 185.92 165.1H185.55C178.34 164.97 171.63 164.97 165.32 165.1H164.91C158.31 165.1 153.44 161.76 151.2 155.69C150.56 153.97 149.92 152.26 149.28 150.54C146.04 141.87 142.7 132.9 140 123.84C139.84 123.29 139.7 122.74 139.57 122.19C138.42 117.39 138.39 112.45 138.36 107.65V106.99C138.28 95.76 138.29 84.35 138.29 73.32V73.18C138.29 72.93 138.29 72.68 138.29 72.43C138.29 61.95 138.29 51.14 138.23 40.37C138.19 34.24 140.29 29.73 144.84 26.18C150.97 21.39 156.99 16.14 162.8 11.07L163.04 10.86C166.31 8.01002 169.99 6.62002 174.3 6.62002H174.44C176.29 6.63002 178.24 6.64002 180.6 6.64002H186.15C188.01 6.63002 189.86 6.63002 191.72 6.63002C194.88 6.63002 197.46 6.64002 199.84 6.66002C202.99 6.69002 206.96 7.09002 209.71 9.92002C212.42 12.71 212.78 16.71 212.79 19.87C212.82 29.05 212.81 38.38 212.81 47.41V56.34C213.87 55.46 214.76 54.7 215.56 53.99C218.55 51.33 221.91 50.87 224.91 50.5V50.03C224.96 47.11 225.01 44.37 224.83 41.66C224.38 34.78 226.86 29.43 232.41 25.29C237.64 21.38 242.72 16.96 247.63 12.67L249.57 10.98C252.96 8.03002 256.74 6.60002 261.13 6.60002H261.39C264.29 6.64002 267.37 6.65002 271.38 6.65002C273.23 6.65002 275.08 6.65002 276.94 6.65002C278.8 6.65002 280.65 6.65002 282.51 6.65002H285.38C286.89 6.65002 288.12 6.75002 289.25 6.96002C294.76 7.95002 297.58 10.84 298.38 16.33C298.63 18.01 298.75 19.83 298.75 21.89C298.75 25.33 298.75 28.8 298.75 32.26C298.75 36.64 298.75 41.01 298.75 45.29V45.78C298.75 52.36 298.75 59.06 298.75 65.79C298.75 72.31 298.77 78.84 298.79 85.33L298.74 85.31ZM424.28 129.48C424.27 131.27 424.26 133.07 424.25 134.86C424.24 138.32 422.69 141.44 419.77 143.87C413.51 149.09 407.13 154.37 400.97 159.48L397.79 162.11C394.23 165.06 390.13 165.06 387.14 165.06H387C373.87 165.06 360.74 165.06 347.61 165.06H315.44C315.14 165.06 314.75 165.06 314.34 165.05C305.87 164.77 301.87 160.77 301.77 152.49C301.72 148.65 301.73 144.67 301.74 141.16C301.74 138.18 301.76 135.09 301.74 132.07C301.71 127.62 303.46 123.9 306.96 121C309.47 118.93 311.99 116.78 314.43 114.7C317.53 112.06 320.74 109.33 323.99 106.69C325.32 105.61 325.66 104.95 325.64 103.47C325.51 96.31 325.53 89.06 325.54 82.04V81.9C325.54 78.69 325.56 75.38 325.54 72.12C325.54 72.01 325.54 71.89 325.54 71.77H323.31H319.26C318.64 71.77 318.09 71.77 317.54 71.78H317.42C316.8 71.78 316.18 71.79 315.56 71.79C314.46 71.79 313.55 71.77 312.7 71.72C306 71.36 302.05 67.45 301.87 60.98C301.7 54.86 301.74 48.68 301.78 42.7C301.79 40.89 301.8 39.08 301.81 37.28C301.82 33.61 303.4 30.35 306.36 27.85L311.83 23.24C316.97 18.92 322.28 14.45 327.48 10.03C331.52 6.60002 336.17 6.60002 339.56 6.60002H404.64C406.68 6.59002 408.34 6.60002 409.87 6.61002C411.5 6.63002 413.25 6.69002 415.03 6.99002C422.77 8.31002 424.07 13.75 424.16 16.88C424.38 24.77 424.31 32.75 424.24 40.47V41.95C424.18 46.98 420.58 49.98 418.85 51.43C416.57 53.33 414.25 55.28 412.02 57.16C408.65 59.99 405.22 62.88 401.8 65.7C400.84 66.49 400.8 66.81 400.81 67.45C400.88 75.17 400.87 82.99 400.87 90.56C400.87 93.78 400.87 96.99 400.87 100.21C401.26 100.23 401.65 100.24 402.04 100.25C405.96 100.32 409.95 100.19 414.01 100.45C420.25 100.85 424.07 104.69 424.23 110.71C424.4 116.99 424.36 123.34 424.32 129.47L424.28 129.48ZM425.42 52.23C425.41 54.09 425.4 56.02 425.4 57.91V82.22C425.4 88.84 425.4 95.53 425.4 102.25C422.99 98.95 419.1 96.87 414.23 96.56C410.98 96.35 407.83 96.38 404.76 96.37C404.76 94.44 404.76 92.51 404.76 90.58C404.76 83.34 404.76 75.87 404.71 68.38C407.99 65.68 411.29 62.9 414.52 60.18C416.75 58.3 419.06 56.36 421.34 54.46C422.34 53.63 424 52.24 425.43 50.22C425.43 50.89 425.43 51.57 425.43 52.23H425.42ZM686.04 49.63C685.13 50.7 684.06 51.71 682.82 52.64C677.85 56.4 672.98 60.56 668.27 64.59L666.23 66.33C663.98 68.25 661.19 70.63 657.34 71.58V73.03C657.34 78.28 657.34 83.53 657.32 88.79C657.29 102.59 657.27 116.87 657.43 130.99C657.5 137.45 655.26 142.2 650.39 145.95C644.36 150.58 638.45 155.63 632.43 160.83C629.11 163.7 625.44 165.09 621.21 165.09H621.07C618.86 165.07 616.49 165.07 613.59 165.07H608.07C606.23 165.07 604.38 165.08 602.54 165.08C599.53 165.08 597.07 165.08 594.79 165.05C591.33 165.02 587.42 164.63 584.65 161.9C581.82 159.11 581.44 155.01 581.42 151.75C581.36 138.21 581.37 124.44 581.38 111.13V110.75C581.38 105.38 581.38 100.01 581.38 94.63V71.78H576.42H570.66C569.66 71.78 568.67 71.78 567.67 71.8C566.65 71.8 565.62 71.82 564.6 71.82C562.71 71.82 561.17 71.79 559.75 71.72C553.32 71.41 549.39 67.47 549.24 61.19C549.17 58.4 549.14 55.43 549.13 51.69C545.96 54.19 542.8 56.83 539.74 59.39C538.92 60.07 538.11 60.75 537.29 61.44C537.92 61.98 538.46 62.54 538.92 63.16C540.83 65.69 541.12 68.65 541.15 71.47C541.19 75 541.18 78.54 541.17 81.97C541.17 85.25 541.15 88.59 541.18 91.86C541.22 96.48 539.39 100.33 535.72 103.31L535.43 103.54C529.18 108.62 522.77 113.83 516.69 119.15C512.79 122.56 508.69 124.16 504 123.97C503.92 126.07 503.86 128.06 504.03 129.97C504.63 136.76 502.16 142.14 496.48 146.41C490.83 150.65 485.33 155.41 480.01 160L478.9 160.95C475.67 163.74 471.99 165.09 467.65 165.09H467.5C465.5 165.08 463.36 165.07 460.75 165.07H450.25C447.27 165.08 444.83 165.07 442.57 165.05C439.1 165.02 435.18 164.62 432.44 161.88C429.69 159.12 429.31 155.19 429.31 151.7C429.28 128.54 429.28 105 429.28 82.23V57.92C429.28 56.03 429.29 54.11 429.31 52.26C429.34 48.05 429.37 43.7 429.25 39.46C429.1 34.17 431.14 29.9 435.49 26.43C441.72 21.45 447.72 16.39 453.31 11.39C456.91 8.17002 461.15 6.61002 466.27 6.61002H466.4C470.12 6.63002 474.15 6.64002 479.07 6.64002L522.34 6.62002C529.46 6.62002 535.29 6.62002 540.68 6.64002C545.67 6.65002 549.55 7.20002 552.23 9.85002C554.92 12.51 555.49 16.36 555.51 21.32C555.51 22.98 555.51 24.65 555.51 26.31C559.41 23.02 563.31 19.73 567.21 16.44L574.96 9.90002C578.31 7.07002 582.1 6.66002 585.7 6.64002C588.04 6.63002 590.6 6.62002 593.77 6.62002H672.72H674.99C675.76 6.62002 676.39 6.63002 676.97 6.66002C685.65 7.02002 689.48 10.84 689.77 19.44C689.81 20.48 689.8 21.51 689.79 22.5V23.66C689.79 24.89 689.77 26.13 689.76 27.34C689.76 27.57 689.76 27.81 689.76 28.03C689.72 31.29 689.67 34.37 689.85 37.47C690.12 42.29 688.86 46.31 686.03 49.65L686.04 49.63ZM970.96 84.56C971 91.1 971.03 97.87 970.86 104.56C970.74 109.06 970.2 113.96 969.19 119.53C968.06 125.82 964.84 131.26 959.62 135.7C951.83 142.32 943.54 149.36 935.25 156.13C929.6 160.74 922.5 163.77 913.55 165.38C904.3 167.04 895.79 167.85 887.52 167.85C877.69 167.85 868.16 166.64 859.22 164.27C856.89 163.65 854.47 162.8 851.84 161.67C836.9 155.27 828.5 143.74 826.86 127.41C826.67 125.53 826.58 123.57 826.57 121.57C826.57 118.06 826.57 114.55 826.55 111.04V108.93C826.52 96.79 826.5 84.31 826.58 71.83C826.41 74.32 826.21 76.8 825.95 79.27C825.02 87.94 820.87 95.34 813.61 101.25L812.76 101.95C806.62 106.95 800.27 112.12 794.23 117.4C786.7 123.99 777.57 127.72 766.35 128.79L764.76 128.94C764.76 130.38 764.76 131.77 764.76 133.15C764.78 137.81 762.94 141.66 759.27 144.6C751.8 150.59 744.58 156.67 739.13 161.3C736.13 163.85 732.72 165.09 728.72 165.09H728.56C726.44 165.07 724.16 165.06 721.38 165.06H710.84C707.67 165.07 705.1 165.06 702.73 165.04C699.78 165.01 696.03 164.64 693.3 161.96C690.6 159.31 690.1 155.6 689.98 152.67C689.92 151.26 689.93 149.88 689.94 148.55C689.94 148.03 689.94 147.54 689.94 147.06C689.94 112.17 689.94 77.28 689.94 42.38C689.94 40.74 689.94 38.99 690.04 37.19C690.23 33.44 691.77 30.33 694.6 27.95C696.77 26.12 698.98 24.25 701.11 22.44C706 18.28 711.06 13.97 716.21 9.85002C718.61 7.93002 721.97 6.74002 724.98 6.74002H725.08C746.16 6.77002 767.96 6.80002 789.41 7.38002C795.43 7.54002 801.47 9.58002 806.07 11.33C816.13 15.17 822.78 22.9 825.28 33.69L825.4 34.18L824.92 34.29L825.4 34.19C825.59 34.97 825.8 35.86 825.9 36.84C826.67 44.22 827.03 51.58 827.01 58.86C827.37 56.02 827.94 53.26 828.53 50.62C829.8 44.94 832.91 40 837.75 35.93L838.1 35.64C846.12 28.9 854.34 21.99 862.59 15.35C868.78 10.36 876.65 7.22002 886.66 5.74002C894.85 4.53002 902.91 3.91002 910.6 3.91002C919.7 3.91002 928.65 4.77002 937.2 6.47002C944.87 7.99002 951.24 10.59 956.69 14.41C963.55 19.22 967.73 25.37 969.12 32.69C970.12 37.98 970.7 43.18 970.83 48.15C971.01 54.84 970.97 61.6 970.94 68.14C970.92 70.84 970.91 73.63 970.91 76.36C970.91 79.09 970.92 81.88 970.94 84.57L970.96 84.56ZM1120.5 103.5C1120.45 107.93 1119.82 112.75 1118.57 118.23C1116.99 125.17 1113.26 131.13 1107.49 135.94C1099.75 142.39 1091.91 148.89 1085.17 154.47C1075.97 162.09 1065.02 163.97 1055.51 164.8C1052.75 165.04 1050.02 165.05 1047.37 165.05H1047C1036.4 165.06 1025.7 165.07 1015.21 165.07C1007.23 165.07 999.25 165.07 991.28 165.07C986.03 165.07 982.24 164.52 979.58 161.82C976.95 159.14 976.42 155.33 976.41 150.03C976.41 138.12 976.41 126.21 976.41 114.3V95.2C976.41 90.27 976.41 85.33 976.43 80.4C976.45 67.32 976.47 53.8 976.35 40.42C976.3 34.29 978.39 29.77 982.94 26.2C989.2 21.29 995.13 16.16 1001.15 10.9C1004.38 8.08002 1008.03 6.65002 1011.99 6.65002L1023.54 6.72002C1042.26 6.83002 1061.54 6.95002 1080.51 7.22002C1086.54 7.30002 1092.79 8.81002 1099.62 11.83C1104.55 14.01 1108.66 17.01 1111.84 20.73C1115.07 24.51 1117.35 29.06 1118.62 34.25C1119.81 39.14 1120.44 44.12 1120.5 49.05C1120.7 67.42 1120.7 85.74 1120.5 103.51V103.5Z" fill="white"/>
<path d="M286.52 12.48C285.77 12.41 285.01 12.42 284.26 12.42C276.86 12.42 269.45 12.37 262.05 12.43C255.17 12.49 253.79 13.89 253.74 20.62C253.74 21.68 253.74 22.74 253.74 23.79C253.74 41.47 253.74 59.15 253.74 76.82C253.74 78.4 253.63 79.99 253.57 81.57C252.11 80.35 251.38 79.06 250.76 77.72C248.47 72.79 246.11 67.89 243.98 62.89C242.1 58.47 238.87 56.33 234.13 56.33C232.92 56.33 231.7 56.44 230.51 56.29C222.55 55.27 217.7 58.63 215.04 66.23C213.17 71.57 210.34 76.58 207.94 81.74C207.62 81.65 207.3 81.56 206.98 81.47C206.98 79.97 206.98 78.47 206.98 76.96C206.98 58.83 206.98 40.7 206.98 22.57C206.98 21.06 207.03 19.54 206.87 18.04C206.5 14.58 205.22 13.2 201.84 12.66C200.51 12.45 199.13 12.43 197.78 12.43C190.68 12.41 183.58 12.4 176.48 12.43C168.18 12.45 166.99 13.62 166.98 21.78C166.96 40.52 167.34 59.26 166.86 77.98C166.48 92.87 168.32 107.15 174.37 120.85C176.26 125.12 177.53 129.66 179.24 134.02C180.76 137.88 183.52 140.04 187.92 139.97C195.02 139.85 202.12 140 209.22 139.92C214.51 139.86 216.43 138.35 217.97 133.18C219.82 126.96 221.59 120.71 223.4 114.47C224.2 111.71 225.04 108.97 225.82 106.21C226.42 104.1 227.53 102.82 229.96 102.84C232.44 102.86 233.4 104.37 234.03 106.36C234.39 107.51 234.69 108.68 235.02 109.85C237.18 117.55 239.32 125.27 241.51 132.96C242.97 138.1 244.87 139.76 250.16 139.87C257.86 140.03 265.57 139.9 273.27 139.94C275.96 139.95 277.93 138.75 279.24 136.51C280.07 135.08 280.75 133.55 281.32 132C284.06 124.64 286.73 117.26 289.43 109.89C291.37 104.6 292.56 99.17 292.57 93.51C292.64 68.8801 292.69 44.26 292.75 19.63C292.75 19.33 292.75 19.03 292.72 18.72C292.38 14.37 290.95 12.92 286.53 12.48H286.52ZM273.87 88.31C273.63 94.45 272.32 100.56 271.29 106.64C270.63 110.5 269.64 114.31 268.72 118.13C268.01 121.09 266.67 123.48 263.21 123.89C259.27 124.36 256.96 123.27 255.12 119.61C250.11 109.62 245.19 99.59 240.22 89.58C239.62 88.36 238.95 87.18 238.38 85.94C236.7 82.29 234.06 80.44 229.86 80.49C225.82 80.53 223.41 82.45 221.73 85.85C216.65 96.14 211.52 106.41 206.42 116.68C205.88 117.76 205.41 118.88 204.82 119.93C202.97 123.25 200.77 124.3 196.96 123.9C193.75 123.56 192.16 121.53 191.52 118.65C188.96 107.18 185.76 95.8501 185.98 83.87C186.29 66.8 186.05 49.73 186.07 32.66C186.07 31.41 186.28 30.16 186.39 28.91C186.89 28.94 187.38 28.97 187.88 29V33.8C187.88 50.72 187.92 67.64 187.86 84.56C187.84 90.93 188.27 97.22 189.83 103.42C190.93 107.81 191.74 112.28 192.74 116.69C193.32 119.24 193.97 121.75 197.29 122.08C200.45 122.39 201.86 121.64 203.63 118.19C205.98 113.63 208.25 109.02 210.55 104.43C213.66 98.22 216.94 92.09 219.81 85.76C222.29 80.3 226.18 78.12 232.07 78.86C234.66 79.18 236.75 79.9901 238.1 82.26C239.25 84.21 240.41 86.16 241.43 88.18C246.46 98.16 251.46 108.15 256.42 118.17C257.57 120.49 258.96 122.22 261.86 122.12C264.66 122.03 266.25 121.24 266.84 118.47C269.29 107.13 272.54 95.95 272.35 84.13C272.08 67.36 272.28 50.59 272.28 33.82C272.28 32.19 272.28 30.56 272.28 28.72C274.54 29.18 274.07 30.6 274.07 31.62C274.12 39.32 274.11 47.03 274.09 54.73C274.07 65.91 274.32 77.1001 273.87 88.26V88.31Z" fill="white"/>
<path d="M130.8 81.7799C129.7 75.5499 126.71 70.5199 121.24 67.0299C116.7 64.1399 111.82 62.2099 106.55 61.3499C99.8398 60.2599 93.0898 59.4299 86.3698 58.4699C83.2298 58.0199 80.0598 57.7299 76.9698 57.0399C74.0598 56.3899 72.5598 53.7899 72.9498 50.8499C73.2998 48.1299 74.7898 46.7299 77.7998 46.4399C78.9998 46.3199 80.2198 46.3599 81.4198 46.3599C92.7498 46.3599 104.09 46.3599 115.42 46.3499C116.93 46.3499 118.45 46.3599 119.94 46.1599C123.42 45.6999 125 44.4199 125.11 40.9699C125.34 33.2699 125.33 25.5599 125.11 17.8599C125.02 14.4899 123.36 13.1499 119.94 12.6099C118.9 12.4499 117.83 12.4099 116.78 12.4099C101.37 12.3999 85.9498 12.3399 70.5398 12.4299C64.4898 12.4599 58.4498 12.9499 52.6698 14.9899C41.2198 19.0299 33.9298 26.7999 33.0698 39.1099C32.4098 48.5799 32.6098 58.1499 33.0698 67.6399C33.5298 77.1899 38.3198 84.3799 47.3998 87.8499C52.4298 89.7699 57.7898 90.9899 63.0998 91.9499C70.9698 93.3799 78.9498 94.1899 86.8498 95.4899C90.3098 96.0599 91.4598 98.1399 91.0798 101.79C90.7598 104.87 89.3598 106.18 86.0198 106.41C84.9698 106.49 83.9098 106.44 82.8498 106.44C69.2498 106.44 55.6498 106.44 42.0498 106.44C40.5398 106.44 39.0098 106.41 37.5298 106.62C34.6498 107.02 32.9798 108.42 32.9098 111.31C32.7198 119.16 32.7098 127.02 32.9098 134.87C32.9898 137.99 34.6798 139.4 37.8098 139.81C38.9998 139.97 40.2198 139.89 41.4298 139.9C50.4998 139.9 59.5598 139.9 68.6298 139.9C77.6998 139.9 86.4698 140.07 95.3798 139.83C99.7298 139.71 104.15 139.25 108.38 138.25C123.34 134.71 131.47 124.26 131.57 108.9C131.61 102.4 131.64 95.8999 131.54 89.3999C131.5 86.84 131.25 84.2599 130.81 81.7499L130.8 81.7799ZM112.12 106.99C111.64 116.4 105.51 122.62 96.1498 123.7C94.0598 123.94 91.9298 123.96 89.8098 123.96C77.7198 123.98 65.6298 123.97 53.5498 123.97H49.1898C49.1898 123.41 49.2098 122.85 49.2198 122.28C50.6198 122.23 52.0298 122.14 53.4298 122.14C65.9698 122.13 78.5098 122.18 91.0498 122.09C93.7398 122.07 96.5398 121.91 99.0998 121.17C105.68 119.28 109.78 114.85 110.26 107.9C110.62 102.65 110.6 97.3199 110.18 92.0699C109.61 85.0299 106.68 81.95 99.6798 80.3299C93.9398 79.0099 88.1498 77.9199 82.3798 76.7399C76.1698 75.4699 69.9398 74.2399 63.7298 72.9699C62.5498 72.7299 61.3798 72.4199 60.2198 72.0699C55.3698 70.5899 52.3798 67.3499 52.1898 62.2599C51.9298 55.6199 51.7198 48.9399 52.2198 42.3299C52.7998 34.6099 59.3198 29.1699 67.8098 28.6299C71.2698 28.4099 74.7598 28.5199 78.2298 28.5099C86.9898 28.4999 95.7598 28.4899 104.52 28.5099C105.91 28.5099 107.3 28.6799 108.7 28.7699C108.71 29.1399 108.73 29.4999 108.74 29.8699C107.37 29.9899 106.01 30.1999 104.64 30.1999C93.7598 30.2299 82.8798 30.1499 71.9998 30.2599C69.1598 30.2899 66.2198 30.4999 63.5098 31.2799C57.5998 32.9999 53.9898 37.8999 53.7998 44.0699C53.6398 49.1999 53.6798 54.3499 53.7698 59.4799C53.8998 66.6499 56.3298 69.5499 63.3898 71.0199C75.2198 73.4799 87.0598 75.8499 98.8898 78.2899C100.36 78.59 101.85 78.9499 103.25 79.4899C108.18 81.3799 111.38 84.8699 111.77 90.2099C112.17 95.7699 112.41 101.39 112.12 106.95V106.99Z" fill="white"/>
<path d="M411.86 46.64C416.76 46.57 418.34 45.02 418.42 40.07C418.52 33.42 418.49 26.78 418.44 20.13C418.4 14.09 416.95 12.64 411.02 12.43C410.42 12.41 409.81 12.43 409.21 12.43C386.1 12.43 362.99 12.43 339.87 12.43C338.51 12.43 337.14 12.4 335.8 12.58C332.17 13.08 330.58 14.53 330.49 18.16C330.31 25.71 330.3 33.27 330.48 40.82C330.57 44.91 332.35 46.52 336.45 46.63C341.13 46.75 345.81 46.64 350.5 46.68C351.66 46.69 352.82 46.89 354.05 47.01V106.19C352.32 106.19 350.84 106.19 349.37 106.19C345.44 106.19 341.51 106.12 337.59 106.22C332.06 106.36 330.49 107.88 330.42 113.24C330.34 119.89 330.32 126.54 330.43 133.18C330.52 138.28 332.2 139.8 337.39 139.93C337.99 139.94 338.6 139.93 339.2 139.93C362.76 139.93 386.33 139.93 409.89 139.93C411.1 139.93 412.32 140.01 413.51 139.85C416.57 139.45 418.25 137.97 418.32 134.83C418.49 126.98 418.5 119.12 418.32 111.27C418.24 107.99 416.56 106.53 412.99 106.34C408.77 106.11 404.54 106.22 400.31 106.2C398.69 106.19 397.08 106.2 395.2 106.2V46.67C401.02 46.67 406.45 46.73 411.87 46.65L411.86 46.64ZM375.92 121.99C384.57 122.08 393.32 122.18 401.98 122.27C402.06 123.01 402.11 123.17 402.08 123.31C402.05 123.43 401.93 123.61 401.84 123.61C384.04 123.73 366.24 123.84 348.44 123.92C347.93 123.92 347.42 123.64 346.11 123.26C349.58 121.41 352.57 122.35 355.39 122.18C358.25 122.01 361.13 122.14 364 122.14H372.93C373.99 118.69 374.38 38.96 373.41 30.49C369.07 29.96 364.58 30.43 360.13 30.23C355.76 30.03 351.32 30.83 346.28 29.58C350.22 28.3 397.78 28.14 402.01 29.15C402.01 29.45 402.01 29.75 402.01 30.05H376.56C375.38 33.68 374.91 111.15 375.93 121.99H375.92Z" fill="white"/>
<path d="M541.14 12.42C540.69 12.42 540.23 12.42 539.78 12.42C515.76 12.42 491.74 12.42 467.72 12.42C459.05 12.42 458.02 13.43 458.02 21.94C458.02 58.05 458.02 94.16 458.02 130.27C458.02 131.63 457.98 133 458.09 134.35C458.41 138.19 459.93 139.68 463.84 139.9C465.8 140.01 467.77 139.93 469.73 139.93C476.83 139.93 483.93 139.97 491.03 139.91C496.42 139.87 497.95 138.28 498.09 132.83C498.12 131.62 498.1 130.41 498.1 129.2C498.1 120.44 498.09 111.67 498.12 102.91C498.12 101.62 498.33 100.33 498.47 98.68C502.43 98.68 506.03 98.68 509.64 98.68C516.14 98.67 522.63 98.77 529.13 98.59C533.55 98.47 535.15 96.8101 535.23 92.44C535.36 85.34 535.34 78.24 535.24 71.14C535.18 66.71 533.58 65.14 529.3 64.8C528.25 64.72 527.19 64.74 526.13 64.74C518.27 64.74 510.42 64.74 502.56 64.73C501.24 64.73 499.93 64.56 498.37 64.46V46.36C500.36 46.36 501.99 46.36 503.63 46.36C515.56 46.36 527.5 46.36 539.43 46.36C548.74 46.36 549.63 45.47 549.64 36.39C549.64 31.25 549.66 26.12 549.64 20.98C549.6 13.92 548.18 12.51 541.15 12.42H541.14ZM528.92 30.22C514.12 30.28 499.32 30.26 484.52 30.26H479.34V81.1H518.82C518.82 81.42 518.83 81.74 518.84 82.07C514.7 83.22 510.41 82.43 506.21 82.57C501.68 82.72 497.15 82.6 492.62 82.6H479.01V123.51C478.65 123.55 478.3 123.59 477.94 123.63C477.71 122.77 477.3 121.92 477.29 121.06C477.23 115.93 477.25 110.79 477.25 105.65C477.25 81.79 477.25 57.92 477.25 34.06V28.85H533.45C532.15 30.92 530.35 30.21 528.92 30.21V30.22Z" fill="white"/>
<path d="M677.05 12.44C676.3 12.4 675.54 12.42 674.79 12.42C645.49 12.42 616.2 12.42 586.9 12.42C585.54 12.42 584.17 12.41 582.84 12.62C579.41 13.17 577.96 14.55 577.89 18C577.74 25.7 577.73 33.41 577.89 41.1C577.97 45.06 579.77 46.57 584.06 46.63C590.85 46.72 597.65 46.66 604.45 46.66C606.1 46.66 607.74 46.66 610.11 46.66C610.11 49.08 610.11 50.87 610.11 52.66C610.11 79.09 610.09 105.52 610.13 131.95C610.14 138.58 611.54 139.91 618.13 139.92C626.13 139.94 634.14 139.92 642.14 139.92C650.59 139.92 651.48 139.04 651.48 130.6C651.48 104.47 651.48 78.34 651.48 52.21C651.48 50.46 651.57 48.7 651.63 46.65C653.66 46.65 655.16 46.65 656.65 46.65C663.29 46.65 669.94 46.68 676.58 46.64C682.27 46.61 683.81 45.1 683.87 39.35C683.94 32.71 683.96 26.06 683.87 19.41C683.79 14.29 682.16 12.72 677.05 12.42V12.44ZM664.08 30.21C655.16 30.28 646.25 30.25 637.33 30.25C635.68 30.25 634.04 30.25 631.85 30.25C631.78 32.33 631.68 34.09 631.68 35.84C631.67 63.35 631.68 90.85 631.66 118.36C631.66 120.05 631.53 121.74 631.46 123.43C631.12 123.43 630.78 123.41 630.44 123.41C629.24 119.28 630.06 114.98 629.92 110.77C629.77 106.24 629.89 101.7 629.89 97.17V44.12C629.89 39.75 629.89 35.37 629.89 30.53C625.78 29.99 621.89 30.32 618.02 30.26C613.94 30.2 609.86 30.25 605.78 30.25H594.33C594.25 29.42 594.2 29.26 594.23 29.13C594.26 29.02 594.39 28.85 594.49 28.84C595.68 28.72 596.87 28.54 598.05 28.54C621.14 28.52 644.23 28.53 667.6 28.53C666.81 30.87 665.21 30.2 664.07 30.21H664.08Z" fill="white"/>
<path d="M1114.55 45.42C1113.85 28.58 1105.21 18 1088.75 14.44C1082.89 13.17 1076.79 12.59 1070.78 12.52C1051.75 12.28 1032.72 12.41 1013.69 12.44C1006.59 12.45 1005.2 13.89 1005.13 20.91C1005.13 21.97 1005.13 23.02 1005.13 24.08V76.2C1005.13 81.34 1005.13 86.47 1005.13 91.61C1005.13 105.36 1005.08 119.1 1005.16 132.85C1005.19 138.2 1006.78 139.91 1011.77 139.92C1032.61 139.96 1053.46 139.99 1074.3 139.82C1080.95 139.77 1087.55 138.82 1093.88 136.56C1105.12 132.55 1111.87 124.69 1113.79 112.9C1114.37 109.34 1114.6 105.69 1114.62 102.08C1114.71 88.33 1114.67 74.59 1114.66 60.84C1114.66 55.7 1114.76 50.56 1114.55 45.43V45.42ZM1095.54 99.49C1095.52 102.49 1095.14 105.51 1094.71 108.49C1093.91 113.97 1091 118.2 1085.94 120.32C1082.1 121.93 1077.9 123.45 1073.83 123.57C1057.99 124 1042.13 123.86 1026.28 123.91C1025.86 123.91 1025.45 123.67 1024.76 123.46V28.86C1026.02 28.73 1027.04 28.54 1028.06 28.54C1042.25 28.54 1056.44 28.57 1070.64 28.6C1075.54 28.61 1080.23 29.63 1084.68 31.68C1090.3 34.27 1093.76 38.58 1094.71 44.73C1095.15 47.55 1095.53 50.42 1095.55 53.27C1095.63 68.67 1095.64 84.07 1095.55 99.48L1095.54 99.49Z" fill="white"/>
<path d="M964.9 42.8699C964.14 28.4199 956.9 18.8699 943.16 14.3099C940.73 13.4999 938.25 12.7799 935.75 12.2599C921.56 9.29995 907.24 9.33995 892.92 10.8199C885.39 11.5999 878.03 13.2899 871.19 16.7699C862.99 20.9399 857.76 27.4199 856.19 36.5499C855.6 39.9499 855.29 43.4399 855.24 46.8999C855.12 56.7199 855.2 66.5399 855.2 76.3599C855.24 76.3599 855.29 76.3599 855.33 76.3599C855.33 87.6899 855.03 99.0299 855.41 110.35C855.85 123.62 862.41 132.87 875.07 137.42C878.19 138.54 881.37 139.56 884.61 140.22C899.25 143.21 914.01 143.19 928.79 141.43C935.72 140.61 942.45 138.95 948.76 135.84C957.51 131.52 962.83 124.62 964.21 114.89C964.67 111.61 964.98 108.28 964.99 104.97C965.06 85.9299 965.03 66.8999 965.02 47.8599C965.02 46.1999 964.99 44.5399 964.91 42.8799L964.9 42.8699ZM945.77 101.51C945.65 114.34 939.15 122.14 926.6 124.72C915.39 127.02 904.1 127.05 892.89 124.69C880.51 122.09 874.36 114.34 874.3 101.61C874.28 97.3799 874.28 93.16 874.28 88.9299C874.28 84.6999 874.29 80.4799 874.29 76.2499C874.29 67.7999 874.26 59.3499 874.29 50.8899C874.35 38.2699 880.63 30.3899 893 27.8899C904.06 25.6499 915.22 25.6799 926.29 27.8199C939.04 30.2799 945.67 38.2599 945.78 51.2499C945.92 67.9999 945.93 84.7599 945.78 101.51H945.77Z" fill="white"/>
<path d="M799.98 15.14C796.38 14.09 792.59 13.2 788.87 13.13C767.89 12.75 746.9 12.56 725.92 12.48C720.29 12.46 718.86 14.2 718.82 20.01C718.77 27.11 718.81 34.21 718.81 41.31C718.81 71.52 718.8 101.73 718.82 131.94C718.82 138.54 720.21 139.9 726.79 139.92C735.1 139.95 743.4 139.97 751.71 139.91C757.13 139.87 758.77 138.25 758.85 132.89C758.93 127 758.87 121.11 758.87 115.22C758.87 111.77 758.87 108.32 758.87 104.16C764.89 104.16 770.15 104.31 775.41 104.12C781.74 103.89 788.1 103.75 794.36 102.88C804.09 101.53 812.38 97.33 816.72 87.97C818.65 83.79 820.34 79.13 820.57 74.61C821.12 63.77 821.27 52.85 820.61 42.02C819.77 28.31 811.99 18.64 799.99 15.14H799.98ZM802.48 73.69C801.41 80.81 796.95 85.56 790.11 87.28C785.04 88.55 779.69 88.99 774.44 89.15C764.93 89.43 755.4 89.23 745.88 89.23H740.32C740.27 100.87 740.22 112.19 740.17 123.51L738.79 123.45V28.8C740.3 28.7 741.62 28.54 742.94 28.54C754.58 28.52 766.22 28.35 777.85 28.62C782.17 28.72 786.6 29.4 790.74 30.64C797.37 32.62 801.43 37.48 802.48 44.32C803.98 54.08 803.97 63.92 802.49 73.68L802.48 73.69Z" fill="white"/>
<path d="M1092.79 44.77C1091.85 39.54 1088.81 35.74 1084.02 33.39C1079.88 31.36 1075.5 30.38 1070.9 30.36C1057.17 30.31 1043.44 30.28 1029.7 30.26C1028.69 30.26 1027.67 30.47 1026.44 30.61V121.69C1027.25 121.87 1027.81 122.1 1028.38 122.1C1043.17 122.1 1057.96 122.26 1072.74 121.91C1076.69 121.81 1080.73 120.46 1084.48 119.02C1089.16 117.23 1091.89 113.35 1092.79 108.45C1093.38 105.2 1093.72 101.87 1093.75 98.57C1093.85 83.93 1093.85 69.29 1093.75 54.65C1093.73 51.35 1093.37 48.02 1092.79 44.77ZM1074.67 96.31C1074.67 97.66 1074.66 99.05 1074.4 100.37C1073.72 103.92 1071.96 106.02 1068.41 106.17C1060.92 106.47 1053.41 106.26 1045.61 106.26V46.6C1053.44 46.6 1060.95 46.4 1068.44 46.68C1072.21 46.82 1073.97 49.01 1074.53 52.82C1074.68 53.86 1074.67 54.93 1074.67 55.98C1074.67 69.42 1074.68 82.86 1074.67 96.3V96.31Z" fill="white"/>
<path d="M928.64 30.28C921.61 28.21 914.35 27.76 907.12 28.2C901.44 28.54 895.65 29.17 890.18 30.64C881.64 32.94 876.67 39.81 876.15 48.61C876.04 50.42 876.01 52.23 876.01 54.04C875.99 61.43 876.01 68.83 876.01 76.22C876.04 76.22 876.07 76.22 876.1 76.22C876.1 85.12 875.91 94.03 876.15 102.93C876.44 113.46 881.91 120.27 892.12 122.66C904.05 125.46 916.1 125.44 928 122.55C938.25 120.06 943.88 112.78 943.95 102.25C944.06 84.9 944.07 67.54 943.95 50.19C943.88 40.07 938.43 33.17 928.65 30.29L928.64 30.28ZM925.07 99.22C925.03 104.44 922.83 107.19 917.6 107.72C912.56 108.23 907.37 108.2 902.33 107.65C897.35 107.11 895.36 104.35 895.31 99.29C895.23 91.75 895.29 84.21 895.29 76.67C895.29 69.13 895.26 61.59 895.29 54.05C895.32 48.34 897.51 45.5 903.13 44.99C907.89 44.55 912.77 44.58 917.53 45.04C922.64 45.54 925.03 48.42 925.07 53.53C925.17 68.76 925.17 83.99 925.07 99.22Z" fill="white"/>
<path d="M789.97 32.21C786.84 31.23 783.5 30.5 780.24 30.44C767.87 30.21 755.49 30.28 743.11 30.28C742.26 30.28 741.42 30.54 740.43 30.7V87.07C741.52 87.2 742.25 87.37 742.97 87.37C754.89 87.38 766.82 87.53 778.74 87.28C782.61 87.2 786.57 86.49 790.29 85.37C796.1 83.62 799.8 79.44 800.71 73.4C802.16 63.8 802.18 54.13 800.67 44.54C799.7 38.38 795.95 34.1 789.97 32.22V32.21ZM782.49 65.4C782.08 70.17 779.9 72.06 775.09 72.21C769.83 72.37 764.56 72.25 758.75 72.25V46.2C759.76 46.02 760.73 45.7 761.72 45.69C766.09 45.64 770.47 45.57 774.84 45.72C779.87 45.88 782.11 47.8 782.51 52.76C782.85 56.95 782.86 61.21 782.5 65.4H782.49Z" fill="white"/>
<path d="M298.7 45.76V45.27C298.7 40.99 298.7 36.62 298.7 32.24C298.7 28.78 298.7 25.31 298.7 21.87C298.7 19.81 298.58 17.99 298.33 16.31C297.53 10.83 294.71 7.93997 289.2 6.93997C288.07 6.73997 286.83 6.63997 285.33 6.63997H282.46C280.6 6.63997 278.75 6.63997 276.89 6.63997C275.04 6.63997 273.19 6.63997 271.33 6.63997C267.33 6.63997 264.25 6.61997 261.34 6.58997H261.08C256.69 6.58997 252.91 8.01997 249.52 10.97L247.58 12.66C242.67 16.94 237.59 21.37 232.36 25.28C226.81 29.42 224.33 34.78 224.78 41.65C224.96 44.36 224.91 47.1 224.87 50.02V50.49C221.87 50.86 218.51 51.32 215.52 53.98C214.72 54.69 213.83 55.45 212.77 56.33V47.4C212.77 38.37 212.78 29.04 212.76 19.86C212.76 16.69 212.39 12.7 209.68 9.90997C206.93 7.07997 202.96 6.67997 199.81 6.64997C197.43 6.62997 194.85 6.61997 191.69 6.61997C189.83 6.61997 187.98 6.61997 186.12 6.61997H180.57C178.22 6.61997 176.26 6.61997 174.41 6.60997H174.27C169.96 6.60997 166.28 7.99997 163.01 10.85L162.77 11.06C156.95 16.13 150.94 21.38 144.81 26.17C140.26 29.72 138.16 34.23 138.2 40.36C138.27 51.13 138.26 61.95 138.26 72.42C138.26 72.67 138.26 72.92 138.26 73.17V73.31C138.26 84.35 138.26 95.76 138.33 106.98V107.64C138.36 112.44 138.4 117.38 139.55 122.18C139.68 122.73 139.82 123.29 139.98 123.83C142.68 132.9 146.03 141.86 149.26 150.53C149.9 152.25 150.54 153.96 151.18 155.68C153.43 161.75 158.3 165.09 164.89 165.09H165.3C171.61 164.96 178.32 164.96 185.53 165.09H185.9C190.39 165.09 194.28 163.63 197.79 160.61C202.14 156.87 206.66 153.15 211.04 149.54L211.56 149.11C211.99 150.58 212.41 152 212.83 153.43C215.32 161.87 219.32 164.9 228.13 165.03C230.05 165.06 232.14 165.07 234.69 165.07C236.16 165.07 237.62 165.07 239.09 165.07C240.55 165.07 242.01 165.07 243.46 165.07C245.78 165.07 247.67 165.07 249.43 165.1H249.64C253.21 165.1 256.33 163.94 259.15 161.54C266.63 155.21 274.05 149.12 279.67 144.51C282.8 141.96 284.97 138.85 286.32 135.01C286.67 134.02 287.01 133.02 287.36 132.03L287.49 131.64C289.07 127.06 290.71 122.32 292.66 117.89C296.85 108.38 298.77 98.03 298.72 85.3C298.69 78.82 298.68 72.28 298.68 65.76C298.68 59.04 298.68 52.34 298.68 45.75L298.7 45.76ZM281.3 132C280.72 133.55 280.05 135.08 279.22 136.51C277.92 138.75 275.95 139.95 273.25 139.94C265.55 139.9 257.84 140.04 250.14 139.87C244.84 139.76 242.95 138.1 241.49 132.96C239.3 125.26 237.16 117.55 235 109.85C234.67 108.69 234.38 107.51 234.01 106.36C233.38 104.37 232.42 102.86 229.94 102.84C227.51 102.82 226.4 104.11 225.8 106.21C225.02 108.97 224.18 111.71 223.38 114.47C221.57 120.71 219.81 126.96 217.95 133.18C216.41 138.34 214.49 139.86 209.2 139.92C202.1 140 195 139.86 187.9 139.97C183.5 140.04 180.74 137.89 179.22 134.02C177.5 129.67 176.23 125.13 174.35 120.85C168.3 107.16 166.46 92.88 166.84 77.98C167.32 59.26 166.94 40.51 166.96 21.78C166.96 13.61 168.16 12.45 176.46 12.43C183.56 12.41 190.66 12.42 197.76 12.43C199.12 12.43 200.49 12.45 201.82 12.66C205.2 13.2 206.49 14.58 206.85 18.04C207.01 19.54 206.95 21.06 206.96 22.57C206.96 40.7 206.96 58.83 206.96 76.96C206.96 78.46 206.96 79.96 206.96 81.47C207.28 81.56 207.6 81.65 207.92 81.74C210.32 76.58 213.15 71.58 215.02 66.23C217.68 58.64 222.53 55.27 230.49 56.29C231.68 56.44 232.9 56.33 234.11 56.33C238.85 56.33 242.07 58.46 243.96 62.89C246.09 67.89 248.45 72.79 250.74 77.72C251.36 79.06 252.09 80.36 253.55 81.57C253.61 79.99 253.72 78.4 253.72 76.82C253.73 59.14 253.72 41.46 253.72 23.79C253.72 22.73 253.72 21.67 253.72 20.62C253.77 13.89 255.15 12.49 262.03 12.43C269.43 12.37 276.84 12.41 284.24 12.42C284.99 12.42 285.75 12.41 286.5 12.48C290.92 12.91 292.35 14.37 292.69 18.72C292.71 19.02 292.72 19.32 292.72 19.63C292.66 44.26 292.61 68.88 292.54 93.51C292.52 99.16 291.34 104.6 289.4 109.89C286.69 117.26 284.02 124.64 281.29 132H281.3Z" fill="black"/>
<path d="M123.7 61.6901C121.43 60.3401 119.07 59.3001 116.77 58.3001C119.6 55.9001 122.51 53.4401 125.45 51.1201C129.25 48.1101 131.17 44.1201 131.16 39.2701C131.16 37.0201 131.16 34.7201 131.18 32.4601C131.2 28.2901 131.22 23.9701 131.14 19.7101C131.08 16.5501 130.66 12.5701 127.9 9.81006C125.11 7.02006 121.14 6.65006 118 6.64006H116.63C107.99 6.60006 99.0604 6.56006 90.2704 6.56006C82.0804 6.56006 74.8204 6.59006 68.0804 6.65006C54.5704 6.78006 43.6404 10.8801 34.6604 19.2001C30.2104 23.3201 25.3804 27.2601 20.7004 31.0601C19.4104 32.1101 18.1104 33.1701 16.8204 34.2301C8.86038 40.7701 4.61038 49.3301 4.19038 59.6701C3.87038 67.7001 3.93038 75.8201 4.03038 83.4501C4.07038 86.6201 4.69038 89.7501 5.19038 92.2701C6.82038 100.49 11.5504 106.87 19.2504 111.22C19.6604 111.45 20.0704 111.67 20.4804 111.88L20.3904 111.96C16.6804 115.1 13.1804 118.07 9.61038 120.93C5.82038 123.96 3.91038 127.95 3.93038 132.77C3.94038 135.19 3.93038 137.65 3.92038 140.03C3.90038 144.05 3.88038 148.21 3.97038 152.33C4.04038 155.4 4.47038 159.27 7.25038 161.96C9.99038 164.62 13.8704 164.99 16.9304 165.02C19.5604 165.04 22.3904 165.05 25.8304 165.05C27.9904 165.05 30.1404 165.05 32.2904 165.05H33.3604C38.0404 165.04 42.8304 165.05 47.6104 165.05H48.8704C52.2504 165.05 55.6304 165.06 59.0104 165.06C64.3204 165.06 68.6904 165.04 72.7404 165.01C85.2004 164.91 94.5304 162.05 102.1 156C109.62 149.99 117.01 143.68 124.15 137.57L126.17 135.84C132.24 130.65 135.9 123.78 136.76 115.96C138.05 104.16 138.02 92.5801 136.65 81.5501C135.59 72.9601 131.1 66.0801 123.67 61.6601L123.7 61.6901ZM68.6204 139.93C59.5504 139.93 50.4904 139.93 41.4204 139.93C40.2104 139.93 38.9904 140 37.8004 139.84C34.6704 139.43 32.9804 138.02 32.9004 134.9C32.7104 127.05 32.7104 119.19 32.9004 111.34C32.9704 108.46 34.6404 107.06 37.5204 106.65C39.0104 106.44 40.5304 106.47 42.0404 106.47C55.6404 106.46 69.2404 106.47 82.8404 106.47C83.9004 106.47 84.9604 106.52 86.0104 106.44C89.3504 106.2 90.7504 104.9 91.0704 101.82C91.4504 98.1701 90.2904 96.0901 86.8404 95.5201C78.9504 94.2101 70.9604 93.4001 63.0904 91.9801C57.7804 91.0201 52.4204 89.8001 47.3904 87.8801C38.3004 84.4101 33.5104 77.2301 33.0604 67.6701C32.6104 58.1701 32.4104 48.6001 33.0604 39.1401C33.9204 26.8301 41.2104 19.0601 52.6604 15.0201C58.4404 12.9801 64.4804 12.4901 70.5304 12.4601C85.9404 12.3701 101.36 12.4301 116.77 12.4401C117.82 12.4401 118.89 12.4701 119.93 12.6401C123.35 13.1801 125.01 14.5201 125.1 17.8901C125.32 25.5901 125.32 33.3001 125.1 41.0001C125 44.4501 123.41 45.7301 119.93 46.1901C118.44 46.3901 116.92 46.3701 115.41 46.3801C104.08 46.3901 92.7404 46.3801 81.4104 46.3901C80.2004 46.3901 78.9904 46.3501 77.7904 46.4701C74.7904 46.7601 73.3004 48.1601 72.9404 50.8801C72.5604 53.8201 74.0604 56.4101 76.9604 57.0701C80.0404 57.7601 83.2204 58.0601 86.3604 58.5001C93.0904 59.4601 99.8404 60.2901 106.54 61.3801C111.8 62.2301 116.69 64.1601 121.23 67.0601C126.7 70.5501 129.69 75.5701 130.79 81.8101C131.23 84.3301 131.48 86.9101 131.52 89.4601C131.62 95.9601 131.59 102.46 131.55 108.96C131.45 124.32 123.33 134.77 108.36 138.31C104.13 139.31 99.7104 139.78 95.3604 139.89C86.4504 140.13 77.5304 139.96 68.6104 139.96L68.6204 139.93Z" fill="black"/>
<path d="M413.97 100.46C409.91 100.2 405.93 100.33 402 100.26C401.61 100.26 401.23 100.24 400.83 100.22C400.83 97 400.83 93.79 400.83 90.57C400.83 83.01 400.83 75.18 400.77 67.46C400.77 66.82 400.8 66.5 401.76 65.71C405.18 62.9 408.61 60.01 411.98 57.17C414.22 55.29 416.53 53.34 418.81 51.44C420.54 50 424.15 47 424.19 41.96V40.48C424.27 32.76 424.34 24.78 424.12 16.89C424.03 13.76 422.73 8.30998 414.99 6.99998C413.21 6.69998 411.46 6.63998 409.83 6.61998C408.31 6.59998 406.64 6.59998 404.6 6.59998H339.52C336.13 6.60998 331.48 6.60998 327.44 10.05C322.24 14.47 316.93 18.94 311.79 23.26L306.32 27.87C303.35 30.37 301.78 33.63 301.77 37.3C301.77 39.11 301.75 40.91 301.74 42.72C301.7 48.7 301.66 54.87 301.83 61C302.01 67.47 305.96 71.38 312.66 71.74C313.5 71.78 314.41 71.81 315.52 71.81C316.14 71.81 316.76 71.81 317.38 71.8H317.5C318.05 71.8 318.6 71.79 319.22 71.79H323.27H325.5C325.5 71.91 325.5 72.02 325.5 72.14C325.5 75.4 325.5 78.71 325.5 81.92V82.06C325.48 89.07 325.47 96.33 325.6 103.49C325.63 104.96 325.29 105.63 323.95 106.71C320.7 109.35 317.49 112.08 314.39 114.72C311.95 116.8 309.43 118.95 306.92 121.02C303.42 123.91 301.66 127.63 301.7 132.09C301.72 135.11 301.71 138.2 301.7 141.18C301.69 144.69 301.68 148.67 301.73 152.51C301.84 160.8 305.83 164.79 314.3 165.07C314.71 165.08 315.1 165.09 315.4 165.09H347.57C360.7 165.09 373.83 165.09 386.96 165.09H387.1C390.1 165.09 394.2 165.09 397.75 162.14L400.93 159.51C407.1 154.4 413.47 149.11 419.73 143.9C422.65 141.47 424.2 138.35 424.21 134.89C424.21 133.1 424.23 131.3 424.24 129.51C424.28 123.38 424.32 117.03 424.15 110.75C423.99 104.73 420.17 100.9 413.93 100.49L413.97 100.46ZM418.31 134.83C418.24 137.98 416.57 139.46 413.5 139.85C412.31 140 411.09 139.93 409.88 139.93C386.32 139.93 362.75 139.93 339.19 139.93C338.59 139.93 337.98 139.93 337.38 139.93C332.2 139.81 330.51 138.28 330.42 133.18C330.31 126.53 330.32 119.88 330.41 113.24C330.48 107.88 332.05 106.36 337.58 106.22C341.51 106.12 345.43 106.19 349.36 106.19C350.83 106.19 352.31 106.19 354.04 106.19V47.01C352.81 46.89 351.65 46.69 350.49 46.68C345.81 46.64 341.12 46.75 336.44 46.63C332.35 46.52 330.57 44.91 330.47 40.82C330.3 33.27 330.31 25.71 330.48 18.16C330.57 14.53 332.16 13.08 335.79 12.58C337.13 12.39 338.5 12.43 339.86 12.43C362.97 12.43 386.08 12.43 409.2 12.43C409.8 12.43 410.41 12.42 411.01 12.43C416.95 12.64 418.39 14.09 418.43 20.13C418.48 26.78 418.51 33.43 418.41 40.07C418.33 45.02 416.75 46.57 411.85 46.64C406.43 46.72 401.01 46.66 395.18 46.66V106.19C397.06 106.19 398.68 106.19 400.29 106.19C404.52 106.22 408.76 106.1 412.97 106.33C416.54 106.53 418.22 107.99 418.3 111.26C418.49 119.11 418.47 126.97 418.3 134.82L418.31 134.83Z" fill="black"/>
<path d="M689.77 28.01C689.77 27.78 689.77 27.55 689.77 27.32C689.79 26.11 689.8 24.87 689.8 23.64V22.48C689.81 21.49 689.82 20.47 689.78 19.42C689.49 10.82 685.67 6.99997 676.98 6.63997C676.4 6.61997 675.77 6.59997 675 6.59997H672.73H593.78C590.61 6.59997 588.05 6.59997 585.71 6.61997C582.11 6.63997 578.33 7.04997 574.97 9.87997L567.22 16.42C563.32 19.71 559.42 23 555.52 26.29C555.52 24.63 555.52 22.96 555.52 21.3C555.5 16.34 554.93 12.49 552.24 9.82997C549.56 7.17997 545.68 6.62997 540.69 6.61997C535.3 6.60997 529.47 6.59997 522.35 6.59997L479.08 6.61997C474.16 6.61997 470.14 6.61997 466.41 6.58997H466.28C461.16 6.58997 456.93 8.15997 453.32 11.37C447.72 16.37 441.72 21.43 435.5 26.41C431.15 29.88 429.11 34.15 429.26 39.44C429.38 43.68 429.35 48.03 429.32 52.24C429.31 54.09 429.3 56.01 429.3 57.9V82.21C429.3 104.98 429.3 128.52 429.32 151.68C429.32 155.16 429.7 159.1 432.45 161.86C435.19 164.61 439.1 165 442.58 165.03C444.83 165.05 447.27 165.06 450.26 165.06H460.76C463.36 165.05 465.51 165.06 467.51 165.06H467.66C472 165.06 475.68 163.71 478.91 160.92L480.02 159.97C485.34 155.37 490.84 150.62 496.49 146.38C502.17 142.11 504.64 136.74 504.04 129.94C503.87 128.03 503.93 126.03 504.01 123.94C508.69 124.13 512.8 122.53 516.7 119.12C522.78 113.8 529.19 108.59 535.44 103.51L535.73 103.28C539.4 100.3 541.23 96.45 541.19 91.83C541.16 88.56 541.17 85.22 541.18 81.94C541.18 78.51 541.2 74.97 541.16 71.44C541.13 68.62 540.84 65.66 538.93 63.13C538.47 62.51 537.93 61.95 537.3 61.41C538.12 60.73 538.93 60.05 539.75 59.36C542.81 56.8 545.97 54.16 549.14 51.66C549.14 55.4 549.18 58.37 549.25 61.16C549.41 67.45 553.34 71.39 559.76 71.69C561.18 71.76 562.72 71.79 564.61 71.79C565.63 71.79 566.65 71.79 567.68 71.77C568.68 71.77 569.67 71.75 570.67 71.75H576.43H581.39V94.6C581.39 99.97 581.39 105.34 581.39 110.72V111.1C581.39 124.41 581.37 138.18 581.43 151.72C581.44 154.98 581.82 159.09 584.66 161.87C587.43 164.6 591.34 164.99 594.8 165.02C597.08 165.04 599.54 165.05 602.55 165.05C604.39 165.05 606.24 165.05 608.08 165.05H613.6C616.5 165.05 618.87 165.05 621.08 165.07H621.22C625.44 165.07 629.11 163.68 632.44 160.81C638.47 155.61 644.37 150.56 650.4 145.93C655.28 142.18 657.52 137.43 657.44 130.97C657.28 116.85 657.31 102.57 657.33 88.77C657.33 83.52 657.35 78.27 657.35 73.01V71.56C661.2 70.61 663.99 68.23 666.24 66.31L668.28 64.57C672.99 60.54 677.86 56.38 682.83 52.62C684.07 51.68 685.14 50.68 686.05 49.61C688.88 46.27 690.14 42.26 689.87 37.43C689.7 34.33 689.74 31.25 689.78 27.99L689.77 28.01ZM683.87 39.37C683.81 45.12 682.27 46.62 676.58 46.66C669.94 46.7 663.29 46.67 656.65 46.67C655.16 46.67 653.66 46.67 651.63 46.67C651.57 48.72 651.48 50.47 651.48 52.23C651.48 78.36 651.48 104.49 651.48 130.62C651.48 139.06 650.58 139.94 642.14 139.94C634.14 139.94 626.13 139.96 618.13 139.94C611.54 139.92 610.14 138.6 610.13 131.97C610.09 105.54 610.11 79.11 610.11 52.68C610.11 50.89 610.11 49.1 610.11 46.68C607.75 46.68 606.1 46.68 604.45 46.68C597.65 46.68 590.86 46.74 584.06 46.65C579.77 46.59 577.97 45.09 577.89 41.12C577.73 33.42 577.74 25.71 577.89 18.02C577.96 14.57 579.4 13.19 582.84 12.64C584.17 12.43 585.55 12.44 586.9 12.44C616.2 12.44 645.49 12.44 674.79 12.44C675.54 12.44 676.3 12.42 677.05 12.46C682.15 12.76 683.79 14.33 683.87 19.45C683.97 26.09 683.95 32.74 683.87 39.39V39.37ZM549.63 36.39C549.63 45.48 548.73 46.36 539.42 46.36C527.49 46.36 515.55 46.36 503.62 46.36C501.99 46.36 500.35 46.36 498.36 46.36V64.46C499.91 64.56 501.23 64.73 502.55 64.73C510.41 64.75 518.26 64.74 526.12 64.74C527.18 64.74 528.24 64.71 529.29 64.8C533.58 65.14 535.17 66.71 535.23 71.14C535.33 78.24 535.34 85.34 535.22 92.44C535.14 96.81 533.54 98.46 529.12 98.59C522.63 98.77 516.13 98.67 509.63 98.68C506.03 98.68 502.42 98.68 498.46 98.68C498.32 100.33 498.11 101.62 498.11 102.91C498.08 111.67 498.09 120.44 498.09 129.2C498.09 130.41 498.11 131.62 498.08 132.83C497.93 138.28 496.4 139.86 491.02 139.91C483.92 139.97 476.82 139.93 469.72 139.93C467.76 139.93 465.79 140.01 463.83 139.9C459.92 139.68 458.4 138.19 458.08 134.35C457.97 133 458.01 131.63 458.01 130.27C458.01 94.16 458.01 58.05 458.01 21.94C458.01 13.43 459.04 12.42 467.71 12.42C491.73 12.42 515.75 12.42 539.77 12.42C540.22 12.42 540.68 12.42 541.13 12.42C548.16 12.51 549.58 13.92 549.62 20.98C549.65 26.12 549.63 31.25 549.62 36.39H549.63Z" fill="black"/>
<path d="M1120.51 49.05C1120.46 44.12 1119.83 39.14 1118.63 34.25C1117.36 29.06 1115.08 24.52 1111.85 20.73C1108.67 17.01 1104.56 14.01 1099.63 11.83C1092.81 8.81002 1086.56 7.30002 1080.52 7.22002C1061.55 6.96002 1042.27 6.84002 1023.55 6.72002L1012 6.65002C1008.04 6.65002 1004.39 8.08002 1001.16 10.9C995.13 16.16 989.2 21.29 982.95 26.2C978.4 29.77 976.3 34.29 976.36 40.42C976.48 53.8 976.46 67.32 976.44 80.4C976.44 85.33 976.43 90.27 976.43 95.2V114.3C976.43 126.21 976.43 138.12 976.43 150.03C976.43 155.32 976.96 159.14 979.6 161.82C982.26 164.52 986.04 165.07 991.3 165.07C999.28 165.07 1007.26 165.07 1015.23 165.07C1025.72 165.07 1036.42 165.07 1047.02 165.05H1047.39C1050.03 165.05 1052.77 165.05 1055.53 164.8C1065.03 163.96 1075.99 162.08 1085.19 154.47C1091.93 148.89 1099.77 142.39 1107.51 135.94C1113.28 131.13 1117.01 125.17 1118.59 118.23C1119.84 112.75 1120.47 107.93 1120.52 103.5C1120.72 85.74 1120.72 67.41 1120.52 49.04L1120.51 49.05ZM1093.88 136.54C1087.55 138.8 1080.95 139.75 1074.3 139.8C1053.46 139.97 1032.61 139.94 1011.77 139.9C1006.79 139.9 1005.19 138.18 1005.16 132.83C1005.08 119.08 1005.13 105.34 1005.13 91.59C1005.13 86.45 1005.13 81.32 1005.13 76.18V24.07C1005.13 23.01 1005.13 21.96 1005.13 20.9C1005.19 13.88 1006.59 12.44 1013.69 12.43C1032.72 12.4 1051.76 12.27 1070.78 12.51C1076.78 12.59 1082.89 13.17 1088.75 14.43C1105.21 17.99 1113.85 28.57 1114.55 45.41C1114.76 50.54 1114.66 55.68 1114.66 60.82C1114.67 74.57 1114.72 88.31 1114.62 102.06C1114.6 105.67 1114.36 109.32 1113.79 112.88C1111.87 124.67 1105.12 132.53 1093.88 136.54Z" fill="black"/>
<path d="M970.86 48.15C970.73 43.19 970.15 37.99 969.15 32.69C967.77 25.37 963.58 19.22 956.72 14.41C951.27 10.59 944.9 8.00003 937.23 6.47003C928.69 4.77003 919.74 3.91003 910.63 3.91003C902.94 3.91003 894.88 4.53003 886.69 5.74003C876.68 7.22003 868.81 10.37 862.62 15.35C854.37 21.99 846.15 28.9 838.13 35.64L837.78 35.93C832.94 40 829.83 44.94 828.56 50.62C827.97 53.26 827.4 56.02 827.04 58.86C827.06 51.58 826.69 44.22 825.93 36.84C825.83 35.86 825.62 34.97 825.43 34.19L824.95 34.29L825.43 34.18L825.31 33.69C822.8 22.9 816.16 15.17 806.1 11.33C801.5 9.58003 795.46 7.54003 789.44 7.38003C767.99 6.80003 746.19 6.77003 725.11 6.74003H725.01C721.99 6.74003 718.63 7.93003 716.24 9.85003C711.09 13.97 706.03 18.27 701.14 22.44C699.01 24.25 696.81 26.13 694.63 27.95C691.8 30.33 690.26 33.44 690.07 37.19C689.98 39 689.97 40.75 689.97 42.38C689.97 77.27 689.97 112.16 689.97 147.06C689.97 147.54 689.97 148.03 689.97 148.55C689.97 149.88 689.95 151.27 690.01 152.67C690.14 155.61 690.63 159.32 693.33 161.96C696.06 164.63 699.81 165.01 702.76 165.04C705.13 165.06 707.71 165.07 710.87 165.07H721.41C724.19 165.06 726.47 165.07 728.59 165.08H728.75C732.75 165.08 736.16 163.84 739.16 161.29C744.61 156.66 751.82 150.58 759.3 144.59C762.97 141.65 764.81 137.8 764.79 133.14C764.79 131.76 764.79 130.37 764.79 128.93L766.38 128.78C777.6 127.71 786.72 123.98 794.26 117.39C800.3 112.11 806.65 106.94 812.79 101.94L813.64 101.24C820.9 95.33 825.05 87.94 825.98 79.26C826.24 76.8 826.44 74.31 826.61 71.82C826.53 84.3 826.55 96.78 826.57 108.92V111.03C826.58 114.54 826.59 118.05 826.59 121.56C826.59 123.56 826.69 125.52 826.88 127.4C828.52 143.73 836.92 155.26 851.86 161.66C854.5 162.79 856.91 163.64 859.24 164.26C868.19 166.64 877.71 167.84 887.54 167.84C895.81 167.84 904.32 167.03 913.57 165.37C922.53 163.76 929.63 160.73 935.27 156.12C943.56 149.35 951.86 142.31 959.64 135.69C964.86 131.25 968.08 125.81 969.21 119.52C970.21 113.94 970.76 109.05 970.88 104.55C971.05 97.86 971.02 91.09 970.98 84.55C970.96 81.86 970.95 79.08 970.95 76.34C970.95 73.6 970.97 70.81 970.98 68.12C971.02 61.58 971.06 54.82 970.87 48.13L970.86 48.15ZM794.35 102.88C788.09 103.74 781.73 103.89 775.4 104.12C770.15 104.31 764.88 104.16 758.86 104.16C758.86 108.32 758.86 111.77 758.86 115.22C758.86 121.11 758.92 127 758.84 132.89C758.76 138.26 757.12 139.87 751.7 139.91C743.39 139.97 735.09 139.95 726.78 139.92C720.19 139.9 718.81 138.54 718.81 131.94C718.79 101.73 718.8 71.52 718.8 41.31C718.8 34.21 718.76 27.11 718.81 20.01C718.85 14.2 720.28 12.45 725.91 12.48C746.9 12.56 767.88 12.75 788.86 13.13C792.58 13.2 796.37 14.09 799.97 15.14C811.97 18.63 819.75 28.3 820.59 42.02C821.25 52.85 821.1 63.77 820.55 74.61C820.32 79.13 818.64 83.79 816.7 87.97C812.36 97.33 804.07 101.54 794.34 102.88H794.35ZM948.76 135.82C942.46 138.93 935.73 140.59 928.79 141.41C914.01 143.17 899.25 143.19 884.61 140.2C881.37 139.54 878.19 138.52 875.07 137.4C862.41 132.85 855.85 123.6 855.41 110.33C855.03 99.01 855.33 87.67 855.33 76.34C855.29 76.34 855.24 76.34 855.2 76.34C855.2 66.52 855.12 56.7 855.24 46.88C855.28 43.43 855.6 39.94 856.19 36.53C857.76 27.39 862.99 20.92 871.19 16.75C878.02 13.27 885.39 11.58 892.92 10.8C907.25 9.31003 921.56 9.27003 935.75 12.24C938.26 12.76 940.73 13.49 943.16 14.29C956.9 18.85 964.13 28.4 964.9 42.85C964.99 44.51 965.01 46.17 965.01 47.83C965.01 66.87 965.05 85.9 964.98 104.94C964.97 108.25 964.66 111.58 964.2 114.86C962.82 124.59 957.5 131.49 948.75 135.81L948.76 135.82Z" fill="black"/>
<path d="M274.06 31.66C274.06 30.64 274.52 29.21 272.27 28.76C272.27 30.6 272.27 32.23 272.27 33.86C272.27 50.63 272.07 67.4 272.34 84.17C272.53 95.99 269.28 107.17 266.83 118.51C266.23 121.27 264.65 122.06 261.85 122.16C258.94 122.26 257.56 120.53 256.41 118.21C251.45 108.2 246.45 98.2 241.42 88.22C240.4 86.2 239.24 84.25 238.09 82.3C236.74 80.03 234.65 79.22 232.06 78.9C226.17 78.16 222.28 80.34 219.8 85.8C216.93 92.12 213.65 98.25 210.54 104.47C208.24 109.06 205.97 113.67 203.62 118.23C201.84 121.68 200.44 122.43 197.28 122.12C193.96 121.79 193.3 119.28 192.73 116.73C191.73 112.31 190.92 107.85 189.82 103.46C188.27 97.25 187.83 90.97 187.85 84.6C187.91 67.68 187.87 50.76 187.87 33.84V29.04C187.37 29.01 186.88 28.98 186.38 28.95C186.27 30.2 186.06 31.45 186.06 32.7C186.04 49.77 186.28 66.85 185.97 83.91C185.75 95.89 188.96 107.21 191.51 118.69C192.15 121.57 193.74 123.59 196.95 123.94C200.77 124.35 202.96 123.29 204.81 119.97C205.4 118.92 205.87 117.8 206.41 116.72C211.52 106.44 216.64 96.17 221.72 85.89C223.4 82.49 225.81 80.57 229.85 80.53C234.06 80.48 236.69 82.33 238.37 85.98C238.94 87.21 239.61 88.4 240.21 89.62C245.17 99.63 250.1 109.66 255.11 119.65C256.94 123.31 259.26 124.39 263.2 123.93C266.67 123.52 268 121.12 268.71 118.17C269.63 114.35 270.62 110.54 271.28 106.68C272.31 100.59 273.62 94.49 273.86 88.35C274.3 77.19 274.05 66 274.08 54.82C274.1 47.11 274.1 39.41 274.06 31.71V31.66Z" fill="black"/>
<path d="M111.77 90.25C111.39 84.91 108.18 81.42 103.25 79.53C101.85 78.99 100.36 78.64 98.8904 78.33C87.0604 75.89 75.2104 73.52 63.3904 71.06C56.3304 69.59 53.9004 66.69 53.7704 59.52C53.6804 54.38 53.6504 49.24 53.8004 44.11C53.9904 37.93 57.6004 33.04 63.5104 31.32C66.2104 30.53 69.1604 30.32 72.0004 30.3C82.8804 30.19 93.7604 30.27 104.64 30.24C106.01 30.24 107.37 30.02 108.74 29.91C108.73 29.54 108.71 29.18 108.7 28.81C107.31 28.72 105.92 28.56 104.52 28.55C95.7604 28.53 86.9904 28.53 78.2304 28.55C74.7604 28.55 71.2704 28.45 67.8104 28.67C59.3204 29.2 52.8004 34.65 52.2204 42.37C51.7204 48.98 51.9304 55.66 52.1904 62.3C52.3904 67.39 55.3704 70.62 60.2204 72.11C61.3704 72.46 62.5504 72.77 63.7304 73.01C69.9404 74.28 76.1604 75.52 82.3804 76.78C88.1504 77.96 93.9404 79.04 99.6804 80.37C106.68 81.98 109.6 85.06 110.18 92.11C110.61 97.36 110.62 102.69 110.26 107.94C109.78 114.89 105.68 119.32 99.1004 121.21C96.5404 121.95 93.7404 122.11 91.0504 122.13C78.5104 122.22 65.9704 122.17 53.4304 122.18C52.0304 122.18 50.6204 122.27 49.2204 122.32C49.2204 122.88 49.2004 123.44 49.1904 124.01H53.5504C65.6404 124.01 77.7304 124.02 89.8104 124C91.9204 124 94.0504 123.98 96.1504 123.74C105.51 122.66 111.64 116.44 112.12 107.03C112.4 101.47 112.17 95.85 111.77 90.29V90.25Z" fill="black"/>
<path d="M375.92 121.99C374.9 111.15 375.36 33.6801 376.55 30.0501H402C402 29.7501 402 29.4501 402 29.1501C397.77 28.1401 350.2 28.3001 346.27 29.5801C351.31 30.8401 355.75 30.0401 360.12 30.2301C364.57 30.4301 369.06 29.9601 373.4 30.4901C374.37 38.9501 373.99 118.69 372.92 122.14H363.99C361.12 122.14 358.24 122.01 355.38 122.18C352.56 122.35 349.58 121.41 346.1 123.26C347.41 123.64 347.92 123.93 348.43 123.92C366.23 123.84 384.03 123.73 401.83 123.61C401.91 123.61 402.04 123.43 402.07 123.31C402.1 123.17 402.05 123.01 401.97 122.27C393.31 122.18 384.56 122.08 375.91 121.99H375.92Z" fill="black"/>
<path d="M477.25 34.06C477.25 57.92 477.25 81.79 477.25 105.65C477.25 110.79 477.22 115.92 477.29 121.06C477.3 121.92 477.71 122.77 477.94 123.63C478.3 123.59 478.65 123.55 479.01 123.51V82.6H492.62C497.15 82.6 501.68 82.71 506.21 82.57C510.42 82.43 514.71 83.22 518.84 82.07C518.84 81.75 518.83 81.43 518.82 81.1H479.34V30.25H484.52C499.32 30.25 514.12 30.27 528.92 30.21C530.36 30.21 532.15 30.92 533.45 28.85H477.25V34.06Z" fill="black"/>
<path d="M598.06 28.54C596.87 28.54 595.68 28.72 594.5 28.84C594.4 28.84 594.27 29.01 594.24 29.13C594.2 29.27 594.26 29.43 594.34 30.25H605.79C609.87 30.25 613.95 30.2 618.03 30.26C621.89 30.32 625.79 29.98 629.9 30.53C629.9 35.38 629.9 39.75 629.9 44.12V97.17C629.9 101.7 629.78 106.24 629.93 110.77C630.07 114.98 629.24 119.28 630.45 123.41C630.79 123.41 631.13 123.43 631.47 123.43C631.54 121.74 631.66 120.05 631.67 118.36C631.68 90.85 631.67 63.35 631.69 35.84C631.69 34.09 631.79 32.33 631.86 30.25C634.05 30.25 635.7 30.25 637.34 30.25C646.26 30.25 655.17 30.28 664.09 30.21C665.23 30.21 666.83 30.87 667.62 28.53C644.24 28.53 621.16 28.53 598.07 28.54H598.06Z" fill="black"/>
<path d="M1094.69 44.7501C1093.74 38.6001 1090.29 34.2901 1084.66 31.7001C1080.21 29.6501 1075.52 28.6301 1070.62 28.6201C1056.43 28.5801 1042.24 28.5601 1028.04 28.5601C1027.02 28.5601 1026 28.7501 1024.74 28.8801V123.47C1025.43 123.68 1025.85 123.93 1026.26 123.92C1042.11 123.87 1057.97 124.02 1073.81 123.58C1077.89 123.47 1082.09 121.94 1085.92 120.33C1090.98 118.21 1093.89 113.98 1094.69 108.5C1095.12 105.52 1095.51 102.5 1095.52 99.5001C1095.6 84.1001 1095.6 68.7001 1095.52 53.2901C1095.5 50.4401 1095.12 47.5701 1094.68 44.7501H1094.69ZM1093.76 98.5701C1093.74 101.87 1093.4 105.2 1092.8 108.45C1091.91 113.35 1089.17 117.23 1084.49 119.02C1080.74 120.46 1076.7 121.81 1072.75 121.91C1057.97 122.27 1043.18 122.1 1028.39 122.1C1027.82 122.1 1027.25 121.87 1026.45 121.69V30.6101C1027.68 30.4701 1028.7 30.2601 1029.71 30.2601C1043.44 30.2701 1057.17 30.3101 1070.91 30.3601C1075.51 30.3801 1079.89 31.3601 1084.03 33.3901C1088.82 35.7401 1091.86 39.5401 1092.8 44.7701C1093.38 48.0201 1093.74 51.3501 1093.76 54.6501C1093.86 69.2901 1093.86 83.9301 1093.76 98.5701Z" fill="black"/>
<path d="M926.29 27.83C915.22 25.69 904.06 25.67 893 27.9C880.64 30.4 874.36 38.28 874.29 50.9C874.25 59.35 874.29 67.8 874.29 76.26C874.29 80.49 874.29 84.71 874.28 88.94C874.28 93.17 874.28 97.39 874.3 101.62C874.36 114.35 880.52 122.1 892.89 124.7C904.1 127.05 915.39 127.03 926.6 124.73C939.15 122.15 945.65 114.36 945.77 101.52C945.93 84.77 945.92 68.01 945.77 51.26C945.66 38.27 939.03 30.3 926.28 27.83H926.29ZM943.94 102.24C943.87 112.77 938.23 120.06 927.99 122.54C916.09 125.43 904.03 125.45 892.11 122.65C881.9 120.25 876.43 113.45 876.14 102.92C875.9 94.02 876.09 85.12 876.09 76.21C876.06 76.21 876.03 76.21 876 76.21C876 68.82 876 61.42 876 54.03C876 52.22 876.04 50.41 876.14 48.6C876.66 39.8 881.63 32.93 890.17 30.63C895.65 29.16 901.43 28.54 907.11 28.19C914.34 27.75 921.6 28.2 928.63 30.27C938.41 33.15 943.86 40.05 943.93 50.17C944.05 67.52 944.05 84.88 943.93 102.23L943.94 102.24Z" fill="black"/>
<path d="M790.719 30.65C786.579 29.41 782.15 28.73 777.83 28.63C766.2 28.36 754.559 28.53 742.919 28.55C741.599 28.55 740.28 28.71 738.77 28.81V123.46L740.15 123.52C740.2 112.2 740.249 100.87 740.299 89.24H745.859C755.379 89.24 764.909 89.44 774.419 89.16C779.669 89 785.02 88.56 790.09 87.29C796.93 85.58 801.39 80.83 802.46 73.7C803.93 63.94 803.94 54.1 802.45 44.34C801.4 37.49 797.34 32.64 790.71 30.66L790.719 30.65ZM800.71 73.4C799.8 79.44 796.099 83.62 790.289 85.37C786.579 86.49 782.61 87.2 778.74 87.28C766.82 87.52 754.889 87.38 742.969 87.37C742.249 87.37 741.52 87.2 740.43 87.07V30.7C741.41 30.54 742.259 30.28 743.109 30.28C755.489 30.28 767.87 30.21 780.24 30.44C783.5 30.5 786.839 31.23 789.969 32.21C795.939 34.09 799.699 38.37 800.669 44.53C802.179 54.12 802.16 63.79 800.71 73.39V73.4Z" fill="black"/>
<path d="M1068.44 46.68C1060.95 46.39 1053.44 46.6 1045.61 46.6V106.26C1053.41 106.26 1060.92 106.47 1068.41 106.17C1071.96 106.03 1073.71 103.92 1074.4 100.37C1074.65 99.05 1074.66 97.67 1074.67 96.31C1074.69 82.87 1074.68 69.43 1074.67 55.99C1074.67 54.93 1074.67 53.87 1074.53 52.83C1073.98 49.01 1072.21 46.83 1068.44 46.69V46.68Z" fill="black"/>
<path d="M917.54 45.04C912.78 44.57 907.91 44.55 903.14 44.99C897.51 45.5 895.33 48.34 895.3 54.05C895.26 61.59 895.29 69.13 895.3 76.67C895.3 84.21 895.24 91.75 895.32 99.29C895.37 104.34 897.36 107.1 902.34 107.65C907.38 108.2 912.57 108.23 917.61 107.72C922.85 107.19 925.05 104.44 925.08 99.22C925.19 83.99 925.18 68.76 925.08 53.53C925.05 48.42 922.65 45.54 917.54 45.04Z" fill="black"/>
<path d="M774.83 45.71C770.46 45.57 766.09 45.64 761.71 45.68C760.73 45.69 759.75 46.01 758.74 46.19V72.24C764.56 72.24 769.83 72.37 775.08 72.2C779.89 72.05 782.07 70.16 782.48 65.39C782.84 61.2 782.84 56.94 782.49 52.75C782.09 47.78 779.84 45.87 774.82 45.71H774.83Z" fill="black"/>
</g>
<defs>
<clipPath id="clip0_13183_14314">
<rect width="1124.57" height="171.78" fill="white"/>
</clipPath>
</defs>
</svg>
