<svg width="1141" height="168" viewBox="0 0 1141 168" fill="none" xmlns="http://www.w3.org/2000/svg">
<g clip-path="url(#clip0_13183_14209)">
<path d="M262.87 6.93998C262.8 6.93998 262.73 6.93998 262.66 6.93998C262.46 6.93998 262.26 6.95998 262.07 6.95998C262.34 6.94998 262.6 6.92998 262.87 6.93998Z" fill="black"/>
<path d="M250.98 160.41C251.14 160.41 251.28 160.4 251.44 160.39C251.24 160.39 251.03 160.41 250.82 160.41C250.87 160.41 250.93 160.41 250.98 160.41Z" fill="black"/>
<path d="M185.88 160.42C186.07 160.42 186.26 160.4 186.45 160.4C186.16 160.41 185.87 160.43 185.58 160.42C185.68 160.42 185.78 160.42 185.88 160.42Z" fill="black"/>
<path d="M214.45 141.36C214.14 141.57 213.85 141.76 213.57 141.94C213.85 141.76 214.15 141.57 214.45 141.36Z" fill="black"/>
<path d="M284.47 132.5C284.05 133.69 283.54 134.79 282.93 135.81C283.54 134.79 284.05 133.68 284.47 132.5C284.61 132.11 284.74 131.72 284.87 131.33C284.73 131.72 284.6 132.11 284.47 132.5Z" fill="black"/>
<path d="M289.25 119.1C289.82 117.63 290.42 116.17 291.06 114.72C293.01 110.3 294.38 105.79 295.3 101.2C294.38 105.79 293.01 110.29 291.06 114.72C290.42 116.16 289.83 117.62 289.25 119.1Z" fill="black"/>
<path d="M301.06 42.74V42.24C301.06 34.41 301.06 26.3 301.06 18.34C301.06 16.24 300.94 14.38 300.68 12.66C299.86 7.05998 296.98 4.10998 291.36 3.08998C290.2 2.87998 288.94 2.77998 287.4 2.77998H284.47C282.57 2.77998 280.68 2.77998 278.78 2.77998C276.89 2.77998 275 2.77998 273.11 2.77998C269.02 2.77998 265.88 2.75998 262.91 2.72998H262.65C258.17 2.72998 254.3 4.18998 250.85 7.19998L248.87 8.92998C243.86 13.3 238.67 17.83 233.33 21.82C227.66 26.05 225.13 31.52 225.59 38.54C225.77 41.31 225.73 44.1 225.68 47.09V47.57C222.62 47.95 219.18 48.41 216.13 51.13C215.31 51.86 214.4 52.63 213.32 53.53V44.41C213.32 35.19 213.33 25.66 213.31 16.28C213.31 13.05 212.93 8.96998 210.16 6.11998C207.35 3.22998 203.3 2.81998 200.08 2.78998C197.65 2.76998 195.02 2.74998 191.79 2.74998C189.89 2.74998 188 2.74998 186.1 2.74998H180.43C178.03 2.74998 176.03 2.74998 174.14 2.73998H174C169.6 2.73998 165.84 4.15998 162.5 7.06998L162.26 7.27998C156.32 12.46 150.18 17.82 143.91 22.71C139.26 26.34 137.12 30.94 137.16 37.2C137.23 48.46 137.22 59.78 137.22 70.72V70.86C137.22 82.13 137.22 93.78 137.29 105.25V105.93C137.33 111.4 137.36 117.05 138.98 122.47C141.74 131.73 145.16 140.88 148.46 149.74C149.11 151.49 149.77 153.25 150.42 155C152.72 161.2 157.69 164.61 164.43 164.61H164.85C171.3 164.47 178.15 164.47 185.52 164.61H185.9C190.49 164.61 194.46 163.11 198.05 160.03C202.49 156.21 207.11 152.41 211.58 148.73L212.11 148.29C212.55 149.79 212.97 151.25 213.4 152.7C215.94 161.32 220.03 164.42 229.03 164.54C230.99 164.57 233.12 164.58 235.73 164.58C237.23 164.58 238.73 164.58 240.23 164.58C241.72 164.58 243.21 164.58 244.7 164.58C247.06 164.58 249 164.58 250.8 164.61H251.01C254.66 164.61 257.84 163.42 260.72 160.98C268.36 154.51 275.93 148.29 281.68 143.59C284.87 140.98 287.09 137.81 288.47 133.89C288.83 132.88 289.18 131.86 289.53 130.85L289.67 130.46C291.29 125.78 292.96 120.94 294.95 116.42C299.23 106.71 301.19 96.13 301.14 83.13C301.09 69.67 301.09 55.98 301.1 42.74H301.06ZM294.45 116.21C292.45 120.74 290.78 125.6 289.16 130.29C288.76 131.44 288.37 132.58 287.97 133.73C286.63 137.56 284.46 140.66 281.34 143.21C275.58 147.91 268 154.14 260.37 160.6C257.58 162.96 254.51 164.11 250.98 164.11C250.91 164.11 250.84 164.11 250.78 164.11C248.98 164.09 247.04 164.08 244.68 164.08C243.19 164.08 241.7 164.08 240.21 164.08C238.71 164.08 237.22 164.08 235.72 164.08C233.12 164.08 230.99 164.07 229.03 164.04C220.3 163.92 216.34 160.91 213.88 152.56C213.38 150.87 212.89 149.17 212.38 147.42L211.26 148.34C206.79 152.02 202.17 155.83 197.72 159.65C194.23 162.65 190.36 164.11 185.9 164.11C185.78 164.11 185.65 164.11 185.53 164.11C181.86 164.04 178.26 164.01 174.82 164.01C171.38 164.01 168.06 164.04 164.84 164.11C164.7 164.11 164.57 164.11 164.43 164.11C157.92 164.11 153.11 160.81 150.89 154.82C150.24 153.07 149.59 151.31 148.93 149.56C145.63 140.71 142.21 131.57 139.46 122.32C137.87 116.97 137.83 111.35 137.8 105.92V105.24C137.72 93.73 137.72 82.03 137.73 70.71C137.73 59.72 137.73 48.36 137.67 37.19C137.63 31.1 139.72 26.62 144.23 23.09C150.5 18.19 156.65 12.83 162.6 7.63998L162.84 7.42998C166.08 4.59998 169.74 3.22998 174.01 3.22998H174.15C176.04 3.23998 178.03 3.24998 180.44 3.24998C182.33 3.24998 184.22 3.24998 186.11 3.24998C188.01 3.24998 189.9 3.24998 191.8 3.24998C195.02 3.24998 197.65 3.25998 200.08 3.28998C203.2 3.31998 207.13 3.70998 209.81 6.46998C212.46 9.18998 212.81 13.15 212.82 16.29C212.85 25.67 212.84 35.2 212.84 44.42C212.84 47.81 212.84 51.21 212.84 54.6C214.08 53.59 215.31 52.56 216.48 51.51C219.48 48.84 222.92 48.42 225.95 48.05C226.03 48.05 226.11 48.03 226.19 48.02C226.19 47.71 226.19 47.41 226.2 47.11C226.25 44.13 226.29 41.31 226.11 38.52C225.66 31.68 228.13 26.35 233.65 22.23C239.02 18.22 244.22 13.68 249.25 9.29998C249.9 8.72998 250.55 8.15998 251.21 7.59998C254.57 4.66998 258.33 3.24998 262.69 3.24998C262.78 3.24998 262.86 3.24998 262.95 3.24998C265.92 3.28998 269.06 3.29998 273.15 3.29998C275.04 3.29998 276.93 3.29998 278.82 3.29998C280.72 3.29998 282.61 3.29998 284.51 3.29998C285.49 3.29998 286.46 3.29998 287.44 3.29998C288.95 3.29998 290.18 3.39998 291.31 3.59998C296.69 4.56998 299.45 7.38998 300.23 12.75C300.48 14.44 300.6 16.28 300.6 18.36C300.6 26.33 300.6 34.43 300.6 42.26C300.6 55.66 300.59 69.53 300.64 83.15C300.69 96.08 298.74 106.59 294.49 116.23L294.45 116.21Z" fill="black"/>
<path d="M296.86 18.33C296.86 17.48 296.84 16.63 296.79 15.79C296.84 16.64 296.86 17.49 296.86 18.33C296.88 39.93 296.82 61.53 296.9 83.14C296.82 61.54 296.88 39.94 296.86 18.33Z" fill="black"/>
<path d="M296.79 15.79C296.74 14.94 296.66 14.1 296.53 13.26C296.65 14.1 296.74 14.94 296.79 15.79Z" fill="black"/>
<path d="M211.28 143.51C211.51 143.32 211.74 143.15 211.98 142.98C211.74 143.15 211.5 143.33 211.28 143.51Z" fill="black"/>
<path d="M164.42 160.42C164.53 160.42 164.64 160.42 164.75 160.42C164.36 160.42 163.99 160.4 163.61 160.38C163.88 160.39 164.13 160.43 164.41 160.43L164.42 160.42Z" fill="black"/>
<path d="M174 6.95004C173.79 6.95004 173.6 6.97004 173.4 6.97004C173.64 6.97004 173.87 6.94004 174.12 6.95004C174.08 6.95004 174.05 6.95004 174.01 6.95004H174Z" fill="black"/>
<path d="M22.3996 160.4C22.9696 160.4 23.5396 160.4 24.1096 160.4C20.5196 160.4 16.9396 160.4 13.3496 160.37C16.3696 160.4 19.3896 160.4 22.3996 160.4Z" fill="black"/>
<path d="M119.89 7.26001C120.54 7.38001 121.13 7.54001 121.66 7.74001C121.13 7.53001 120.54 7.37001 119.89 7.26001Z" fill="black"/>
<path d="M119.76 46.33C120.34 45.86 120.93 45.39 121.51 44.93C121.74 44.75 121.96 44.57 122.16 44.38C121.95 44.57 121.73 44.75 121.51 44.93C120.92 45.39 120.34 45.86 119.76 46.33Z" fill="black"/>
<path d="M88.1897 6.91003C86.0997 6.91003 84.0197 6.91003 81.9297 6.92003C84.5397 6.92003 87.1397 6.91003 89.7497 6.92003C89.2297 6.92003 88.7097 6.92003 88.1997 6.92003L88.1897 6.91003Z" fill="black"/>
<path d="M122.34 59.0099C120.02 57.6299 117.61 56.57 115.26 55.5499C118.15 53.0999 121.12 50.59 124.12 48.2099C128 45.13 129.96 41.06 129.95 36.11C129.95 33.81 129.95 31.4599 129.97 29.15C129.99 24.8899 130.01 20.4799 129.93 16.13C129.87 12.91 129.44 8.83995 126.62 6.01995C123.77 3.16995 119.72 2.78995 116.51 2.77995H115.11C106.29 2.73995 97.17 2.69995 88.19 2.69995C79.82 2.69995 72.41 2.72995 65.53 2.79995C51.73 2.92995 40.57 7.11995 31.4 15.62C26.86 19.83 21.92 23.85 17.15 27.74C15.83 28.82 14.51 29.8899 13.19 30.9699C5.05999 37.66 0.719986 46.3999 0.289986 56.9599C-0.0400143 65.16 0.0299857 73.45 0.119986 81.24C0.159986 84.4799 0.799986 87.68 1.30999 90.25C2.97999 98.65 7.80999 105.16 15.67 109.6C16.09 109.84 16.5 110.06 16.92 110.28L16.82 110.36C13.04 113.57 9.45999 116.61 5.81999 119.52C1.95999 122.62 -1.42548e-05 126.69 0.0299857 131.62C0.0399857 134.09 0.0299857 136.6 0.0199857 139.04C-1.42548e-05 143.15 -0.0200143 147.39 0.0699857 151.6C0.139986 154.73 0.579986 158.68 3.41999 161.44C6.21999 164.16 10.18 164.54 13.31 164.57C15.99 164.59 18.88 164.6 22.4 164.6C24.6 164.6 26.8 164.6 29 164.6H30.09C34.87 164.59 39.77 164.6 44.64 164.6H45.93C49.38 164.6 52.83 164.61 56.28 164.61C61.71 164.61 66.16 164.59 70.31 164.56C83.04 164.46 92.57 161.54 100.29 155.36C107.97 149.23 115.51 142.77 122.81 136.54L124.88 134.77C131.08 129.47 134.82 122.45 135.69 114.46C137.01 102.41 136.97 90.59 135.58 79.32C134.5 70.55 129.91 63.52 122.32 59.0099H122.34ZM135.21 114.4C134.35 122.26 130.67 129.17 124.57 134.38L122.5 136.15C115.2 142.39 107.64 148.85 99.99 154.96C92.35 161.06 82.92 163.95 70.31 164.05C66.17 164.08 61.71 164.1 56.29 164.1C52.84 164.1 49.39 164.1 45.94 164.09C42.49 164.09 39.05 164.08 35.6 164.08H35.56C33.37 164.08 31.18 164.08 29 164.08C26.8 164.08 24.6 164.08 22.4 164.08C18.88 164.08 16 164.07 13.31 164.05C10.27 164.02 6.43999 163.66 3.75999 161.07C1.04999 158.44 0.629986 154.62 0.559986 151.58C0.469986 147.38 0.489986 143.14 0.509986 139.03C0.519986 136.59 0.529986 134.08 0.519986 131.61C0.499986 126.84 2.37999 122.9 6.12999 119.91C9.77999 116.99 13.36 113.95 17.15 110.74C17.37 110.55 17.59 110.36 17.82 110.17C17.17 109.85 16.55 109.52 15.92 109.16C8.18999 104.79 3.43999 98.39 1.79999 90.15C1.28999 87.6 0.659986 84.43 0.619986 81.24C0.519986 73.45 0.459986 65.16 0.789986 56.9799C1.20999 46.57 5.48999 37.96 13.5 31.37C14.82 30.29 16.14 29.2099 17.46 28.1399C22.24 24.24 27.19 20.22 31.74 16C40.81 7.58995 51.87 3.43995 65.53 3.30995C72.4 3.23995 79.81 3.20995 88.19 3.20995C97.16 3.20995 106.28 3.24995 115.11 3.27995H116.51C119.63 3.29995 123.55 3.65995 126.27 6.37995C128.97 9.07995 129.38 13.02 129.44 16.15C129.52 20.51 129.5 24.93 129.48 29.2C129.47 31.47 129.46 33.82 129.46 36.1199C129.46 40.91 127.57 44.85 123.82 47.83C120.68 50.32 117.59 52.93 114.33 55.7C114.52 55.78 114.7 55.8599 114.89 55.9399C117.27 56.9799 119.73 58.0499 122.09 59.45C129.54 63.88 134.05 70.78 135.11 79.39C136.5 90.6199 136.53 102.4 135.22 114.41L135.21 114.4Z" fill="black"/>
<path d="M123.56 65.0099C122.53 64.1499 121.41 63.3499 120.19 62.6199C119.94 62.4699 119.67 62.3399 119.41 62.1899C119.67 62.3299 119.94 62.4599 120.19 62.6199C121.41 63.3399 122.53 64.1399 123.56 65.0099Z" fill="black"/>
<path d="M418.79 98.6C414.65 98.33 410.57 98.47 406.57 98.39C406.18 98.39 405.78 98.37 405.38 98.35C405.38 95.06 405.38 91.78 405.38 88.49C405.38 80.76 405.38 72.78 405.32 64.89C405.32 64.24 405.35 63.91 406.34 63.1C409.83 60.23 413.34 57.28 416.78 54.38C419.07 52.46 421.43 50.47 423.76 48.52C425.53 47.05 429.21 43.98 429.25 38.84V37.32C429.33 29.44 429.4 21.29 429.18 13.23C429.09 10.03 427.76 4.46996 419.86 3.11996C418.04 2.80996 416.26 2.74996 414.59 2.72996C413.03 2.70996 411.34 2.70996 409.25 2.70996H342.79C339.33 2.71996 334.58 2.71996 330.46 6.22996C325.15 10.74 319.73 15.31 314.48 19.72L308.89 24.42C305.86 26.97 304.25 30.3 304.24 34.05C304.24 35.9 304.22 37.74 304.21 39.59C304.17 45.69 304.13 52 304.31 58.25C304.5 64.85 308.53 68.85 315.37 69.21C316.23 69.26 317.16 69.28 318.29 69.28C318.92 69.28 319.56 69.28 320.19 69.27H320.31C320.87 69.27 321.44 69.26 322.07 69.26H326.2H328.47C328.47 69.38 328.47 69.5 328.47 69.61C328.47 72.94 328.47 76.32 328.47 79.6V79.74C328.45 86.9 328.43 94.31 328.57 101.62C328.6 103.12 328.25 103.8 326.89 104.91C323.57 107.61 320.29 110.4 317.12 113.1C314.63 115.22 312.05 117.42 309.49 119.53C305.92 122.48 304.12 126.28 304.16 130.83C304.18 133.92 304.18 137.07 304.16 140.12C304.15 143.7 304.14 147.77 304.19 151.69C304.3 160.15 308.38 164.23 317.03 164.52C317.45 164.53 317.85 164.54 318.16 164.54H351.02C364.43 164.54 377.84 164.54 391.25 164.54H391.4C394.46 164.54 398.65 164.54 402.28 161.53L405.53 158.84C411.83 153.62 418.34 148.22 424.73 142.89C427.71 140.41 429.29 137.22 429.3 133.69C429.3 131.86 429.32 130.03 429.33 128.19C429.37 121.92 429.41 115.44 429.24 109.03C429.08 102.88 425.17 98.97 418.8 98.56L418.79 98.6ZM428.82 128.24C428.81 130.07 428.8 131.9 428.79 133.74C428.78 137.12 427.26 140.17 424.4 142.56C418.01 147.89 411.5 153.28 405.2 158.5L401.95 161.19C398.46 164.09 394.37 164.09 391.39 164.09H391.24C377.83 164.09 364.42 164.09 351.01 164.09H337.58H324.15H319.02H318.6H318.15C317.85 164.09 317.46 164.09 317.04 164.08C308.6 163.8 304.79 159.99 304.68 151.74C304.63 147.88 304.64 143.96 304.65 140.18C304.65 137.13 304.67 133.98 304.65 130.89C304.62 126.5 306.35 122.83 309.8 119.98C312.36 117.87 314.94 115.67 317.43 113.54C320.6 110.84 323.88 108.05 327.19 105.36C328.67 104.16 329.09 103.34 329.06 101.68C328.93 94.38 328.94 86.97 328.96 79.81C328.96 76.49 328.98 73.05 328.96 69.68C328.96 69.4 328.96 69.12 328.93 68.83H326.18C324.79 68.83 323.42 68.83 322.05 68.83H321.98C321.37 68.83 320.77 68.83 320.16 68.84C319.53 68.84 318.9 68.85 318.26 68.85C317.14 68.85 316.23 68.83 315.37 68.78C308.82 68.43 304.96 64.61 304.78 58.3C304.61 52.07 304.65 45.76 304.68 39.65C304.69 37.8 304.7 35.96 304.71 34.11C304.72 30.51 306.27 27.31 309.18 24.86C311.01 23.32 312.84 21.77 314.68 20.23C319.96 15.79 325.41 11.2 330.76 6.65996C334.75 3.26996 339.38 3.26996 342.77 3.26996C356.65 3.26996 370.53 3.26996 384.42 3.26996H402.49C403.61 3.26996 404.73 3.26996 405.85 3.26996C406.98 3.26996 408.11 3.26996 409.23 3.26996C411.31 3.26996 413.01 3.26996 414.56 3.28996C416.2 3.30996 417.96 3.36996 419.75 3.66996C427.31 4.94996 428.57 10.25 428.66 13.3C428.88 21.34 428.81 29.49 428.74 37.37V38.89C428.69 43.8 425.12 46.76 423.41 48.19C421.08 50.13 418.71 52.12 416.43 54.05C413.02 56.92 409.5 59.88 406 62.76C404.91 63.66 404.79 64.11 404.8 64.94C404.87 72.81 404.87 80.8 404.86 88.53C404.86 91.97 404.86 95.42 404.86 98.86C405.43 98.89 405.99 98.91 406.54 98.92C407.9 98.94 409.3 98.95 410.65 98.95C413.29 98.95 416.01 98.95 418.74 99.13C424.82 99.52 428.55 103.26 428.71 109.12C428.88 115.52 428.84 122 428.8 128.27L428.82 128.24Z" fill="black"/>
<path d="M318.15 160.38C318.44 160.38 318.73 160.38 319.02 160.38C318.41 160.38 317.79 160.38 317.18 160.37C317.5 160.38 317.83 160.38 318.16 160.38H318.15Z" fill="black"/>
<path d="M308.65 32.24C309.07 30.46 310.09 28.95 311.59 27.68C310.09 28.94 309.07 30.45 308.65 32.24Z" fill="black"/>
<path d="M409.25 6.94995C409.05 6.94995 408.85 6.94995 408.64 6.94995C410.61 6.94995 412.57 6.94995 414.54 6.96995C412.78 6.94995 411.01 6.94995 409.25 6.94995Z" fill="black"/>
<path d="M529.48 6.94995C528.45 6.94995 527.42 6.94995 526.39 6.94995C533.66 6.94995 540.93 6.94995 548.21 6.96995C541.97 6.95995 535.73 6.94995 529.49 6.94995H529.48Z" fill="black"/>
<path d="M572.63 65.14C572.8 65.14 572.96 65.14 573.13 65.14C572.57 65.14 572 65.14 571.44 65.14C571.84 65.14 572.24 65.15 572.64 65.15L572.63 65.14Z" fill="black"/>
<path d="M511.43 118.4C511.52 118.4 511.61 118.39 511.7 118.39C511.29 118.39 510.87 118.39 510.44 118.37C510.77 118.39 511.1 118.4 511.42 118.4H511.43Z" fill="black"/>
<path d="M472.31 6.94995C472.31 6.94995 472.25 6.94995 472.23 6.94995C471.99 6.94995 471.75 6.96995 471.51 6.97995C471.79 6.97995 472.06 6.94995 472.34 6.94995H472.32H472.31Z" fill="black"/>
<path d="M473.63 160.4C473.83 160.4 474.02 160.38 474.22 160.38C473.98 160.38 473.75 160.4 473.5 160.4C473.54 160.4 473.58 160.4 473.62 160.4H473.63Z" fill="black"/>
<path d="M558.42 11.33C558.15 10.55 557.8 9.88998 557.34 9.34998C557.8 9.88998 558.15 10.54 558.42 11.33Z" fill="black"/>
<path d="M663.77 65.34C663.57 65.34 663.36 65.34 663.15 65.34C663.33 65.34 663.52 65.35 663.69 65.35C663.72 65.35 663.75 65.35 663.78 65.35C663.78 65.35 663.78 65.35 663.77 65.35V65.34Z" fill="black"/>
<path d="M630.33 160.4C630.33 160.4 630.41 160.4 630.44 160.4C630.65 160.4 630.85 160.38 631.05 160.37C630.81 160.37 630.57 160.4 630.33 160.4Z" fill="black"/>
<path d="M700.46 24.61C700.48 23.15 700.5 21.64 700.5 20.14V18.96C700.51 17.95 700.52 16.9 700.48 15.84C700.19 7.05999 696.28 3.14999 687.41 2.78999C686.82 2.76999 686.17 2.74999 685.39 2.74999H683.07H602.43C599.19 2.74999 596.57 2.74999 594.19 2.76999C590.52 2.78999 586.65 3.19999 583.22 6.09999L575.3 12.78C571.32 16.14 567.33 19.5 563.36 22.86C563.36 21.17 563.36 19.46 563.36 17.76C563.34 12.69 562.76 8.75999 560.01 6.04999C557.27 3.33999 553.31 2.77999 548.21 2.76999C542.7 2.75999 536.75 2.74999 529.48 2.74999L485.29 2.76999C480.27 2.76999 476.16 2.76999 472.35 2.73999H472.22C466.99 2.73999 462.67 4.33999 458.99 7.62999C453.27 12.74 447.15 17.91 440.79 22.99C436.35 26.54 434.27 30.89 434.42 36.3C434.54 40.63 434.51 45.07 434.49 49.37C434.48 51.26 434.46 53.22 434.46 55.15V79.98C434.46 103.23 434.46 127.28 434.48 150.93C434.48 154.49 434.87 158.51 437.68 161.32C440.47 164.12 444.48 164.53 448.02 164.56C450.32 164.58 452.81 164.59 455.86 164.59H466.58C469.24 164.58 471.43 164.59 473.47 164.59H473.62C478.06 164.59 481.81 163.21 485.11 160.36L486.24 159.39C491.68 154.7 497.29 149.84 503.06 145.51C508.86 141.15 511.38 135.66 510.77 128.72C510.6 126.76 510.66 124.73 510.74 122.59C515.52 122.78 519.72 121.15 523.7 117.67C529.91 112.23 536.46 106.91 542.84 101.73L543.13 101.49C546.87 98.45 548.75 94.51 548.7 89.79C548.67 86.45 548.68 83.04 548.68 79.69C548.68 76.19 548.7 72.58 548.66 68.97C548.63 66.09 548.33 63.07 546.38 60.48C545.91 59.85 545.36 59.27 544.71 58.72C545.55 58.02 546.38 57.33 547.21 56.63C550.34 54.02 553.56 51.32 556.8 48.77C556.8 52.59 556.84 55.62 556.91 58.47C557.07 64.89 561.09 68.91 567.65 69.23C569.1 69.3 570.68 69.33 572.6 69.33C573.64 69.33 574.69 69.33 575.73 69.31C576.75 69.31 577.77 69.29 578.78 69.29H584.67H589.74V92.62C589.74 98.11 589.74 103.59 589.74 109.08V109.47C589.74 123.07 589.72 137.13 589.78 150.96C589.79 154.29 590.18 158.48 593.07 161.33C595.9 164.12 599.89 164.52 603.43 164.55C605.76 164.57 608.28 164.58 611.35 164.58C613.23 164.58 615.12 164.58 617 164.58H622.64C625.6 164.58 628.02 164.58 630.28 164.6H630.42C634.73 164.6 638.48 163.18 641.88 160.25C648.03 154.94 654.07 149.79 660.23 145.06C665.21 141.23 667.5 136.38 667.42 129.78C667.26 115.35 667.29 100.78 667.31 86.68C667.31 81.32 667.33 75.95 667.33 70.59V69.11C671.26 68.14 674.11 65.71 676.41 63.75L678.49 61.97C683.3 57.86 688.28 53.61 693.35 49.77C698.55 45.84 700.9 40.76 700.53 34.26C700.35 31.1 700.4 27.95 700.44 24.62L700.46 24.61ZM693.06 49.37C687.96 53.23 682.96 57.5 678.13 61.63C677.45 62.21 676.78 62.79 676.1 63.37C673.72 65.4 670.86 67.84 666.85 68.71V70.58C666.85 75.94 666.85 81.31 666.83 86.67C666.8 100.8 666.78 115.42 666.94 129.78C667.01 136.21 664.79 140.93 659.94 144.66C653.76 149.4 647.73 154.56 641.57 159.87C638.27 162.72 634.63 164.1 630.44 164.1H630.3C628.05 164.08 625.62 164.08 622.66 164.08C620.78 164.08 618.9 164.08 617.02 164.08C615.14 164.08 613.25 164.08 611.37 164.08C608.3 164.08 605.79 164.08 603.46 164.05C600.03 164.02 596.15 163.64 593.45 160.98C590.69 158.26 590.32 154.2 590.31 150.96C590.25 137 590.26 122.81 590.27 109.09C590.27 103.6 590.27 98.12 590.27 92.63V77.52V70.41V68.79H589.06H584.7C582.76 68.79 580.87 68.79 578.98 68.79H578.82C577.8 68.79 576.78 68.79 575.76 68.81C574.72 68.81 573.68 68.83 572.63 68.83C570.71 68.83 569.14 68.8 567.7 68.73C561.43 68.43 557.59 64.59 557.44 58.46C557.35 54.89 557.33 51.29 557.33 47.72C557.25 47.78 557.18 47.85 557.1 47.92C553.65 50.61 550.22 53.49 546.9 56.26C545.93 57.07 544.94 57.9 543.95 58.72C544.75 59.34 545.43 60.01 546.01 60.77C547.87 63.24 548.16 66.17 548.19 68.96C548.23 72.54 548.22 76.17 548.21 79.67C548.21 82.99 548.19 86.42 548.23 89.78C548.27 94.34 546.46 98.14 542.84 101.09L542.55 101.33C536.2 106.49 529.63 111.83 523.4 117.29C519.7 120.53 515.79 122.1 511.45 122.1C511.07 122.1 510.68 122.09 510.29 122.06C510.2 124.41 510.11 126.63 510.3 128.76C510.9 135.51 508.44 140.86 502.79 145.11C497 149.46 491.37 154.33 485.92 159.03L484.81 159.99C481.61 162.75 477.95 164.1 473.64 164.1H473.49C471.45 164.08 469.26 164.08 466.6 164.08C464.82 164.08 463.03 164.08 461.25 164.08C459.46 164.08 457.67 164.08 455.88 164.08C452.83 164.08 450.34 164.08 448.04 164.05C444.6 164.02 440.71 163.63 438.05 160.96C435.37 158.27 435 154.38 435 150.92C434.97 127.27 434.97 103.22 434.97 79.97C434.97 71.69 434.97 63.42 434.97 55.14C434.97 53.21 434.98 51.26 435 49.36C435.03 45.06 435.06 40.61 434.93 36.27C434.78 31.03 436.8 26.81 441.11 23.37C447.48 18.28 453.61 13.1 459.34 7.98999C462.92 4.78999 467.15 3.22999 472.24 3.22999H472.37C476.17 3.24999 480.28 3.25999 485.31 3.25999C488.32 3.25999 491.33 3.25999 494.34 3.25999C497.34 3.25999 500.35 3.25999 503.35 3.25999C507.7 3.25999 512.05 3.25999 516.4 3.25999C520.77 3.25999 525.13 3.25999 529.5 3.25999C536.77 3.25999 542.72 3.25999 548.23 3.27999C553.21 3.28999 557.06 3.82999 559.68 6.41999C562.31 9.01999 562.86 12.84 562.88 17.78C562.88 19.84 562.88 21.91 562.88 23.95C567.13 20.35 571.39 16.76 575.65 13.17C578.29 10.94 580.93 8.71999 583.57 6.48999C586.87 3.69999 590.64 3.29999 594.22 3.27999C596.61 3.26999 599.22 3.25999 602.46 3.25999C604.09 3.25999 605.72 3.25999 607.35 3.25999C608.98 3.25999 610.6 3.25999 612.23 3.25999H639.13H683.1C683.48 3.25999 683.85 3.25999 684.23 3.25999C684.63 3.25999 685.02 3.25999 685.42 3.25999C686.2 3.25999 686.83 3.26999 687.42 3.29999C696.08 3.65999 699.72 7.29999 700.01 15.87C700.05 16.93 700.04 17.97 700.03 18.97C700.03 19.37 700.03 19.76 700.03 20.16C700.03 21.65 700.01 23.16 699.99 24.62C699.95 27.96 699.9 31.12 700.08 34.3C700.43 40.63 698.15 45.56 693.09 49.39L693.06 49.37Z" fill="black"/>
<path d="M602.44 6.95996C599.7 6.95996 596.96 6.95996 594.22 6.97996C597.19 6.95996 600.15 6.95996 603.12 6.95996C602.89 6.95996 602.67 6.95996 602.44 6.95996Z" fill="black"/>
<path d="M685.39 6.94995C685.32 6.94995 685.26 6.94995 685.19 6.94995C685.87 6.94995 686.55 6.94995 687.23 6.97995C686.62 6.94995 686 6.94995 685.39 6.94995Z" fill="black"/>
<path d="M1032.85 160.38C1043.67 160.38 1054.49 160.38 1065.31 160.36C1046.34 160.38 1027.37 160.38 1008.4 160.36C1016.55 160.36 1024.69 160.36 1032.84 160.36L1032.85 160.38Z" fill="black"/>
<path d="M1064.56 7.21997C1076.2 7.30997 1087.84 7.40997 1099.48 7.56997C1087.84 7.40997 1076.2 7.29997 1064.56 7.21997Z" fill="black"/>
<path d="M1029.56 7C1029.36 7 1029.17 7.02 1028.97 7.03C1029.19 7.02 1029.41 7 1029.64 7C1029.61 7 1029.58 7 1029.56 7Z" fill="black"/>
<path d="M1140.37 46.09C1140.32 41.05 1139.67 35.97 1138.45 30.98C1137.16 25.68 1134.83 21.04 1131.53 17.17C1128.28 13.37 1124.08 10.31 1119.05 8.08004C1112.08 5.00004 1105.7 3.45004 1099.54 3.37004C1080.16 3.10004 1060.47 2.98004 1041.36 2.86004L1029.56 2.79004C1025.52 2.79004 1021.79 4.25004 1018.49 7.13004C1012.33 12.5 1006.28 17.74 999.89 22.76C995.24 26.4 993.1 31.02 993.16 37.28C993.28 50.95 993.26 64.76 993.24 78.11C993.24 83.15 993.23 88.19 993.23 93.23V112.73C993.23 124.89 993.23 137.06 993.23 149.22C993.23 154.62 993.77 158.52 996.46 161.26C999.17 164.02 1003.04 164.58 1008.41 164.58C1016.56 164.58 1024.71 164.58 1032.85 164.58C1043.57 164.58 1054.49 164.58 1065.32 164.56H1065.69C1068.39 164.56 1071.18 164.56 1074 164.31C1083.7 163.46 1094.89 161.54 1104.29 153.76C1111.17 148.06 1119.18 141.43 1127.08 134.84C1132.97 129.92 1136.78 123.84 1138.4 116.75C1139.67 111.15 1140.32 106.23 1140.37 101.71C1140.58 83.57 1140.58 64.86 1140.37 46.09ZM1139.87 101.7C1139.82 106.19 1139.18 111.07 1137.91 116.64C1136.32 123.62 1132.57 129.61 1126.76 134.46C1118.86 141.05 1110.85 147.68 1103.97 153.38C1094.68 161.07 1083.59 162.97 1073.96 163.82C1071.15 164.07 1068.36 164.07 1065.66 164.07H1065.32C1054.49 164.08 1043.57 164.09 1032.85 164.09C1024.7 164.09 1016.55 164.09 1008.41 164.09C1003.18 164.09 999.41 163.55 996.82 160.92C994.25 158.31 993.73 154.51 993.73 149.23C993.73 135.85 993.73 122.47 993.73 109.09V93.24C993.73 88.2 993.73 83.16 993.75 78.12C993.77 64.73 993.79 50.89 993.67 37.28C993.62 31.19 995.69 26.7 1000.21 23.16C1006.6 18.15 1012.66 12.9 1018.83 7.52004C1022.03 4.72004 1025.65 3.30004 1029.57 3.30004H1029.68C1033.59 3.33004 1037.51 3.35004 1041.42 3.37004C1060.47 3.49004 1080.17 3.61004 1099.55 3.88004C1105.64 3.96004 1111.96 5.49004 1118.87 8.55004C1123.83 10.75 1127.97 13.76 1131.17 17.51C1134.42 21.31 1136.71 25.89 1137.99 31.11C1139.2 36.06 1139.84 41.11 1139.89 46.11C1140.09 64.84 1140.09 83.55 1139.89 101.72L1139.87 101.7Z" fill="black"/>
<path d="M740.25 160.4C740.43 160.4 740.61 160.39 740.78 160.38C740.56 160.38 740.34 160.4 740.12 160.4C740.16 160.4 740.21 160.4 740.25 160.4Z" fill="black"/>
<path d="M831.12 88.64C830.61 89.43 830.06 90.21 829.46 90.95C830.05 90.2 830.61 89.43 831.12 88.64Z" fill="black"/>
<path d="M902.42 163.24C902.83 163.24 903.25 163.23 903.66 163.22C903.08 163.22 902.5 163.23 901.92 163.22C902.09 163.22 902.26 163.22 902.42 163.22V163.24Z" fill="black"/>
<path d="M952.37 6.73997C952.34 6.73997 952.31 6.72997 952.28 6.71997C952.31 6.71997 952.34 6.72997 952.37 6.73997Z" fill="black"/>
<path d="M912.13 64.25C912.3 64.39 912.46 64.52 912.61 64.64C912.45 64.52 912.29 64.39 912.13 64.25Z" fill="black"/>
<path d="M915.62 103.22C915.3 103.07 915.02 102.91 914.75 102.75C915.01 102.91 915.3 103.07 915.62 103.22Z" fill="black"/>
<path d="M987.54 45.17C987.4 40.1 986.81 34.79 985.79 29.38C984.38 21.91 980.11 15.63 973.1 10.72C967.54 6.82 961.03 4.17 953.2 2.61C944.47 0.88 935.34 0 926.04 0C918.18 0 909.96 0.63 901.59 1.87C891.37 3.38 883.33 6.59 877.01 11.69C868.59 18.47 860.19 25.53 852 32.41L851.64 32.71C846.69 36.86 843.52 41.91 842.22 47.72C841.62 50.42 841.04 53.24 840.67 56.14C840.69 48.7 840.31 41.19 839.53 33.65C839.43 32.65 839.21 31.74 839.02 30.94L838.53 31.04L839.02 30.92L838.9 30.42C836.34 19.4 829.56 11.5 819.28 7.58C814.59 5.79 808.41 3.71 802.27 3.55C780.36 2.95 758.1 2.92 736.57 2.89H736.47C733.39 2.89 729.96 4.11 727.51 6.07C722.25 10.28 717.09 14.67 712.09 18.92C709.91 20.77 707.66 22.68 705.44 24.55C702.55 26.98 700.98 30.16 700.78 33.99C700.68 35.84 700.67 37.62 700.67 39.29C700.67 74.93 700.67 110.56 700.67 146.2C700.67 146.7 700.67 147.19 700.67 147.72C700.67 149.08 700.65 150.49 700.71 151.93C700.84 154.93 701.34 158.72 704.1 161.42C706.89 164.15 710.71 164.54 713.73 164.56C716.15 164.58 718.78 164.59 722.01 164.59H732.77C735.61 164.58 737.94 164.59 740.1 164.6H740.26C744.35 164.6 747.83 163.33 750.89 160.73C756.46 156 763.82 149.79 771.46 143.68C775.2 140.68 777.09 136.75 777.06 131.99C777.06 130.58 777.06 129.16 777.06 127.69L778.68 127.54C790.14 126.44 799.46 122.64 807.15 115.91C813.32 110.51 819.8 105.23 826.07 100.13L826.94 99.42C834.35 93.38 838.59 85.83 839.54 76.98C839.81 74.46 840.01 71.93 840.19 69.38C840.11 82.12 840.13 94.87 840.15 107.27V109.42C840.16 113 840.17 116.59 840.17 120.17C840.17 122.21 840.27 124.21 840.46 126.13C842.13 142.81 850.71 154.58 865.97 161.12C868.67 162.27 871.13 163.14 873.51 163.78C882.65 166.21 892.37 167.44 902.41 167.44C910.85 167.44 919.55 166.61 928.99 164.92C938.14 163.27 945.39 160.18 951.16 155.47C959.63 148.55 968.1 141.37 976.05 134.6C981.38 130.06 984.67 124.51 985.83 118.09C986.85 112.4 987.41 107.39 987.53 102.8C987.71 95.97 987.67 89.05 987.64 82.37C987.62 79.62 987.61 76.78 987.61 73.99C987.61 71.2 987.63 68.34 987.64 65.59C987.68 58.91 987.72 52.01 987.53 45.18L987.54 45.17ZM839.05 76.92C838.12 85.64 833.94 93.08 826.63 99.03L825.76 99.74C819.48 104.85 812.99 110.13 806.82 115.53C799.21 122.19 789.98 125.96 778.63 127.04C777.95 127.11 777.27 127.17 776.56 127.23C776.56 128.87 776.56 130.43 776.56 131.99C776.58 136.59 774.76 140.39 771.14 143.29C763.5 149.41 756.13 155.63 750.56 160.35C747.59 162.87 744.21 164.1 740.25 164.1H740.09C737.93 164.08 735.6 164.07 732.75 164.07C730.96 164.07 729.17 164.07 727.37 164.07C725.57 164.07 723.78 164.07 721.98 164.07C718.75 164.07 716.12 164.06 713.7 164.04C710.78 164.01 707.08 163.65 704.41 161.04C701.77 158.46 701.29 154.79 701.17 151.88C701.11 150.44 701.12 149.03 701.13 147.66C701.13 147.16 701.13 146.67 701.13 146.17C701.13 110.53 701.13 74.9 701.13 39.26C701.13 37.68 701.13 35.84 701.23 33.98C701.42 30.29 702.93 27.24 705.71 24.9C707.93 23.03 710.18 21.12 712.36 19.27C717.36 15.01 722.54 10.61 727.77 6.42C730.13 4.53 733.45 3.35 736.42 3.35H736.51C758.04 3.38 780.3 3.41 802.21 4.01C808.28 4.18 814.4 6.24 819.06 8.01C829.18 11.87 835.86 19.65 838.37 30.49C838.41 30.66 838.45 30.83 838.49 31C838.68 31.79 838.9 32.69 839 33.66C840.52 48.29 840.52 62.84 839.02 76.89L839.05 76.92ZM987.14 82.37C987.18 89.05 987.21 95.96 987.03 102.78C986.91 107.35 986.36 112.33 985.34 118C984.21 124.3 980.97 129.76 975.73 134.22C967.79 140.98 959.32 148.16 950.85 155.08C945.15 159.74 937.97 162.79 928.91 164.42C919.49 166.11 910.83 166.94 902.42 166.94C892.42 166.94 882.74 165.71 873.64 163.3C871.29 162.67 868.84 161.81 866.17 160.67C851.09 154.21 842.61 142.58 840.96 126.09C840.77 124.19 840.67 122.2 840.67 120.18C840.67 115.88 840.66 111.58 840.65 107.27C840.62 92.37 840.59 76.97 840.75 61.81C840.8 56.97 841.72 52.23 842.71 47.82C843.99 42.13 847.1 37.17 851.96 33.09L852.32 32.79C860.46 25.95 868.89 18.87 877.32 12.08C883.57 7.05 891.53 3.87 901.66 2.37C910 1.13 918.2 0.51 926.04 0.51C935.31 0.51 944.41 1.39 953.1 3.11C960.86 4.65 967.31 7.28 972.81 11.14C979.71 15.97 983.91 22.15 985.3 29.49C986.32 34.87 986.9 40.16 987.04 45.2C987.22 52.01 987.19 58.92 987.15 65.6C987.13 68.36 987.12 71.21 987.12 74C987.12 76.79 987.14 79.63 987.15 82.38L987.14 82.37Z" fill="black"/>
<path d="M926.03 4.19995C925.7 4.19995 925.36 4.19995 925.03 4.20995C925.57 4.20995 926.1 4.20995 926.64 4.20995C926.44 4.20995 926.23 4.20995 926.03 4.20995V4.19995Z" fill="black"/>
<path d="M805.1 7.97998C806.09 8.10998 807.08 8.27998 808.07 8.48998C807.08 8.27998 806.09 8.09998 805.1 7.97998Z" fill="black"/>
<path d="M704.84 148.97C704.84 149.9 704.84 150.82 704.89 151.75C704.91 152.15 704.93 152.53 704.96 152.89C704.93 152.52 704.9 152.14 704.89 151.75C704.85 150.83 704.84 149.9 704.84 148.97Z" fill="black"/>
<path d="M805.1 7.98001C804.11 7.85001 803.12 7.77001 802.13 7.74001C796.66 7.59001 791.19 7.48001 785.71 7.39001C791.18 7.48001 796.65 7.59001 802.13 7.74001C803.12 7.77001 804.1 7.85001 805.1 7.98001Z" fill="black"/>
<path d="M736.44 7.07996C736.3 7.07996 736.16 7.08996 736.01 7.09996C736.16 7.09996 736.3 7.07996 736.45 7.07996H736.44Z" fill="black"/>
<path d="M288.62 8.74994C287.85 8.67994 287.08 8.68994 286.31 8.68994C278.75 8.68994 271.19 8.63994 263.63 8.69994C256.6 8.75994 255.19 10.1899 255.14 17.0599C255.14 18.1399 255.14 19.2199 255.14 20.2999C255.14 38.3499 255.14 56.4099 255.14 74.4599C255.14 76.0799 255.02 77.6999 254.96 79.3099C253.47 78.0699 252.72 76.7499 252.09 75.3799C249.75 70.3399 247.34 65.3399 245.17 60.2299C243.24 55.7099 239.95 53.5299 235.11 53.5299C233.88 53.5299 232.62 53.6499 231.41 53.4899C223.28 52.4499 218.33 55.8799 215.61 63.6399C213.7 69.0999 210.81 74.2099 208.36 79.4799C208.03 79.3899 207.71 79.2899 207.38 79.1999C207.38 77.6699 207.38 76.1299 207.38 74.5999C207.38 56.0799 207.38 37.5699 207.38 19.0499C207.38 17.5099 207.43 15.9499 207.27 14.4299C206.9 10.8999 205.58 9.48994 202.13 8.93994C200.77 8.71994 199.36 8.70994 197.98 8.69994C190.73 8.67994 183.48 8.66994 176.22 8.69994C167.75 8.71994 166.52 9.90994 166.52 18.2499C166.5 37.3799 166.89 56.5299 166.39 75.6499C166 90.8599 167.88 105.45 174.06 119.43C175.99 123.79 177.28 128.43 179.04 132.88C180.6 136.82 183.41 139.03 187.9 138.95C195.15 138.83 202.4 138.98 209.65 138.9C215.06 138.84 217.02 137.29 218.59 132.02C220.48 125.67 222.28 119.28 224.13 112.91C224.95 110.1 225.8 107.29 226.61 104.48C227.22 102.33 228.36 101.02 230.84 101.04C233.37 101.06 234.35 102.6 235 104.64C235.37 105.82 235.68 107.01 236.01 108.2C238.22 116.07 240.4 123.94 242.64 131.8C244.14 137.05 246.07 138.75 251.48 138.86C259.35 139.03 267.22 138.89 275.09 138.93C277.84 138.94 279.85 137.72 281.18 135.43C282.03 133.97 282.72 132.41 283.31 130.82C286.1 123.3 288.83 115.76 291.6 108.24C293.59 102.84 294.79 97.2899 294.81 91.5099C294.88 66.3599 294.94 41.2099 294.99 16.0599C294.99 15.7499 294.99 15.4399 294.96 15.1299C294.61 10.6899 293.15 9.19994 288.64 8.75994L288.62 8.74994ZM275.7 86.1899C275.45 92.4599 274.12 98.6999 273.06 104.91C272.39 108.86 271.37 112.75 270.44 116.64C269.71 119.66 268.35 122.11 264.81 122.53C260.79 123.01 258.42 121.9 256.55 118.16C251.44 107.96 246.4 97.7099 241.34 87.4899C240.72 86.2499 240.04 85.0399 239.46 83.7799C237.74 80.0499 235.05 78.1699 230.75 78.2099C226.62 78.2499 224.16 80.2099 222.44 83.6899C217.25 94.1999 212.02 104.69 206.8 115.18C206.25 116.28 205.77 117.42 205.17 118.5C203.28 121.89 201.04 122.97 197.14 122.55C193.86 122.2 192.24 120.13 191.58 117.19C188.97 105.47 185.7 93.9099 185.92 81.6699C186.23 64.2399 185.99 46.7999 186.01 29.3599C186.01 28.0799 186.22 26.8099 186.34 25.5299C186.85 25.5599 187.36 25.5899 187.86 25.6199V30.5299C187.86 47.8099 187.9 65.0899 187.84 82.3699C187.82 88.8799 188.26 95.2999 189.85 101.64C190.97 106.13 191.8 110.68 192.82 115.2C193.41 117.81 194.08 120.37 197.47 120.7C200.7 121.02 202.13 120.25 203.95 116.73C206.35 112.07 208.67 107.36 211.02 102.68C214.19 96.3399 217.55 90.0699 220.48 83.6199C223.01 78.0399 226.99 75.8199 233 76.5699C235.64 76.8999 237.78 77.7199 239.15 80.0399C240.33 82.0299 241.51 84.0199 242.55 86.0799C247.68 96.2699 252.79 106.48 257.86 116.7C259.03 119.07 260.45 120.83 263.42 120.74C266.28 120.65 267.9 119.84 268.51 117.02C271.01 105.44 274.33 94.0299 274.14 81.9499C273.86 64.8299 274.07 47.6999 274.07 30.5699C274.07 28.9099 274.07 27.2399 274.07 25.3599C276.37 25.8299 275.89 27.2799 275.9 28.3299C275.95 36.1999 275.94 44.0699 275.93 51.9399C275.91 63.3599 276.16 74.7899 275.71 86.1899H275.7Z" fill="white"/>
<path d="M129.58 79.52C128.46 73.16 125.41 68.02 119.82 64.46C115.19 61.51 110.2 59.54 104.82 58.66C97.97 57.55 91.08 56.7 84.21 55.72C81 55.26 77.76 54.97 74.61 54.26C71.64 53.59 70.11 50.94 70.5 47.94C70.86 45.16 72.38 43.73 75.45 43.43C76.67 43.31 77.92 43.35 79.15 43.35C90.73 43.35 102.3 43.35 113.87 43.34C115.41 43.34 116.97 43.35 118.49 43.15C122.04 42.68 123.66 41.37 123.77 37.85C124 29.99 124 22.11 123.77 14.24C123.67 10.8 121.98 9.42997 118.49 8.87997C117.43 8.70997 116.34 8.67997 115.26 8.67997C99.52 8.66997 83.78 8.60997 68.03 8.69997C61.85 8.73997 55.68 9.23997 49.78 11.32C38.09 15.44 30.64 23.39 29.76 35.95C29.08 45.62 29.29 55.39 29.76 65.09C30.23 74.85 35.12 82.19 44.4 85.73C49.54 87.69 55.01 88.93 60.44 89.92C68.48 91.38 76.63 92.2 84.69 93.54C88.22 94.13 89.4 96.24 89.01 99.97C88.68 103.12 87.25 104.45 83.84 104.69C82.76 104.77 81.68 104.72 80.6 104.72C66.71 104.72 52.82 104.72 38.93 104.72C37.39 104.72 35.83 104.69 34.31 104.9C31.37 105.31 29.66 106.74 29.59 109.69C29.39 117.71 29.39 125.74 29.59 133.75C29.67 136.93 31.4 138.37 34.59 138.79C35.81 138.95 37.06 138.88 38.29 138.88C47.55 138.88 56.81 138.88 66.07 138.88C75.33 138.88 84.29 139.05 93.39 138.81C97.83 138.69 102.35 138.22 106.67 137.19C121.95 133.57 130.25 122.91 130.35 107.21C130.39 100.57 130.43 93.93 130.32 87.3C130.28 84.69 130.03 82.05 129.57 79.48L129.58 79.52ZM110.51 105.27C110.02 114.88 103.75 121.23 94.2 122.34C92.06 122.59 89.89 122.6 87.73 122.61C75.38 122.63 63.04 122.62 50.69 122.62H46.23C46.23 122.05 46.25 121.47 46.26 120.9C47.69 120.85 49.13 120.76 50.56 120.76C63.37 120.75 76.18 120.8 88.98 120.71C91.73 120.69 94.58 120.53 97.2 119.77C103.92 117.83 108.11 113.31 108.6 106.21C108.97 100.84 108.95 95.4 108.51 90.04C107.93 82.85 104.94 79.7 97.79 78.05C91.93 76.7 86.02 75.59 80.12 74.39C73.77 73.1 67.42 71.84 61.07 70.54C59.86 70.29 58.67 69.98 57.49 69.62C52.54 68.11 49.49 64.8 49.28 59.6C49.02 52.82 48.8 46 49.31 39.25C49.9 31.37 56.56 25.81 65.23 25.26C68.77 25.04 72.33 25.15 75.87 25.14C84.82 25.13 93.77 25.12 102.72 25.14C104.14 25.14 105.56 25.31 106.98 25.4C106.99 25.77 107.01 26.15 107.02 26.52C105.62 26.64 104.23 26.86 102.83 26.86C91.72 26.89 80.61 26.81 69.5 26.92C66.6 26.95 63.59 27.16 60.83 27.97C54.8 29.73 51.11 34.73 50.92 41.04C50.76 46.28 50.79 51.54 50.89 56.78C51.02 64.1 53.5 67.07 60.71 68.57C72.79 71.08 84.89 73.5 96.97 75.99C98.48 76.3 99.99 76.66 101.42 77.21C106.45 79.14 109.72 82.7 110.12 88.16C110.53 93.84 110.77 99.58 110.48 105.26L110.51 105.27Z" fill="white"/>
<path d="M416.63 43.64C421.63 43.57 423.25 41.98 423.33 36.93C423.43 30.14 423.4 23.35 423.35 16.56C423.31 10.39 421.83 8.91004 415.77 8.69004C415.15 8.67004 414.54 8.69004 413.92 8.69004C390.32 8.69004 366.71 8.69004 343.11 8.69004C341.72 8.69004 340.32 8.66004 338.95 8.85004C335.25 9.37004 333.61 10.84 333.53 14.55C333.35 22.26 333.34 29.98 333.51 37.69C333.6 41.87 335.42 43.51 339.6 43.62C344.38 43.75 349.16 43.63 353.95 43.68C355.13 43.69 356.32 43.89 357.57 44.02V104.46C355.8 104.46 354.29 104.46 352.79 104.46C348.78 104.46 344.77 104.39 340.76 104.49C335.12 104.63 333.51 106.18 333.44 111.66C333.35 118.45 333.34 125.24 333.45 132.03C333.54 137.24 335.26 138.79 340.55 138.92C341.17 138.93 341.78 138.92 342.4 138.92C366.47 138.92 390.53 138.92 414.6 138.92C415.83 138.92 417.08 139 418.3 138.84C421.43 138.44 423.14 136.92 423.21 133.71C423.39 125.69 423.4 117.66 423.21 109.65C423.13 106.3 421.41 104.81 417.77 104.61C413.46 104.37 409.14 104.49 404.82 104.46C403.17 104.45 401.52 104.46 399.6 104.46V43.66C405.55 43.66 411.09 43.72 416.62 43.64H416.63ZM379.93 120.59C388.76 120.68 397.7 120.78 406.54 120.88C406.62 121.63 406.68 121.8 406.64 121.94C406.61 122.06 406.48 122.25 406.4 122.25C388.22 122.37 370.04 122.48 351.86 122.57C351.34 122.57 350.81 122.28 349.48 121.89C353.03 120 356.08 120.96 358.95 120.79C361.87 120.61 364.81 120.75 367.74 120.75H376.86C377.94 117.23 378.34 35.8 377.35 27.15C372.92 26.61 368.33 27.09 363.78 26.88C359.32 26.68 354.78 27.5 349.63 26.21C353.65 24.9 402.23 24.74 406.55 25.77C406.55 26.08 406.55 26.38 406.55 26.69H380.56C379.35 30.4 378.88 109.52 379.92 120.59H379.93Z" fill="white"/>
<path d="M548.67 8.69004C548.21 8.69004 547.74 8.69004 547.28 8.69004C522.75 8.69004 498.22 8.69004 473.69 8.69004C464.84 8.69004 463.78 9.73004 463.78 18.42C463.78 55.3 463.78 92.18 463.78 129.06C463.78 130.45 463.74 131.84 463.85 133.22C464.18 137.15 465.73 138.66 469.72 138.89C471.72 139 473.73 138.92 475.74 138.92C482.99 138.92 490.24 138.96 497.49 138.9C502.99 138.86 504.55 137.24 504.71 131.67C504.74 130.44 504.72 129.2 504.72 127.97C504.72 119.02 504.71 110.07 504.74 101.12C504.74 99.8 504.95 98.4901 505.1 96.8C509.14 96.8 512.82 96.8 516.5 96.8C523.13 96.79 529.77 96.89 536.4 96.71C540.91 96.58 542.55 94.9 542.63 90.43C542.76 83.18 542.75 75.92 542.64 68.67C542.58 64.15 540.95 62.54 536.57 62.19C535.5 62.11 534.41 62.13 533.33 62.13C525.31 62.13 517.28 62.13 509.26 62.11C507.91 62.11 506.57 61.94 504.98 61.83V43.34C507.01 43.34 508.68 43.34 510.35 43.34C522.54 43.34 534.73 43.34 546.92 43.34C556.42 43.34 557.34 42.44 557.34 33.15C557.34 27.9 557.36 22.66 557.34 17.41C557.3 10.2 555.85 8.76004 548.67 8.67004V8.69004ZM536.18 26.86C521.07 26.92 505.95 26.9 490.84 26.9H485.55V78.82H525.87C525.87 79.15 525.88 79.48 525.89 79.81C521.67 80.99 517.28 80.18 512.99 80.32C508.37 80.47 503.74 80.35 499.11 80.35H485.21V122.13C484.85 122.17 484.48 122.21 484.12 122.25C483.89 121.38 483.47 120.5 483.46 119.63C483.4 114.39 483.42 109.14 483.42 103.9C483.42 79.53 483.42 55.16 483.42 30.78V25.46H540.82C539.49 27.57 537.66 26.85 536.19 26.85L536.18 26.86Z" fill="white"/>
<path d="M687.47 8.71005C686.7 8.67005 685.93 8.69005 685.16 8.69005C655.24 8.69005 625.32 8.69005 595.4 8.69005C594.02 8.69005 592.61 8.68005 591.25 8.89005C587.74 9.45005 586.27 10.8601 586.2 14.3801C586.05 22.2401 586.03 30.1101 586.2 37.9801C586.29 42.0301 588.12 43.5601 592.5 43.6201C599.44 43.7101 606.38 43.6501 613.32 43.6501C615 43.6501 616.69 43.6501 619.1 43.6501C619.1 46.1201 619.1 47.9501 619.1 49.7701C619.1 76.7601 619.08 103.76 619.12 130.75C619.13 137.52 620.56 138.88 627.29 138.89C635.46 138.91 643.64 138.89 651.81 138.89C660.44 138.89 661.35 137.99 661.35 129.37C661.35 102.68 661.35 76.0001 661.35 49.3101C661.35 47.5201 661.44 45.7301 661.5 43.6301C663.58 43.6301 665.1 43.6301 666.63 43.6301C673.42 43.6301 680.2 43.6601 686.99 43.6201C692.8 43.5901 694.37 42.0501 694.43 36.1801C694.51 29.3901 694.52 22.6001 694.43 15.8201C694.35 10.5901 692.68 8.98005 687.47 8.68005V8.71005ZM674.23 26.8601C665.12 26.9301 656.02 26.9001 646.91 26.9001C645.23 26.9001 643.55 26.9001 641.31 26.9001C641.24 29.0301 641.14 30.8201 641.14 32.6101C641.13 60.7001 641.14 88.7901 641.12 116.89C641.12 118.62 640.99 120.35 640.92 122.07C640.57 122.07 640.23 122.05 639.88 122.05C638.65 117.83 639.5 113.44 639.35 109.14C639.19 104.51 639.31 99.8801 639.31 95.2501V41.0701C639.31 36.6001 639.31 32.1401 639.31 27.1901C635.12 26.6401 631.14 26.9701 627.19 26.9201C623.02 26.8601 618.86 26.9101 614.69 26.9101H602.99C602.91 26.0701 602.85 25.9001 602.89 25.7601C602.92 25.6401 603.05 25.4801 603.15 25.4701C604.36 25.3501 605.58 25.1701 606.79 25.1701C630.37 25.1501 653.95 25.1601 677.82 25.1601C677.01 27.5501 675.38 26.8701 674.21 26.8801L674.23 26.8601Z" fill="white"/>
<path d="M1134.29 42.39C1133.57 25.19 1124.75 14.38 1107.94 10.75C1101.96 9.46002 1095.72 8.86002 1089.59 8.78002C1070.16 8.54002 1050.72 8.67002 1031.28 8.70002C1024.03 8.71002 1022.6 10.18 1022.54 17.35C1022.54 18.43 1022.54 19.51 1022.54 20.59V73.82C1022.54 79.07 1022.54 84.31 1022.54 89.56C1022.54 103.6 1022.49 117.64 1022.57 131.68C1022.6 137.14 1024.23 138.89 1029.32 138.9C1050.61 138.94 1071.9 138.97 1093.18 138.79C1099.97 138.73 1106.71 137.76 1113.18 135.46C1124.66 131.37 1131.55 123.34 1133.51 111.3C1134.1 107.67 1134.34 103.94 1134.36 100.25C1134.46 86.21 1134.41 72.17 1134.4 58.13C1134.4 52.88 1134.51 47.63 1134.29 42.4V42.39ZM1114.87 97.61C1114.85 100.68 1114.46 103.76 1114.02 106.8C1113.21 112.39 1110.23 116.72 1105.07 118.88C1101.15 120.52 1096.86 122.08 1092.7 122.19C1076.52 122.63 1060.33 122.48 1044.14 122.53C1043.71 122.53 1043.29 122.28 1042.59 122.07V25.48C1043.88 25.35 1044.92 25.16 1045.96 25.16C1060.45 25.16 1074.95 25.19 1089.44 25.23C1094.44 25.24 1099.23 26.28 1103.78 28.38C1109.52 31.03 1113.05 35.43 1114.02 41.71C1114.47 44.6 1114.86 47.52 1114.88 50.43C1114.96 66.16 1114.97 81.89 1114.88 97.62L1114.87 97.61Z" fill="white"/>
<path d="M981.45 39.78C980.67 25.02 973.28 15.26 959.25 10.61C956.77 9.78998 954.24 9.04998 951.68 8.50998C937.19 5.47998 922.57 5.52998 907.94 7.03998C900.25 7.83998 892.73 9.56998 885.75 13.11C877.37 17.37 872.03 23.98 870.43 33.31C869.83 36.79 869.51 40.35 869.46 43.88C869.33 53.91 869.42 63.94 869.42 73.97C869.46 73.97 869.51 73.97 869.55 73.97C869.55 85.54 869.24 97.12 869.63 108.68C870.08 122.23 876.78 131.68 889.71 136.33C892.89 137.47 896.15 138.52 899.45 139.19C914.41 142.24 929.48 142.22 944.57 140.42C951.65 139.58 958.53 137.89 964.96 134.71C973.9 130.3 979.33 123.25 980.74 113.31C981.21 109.96 981.52 106.56 981.54 103.18C981.61 83.74 981.58 64.3 981.57 44.86C981.57 43.16 981.54 41.46 981.45 39.77V39.78ZM961.92 99.67C961.8 112.78 955.16 120.74 942.34 123.37C930.89 125.72 919.36 125.75 907.91 123.34C895.27 120.68 888.98 112.77 888.92 99.77C888.9 95.45 888.9 91.14 888.9 86.82C888.9 82.5 888.91 78.19 888.91 73.87C888.91 65.24 888.87 56.61 888.91 47.97C888.97 35.08 895.39 27.03 908.02 24.48C919.31 22.19 930.71 22.22 942.02 24.4C955.04 26.92 961.81 35.06 961.92 48.33C962.06 65.44 962.08 82.55 961.92 99.66V99.67Z" fill="white"/>
<path d="M813.02 11.46C809.34 10.39 805.48 9.48004 801.68 9.41004C780.25 9.02004 758.82 8.83004 737.39 8.75004C731.64 8.73004 730.18 10.51 730.14 16.45C730.09 23.7 730.13 30.95 730.13 38.2C730.13 69.05 730.12 99.91 730.14 130.76C730.14 137.5 731.56 138.89 738.28 138.91C746.76 138.94 755.25 138.96 763.73 138.9C769.27 138.86 770.94 137.21 771.02 131.73C771.1 125.71 771.04 119.7 771.04 113.68C771.04 110.16 771.04 106.63 771.04 102.39C777.18 102.39 782.56 102.55 787.93 102.35C794.39 102.11 800.89 101.97 807.28 101.08C817.22 99.71 825.69 95.41 830.11 85.85C832.09 81.58 833.81 76.82 834.04 72.2C834.6 61.13 834.76 49.97 834.08 38.91C833.22 24.9 825.27 15.03 813.02 11.46ZM815.57 71.26C814.47 78.53 809.92 83.38 802.94 85.14C797.77 86.44 792.3 86.89 786.94 87.05C777.23 87.34 767.5 87.13 757.77 87.13H752.09C752.04 99.01 751.98 110.58 751.93 122.14L750.52 122.08V25.42C752.06 25.32 753.41 25.16 754.76 25.15C766.64 25.13 778.53 24.96 790.41 25.23C794.82 25.33 799.35 26.03 803.57 27.29C810.34 29.32 814.49 34.27 815.56 41.27C817.09 51.24 817.08 61.29 815.57 71.26Z" fill="white"/>
<path d="M1112.07 41.73C1111.11 36.39 1108.01 32.5 1103.11 30.1C1098.89 28.03 1094.41 27.02 1089.71 27.01C1075.69 26.96 1061.66 26.93 1047.64 26.91C1046.61 26.91 1045.57 27.12 1044.31 27.26V120.28C1045.13 120.46 1045.71 120.7 1046.29 120.7C1061.39 120.7 1076.5 120.87 1091.6 120.5C1095.63 120.4 1099.76 119.02 1103.59 117.55C1108.37 115.72 1111.16 111.76 1112.07 106.75C1112.67 103.44 1113.02 100.03 1113.05 96.66C1113.15 81.71 1113.15 66.76 1113.05 51.81C1113.03 48.44 1112.66 45.04 1112.07 41.72V41.73ZM1093.56 94.36C1093.56 95.74 1093.55 97.15 1093.29 98.5C1092.59 102.12 1090.8 104.27 1087.18 104.42C1079.53 104.73 1071.86 104.51 1063.89 104.51V43.58C1071.88 43.58 1079.55 43.37 1087.21 43.67C1091.06 43.82 1092.86 46.05 1093.43 49.94C1093.58 51 1093.58 52.09 1093.58 53.17C1093.58 66.9 1093.59 80.62 1093.58 94.35L1093.56 94.36Z" fill="white"/>
<path d="M944.42 26.93C937.24 24.82 929.83 24.36 922.44 24.8C916.63 25.15 910.73 25.79 905.14 27.29C896.41 29.63 891.34 36.65 890.81 45.64C890.7 47.48 890.67 49.34 890.66 51.18C890.64 58.73 890.66 66.28 890.66 73.84C890.69 73.84 890.72 73.84 890.75 73.84C890.75 82.93 890.55 92.03 890.8 101.12C891.1 111.88 896.69 118.83 907.11 121.27C919.29 124.13 931.6 124.11 943.76 121.16C954.23 118.62 959.98 111.18 960.05 100.43C960.16 82.71 960.17 64.98 960.05 47.26C959.98 36.93 954.41 29.88 944.42 26.94V26.93ZM940.78 97.33C940.74 102.66 938.5 105.47 933.15 106.01C928 106.53 922.7 106.5 917.55 105.93C912.47 105.37 910.44 102.56 910.38 97.39C910.3 89.69 910.36 81.99 910.36 74.29C910.36 66.59 910.33 58.89 910.37 51.19C910.4 45.36 912.64 42.46 918.38 41.93C923.25 41.49 928.22 41.51 933.08 41.98C938.3 42.49 940.74 45.43 940.78 50.65C940.88 66.2 940.88 81.76 940.78 97.31V97.33Z" fill="white"/>
<path d="M802.79 28.9C799.59 27.9 796.18 27.15 792.85 27.09C780.21 26.85 767.57 26.93 754.93 26.92C754.07 26.92 753.2 27.19 752.2 27.35V84.92C753.32 85.06 754.05 85.22 754.79 85.22C766.97 85.23 779.15 85.38 791.32 85.13C795.27 85.05 799.32 84.32 803.11 83.18C809.04 81.39 812.82 77.13 813.75 70.95C815.23 61.15 815.25 51.27 813.71 41.47C812.72 35.18 808.88 30.8 802.78 28.89L802.79 28.9ZM795.16 62.79C794.74 67.67 792.51 69.59 787.61 69.75C782.24 69.92 776.86 69.79 770.92 69.79V43.18C771.95 43 772.95 42.67 773.95 42.66C778.41 42.61 782.88 42.54 787.34 42.69C792.47 42.86 794.76 44.81 795.18 49.88C795.53 54.16 795.53 58.51 795.17 62.79H795.16Z" fill="white"/>
<path d="M300.57 42.2299C300.57 34.4 300.57 26.3 300.57 18.33C300.57 16.25 300.45 14.42 300.2 12.72C299.42 7.35995 296.67 4.53995 291.28 3.56995C290.15 3.36995 288.92 3.26995 287.41 3.26995C286.43 3.26995 285.46 3.26995 284.48 3.26995C282.58 3.26995 280.69 3.26995 278.79 3.26995C276.9 3.26995 275.01 3.26995 273.12 3.26995C269.03 3.26995 265.88 3.24995 262.92 3.21995C262.83 3.21995 262.75 3.21995 262.66 3.21995C258.3 3.21995 254.55 4.63995 251.18 7.56995C250.53 8.13995 249.88 8.70995 249.22 9.26995C244.19 13.66 238.99 18.2 233.62 22.2C228.1 26.32 225.63 31.65 226.08 38.49C226.26 41.28 226.22 44.1 226.17 47.08C226.17 47.38 226.17 47.69 226.16 47.99C226.08 47.99 226 48.01 225.92 48.02C222.89 48.3899 219.46 48.81 216.45 51.4799C215.28 52.52 214.04 53.56 212.81 54.57C212.81 51.18 212.81 47.7799 212.81 44.3899C212.81 35.1699 212.82 25.64 212.79 16.26C212.79 13.12 212.43 9.16995 209.78 6.43995C207.1 3.67995 203.17 3.28995 200.05 3.25995C197.62 3.23995 194.99 3.21995 191.77 3.21995C189.87 3.21995 187.98 3.21995 186.08 3.21995C184.19 3.21995 182.3 3.21995 180.41 3.21995C178.01 3.21995 176.01 3.21995 174.12 3.19995H173.98C169.71 3.19995 166.06 4.56995 162.81 7.39995L162.57 7.60995C156.62 12.8 150.48 18.16 144.2 23.0599C139.69 26.59 137.6 31.07 137.64 37.16C137.71 48.3299 137.71 59.69 137.7 70.68C137.7 82 137.7 93.7 137.77 105.21V105.89C137.81 111.32 137.84 116.94 139.44 122.29C142.19 131.53 145.61 140.68 148.91 149.53C149.56 151.28 150.22 153.04 150.87 154.79C153.09 160.78 157.9 164.08 164.41 164.08C164.55 164.08 164.68 164.08 164.82 164.08C168.04 164.01 171.4 163.98 174.8 163.98C178.2 163.98 181.83 164.01 185.51 164.08C185.63 164.08 185.76 164.08 185.88 164.08C190.35 164.08 194.21 162.62 197.7 159.62C202.15 155.79 206.77 151.99 211.24 148.31L212.36 147.39C212.87 149.14 213.37 150.84 213.86 152.53C216.32 160.89 220.29 163.89 229.01 164.01C230.97 164.04 233.1 164.05 235.7 164.05C237.2 164.05 238.69 164.05 240.19 164.05C241.68 164.05 243.17 164.05 244.66 164.05C247.03 164.05 248.97 164.06 250.76 164.08C250.83 164.08 250.9 164.08 250.96 164.08C254.49 164.08 257.56 162.93 260.35 160.57C267.98 154.11 275.56 147.88 281.32 143.18C284.44 140.63 286.61 137.53 287.95 133.7C288.35 132.56 288.75 131.41 289.14 130.26C290.76 125.57 292.44 120.72 294.43 116.18C298.68 106.54 300.63 96.02 300.58 83.1C300.53 69.47 300.53 55.6099 300.54 42.2099L300.57 42.2299ZM164.42 160.42C164.14 160.42 163.89 160.39 163.62 160.37C164 160.39 164.36 160.42 164.76 160.41C164.65 160.41 164.54 160.41 164.43 160.41L164.42 160.42ZM284.48 6.97995C285.45 6.97995 286.42 6.97995 287.4 6.97995C285.67 6.97995 283.93 6.97995 282.2 6.97995C282.96 6.97995 283.72 6.97995 284.48 6.97995ZM262.66 6.92995C262.73 6.92995 262.8 6.92995 262.87 6.92995C262.6 6.92995 262.33 6.93995 262.07 6.94995C262.27 6.94995 262.46 6.92995 262.66 6.92995ZM191.78 6.94995C191.94 6.94995 192.11 6.94995 192.27 6.94995C190.87 6.94995 189.46 6.94995 188.06 6.94995C189.3 6.94995 190.54 6.94995 191.79 6.94995H191.78ZM174 6.94995C174 6.94995 174.07 6.94995 174.11 6.94995C173.87 6.94995 173.63 6.95995 173.39 6.96995C173.59 6.96995 173.79 6.94995 173.99 6.94995H174ZM185.88 160.42C185.78 160.42 185.68 160.42 185.58 160.42C185.88 160.42 186.16 160.41 186.45 160.4C186.26 160.4 186.07 160.42 185.88 160.42ZM211.28 143.51C211.51 143.32 211.74 143.15 211.98 142.98C211.74 143.15 211.5 143.33 211.28 143.51ZM214.45 141.36C214.14 141.57 213.85 141.76 213.57 141.94C213.85 141.76 214.15 141.57 214.45 141.36ZM235.71 160.39C235.6 160.39 235.49 160.39 235.38 160.39C236.77 160.39 238.17 160.39 239.56 160.39C238.28 160.39 236.99 160.39 235.71 160.39ZM250.98 160.41C250.93 160.41 250.87 160.41 250.82 160.41C251.03 160.41 251.23 160.4 251.44 160.39C251.29 160.39 251.14 160.41 250.98 160.41ZM284.47 132.5C284.05 133.69 283.54 134.79 282.93 135.81C283.54 134.79 284.05 133.68 284.47 132.5C284.61 132.11 284.74 131.72 284.87 131.33C284.73 131.72 284.6 132.11 284.47 132.5ZM283.29 130.81C282.7 132.39 282.01 133.96 281.16 135.42C279.83 137.71 277.82 138.94 275.07 138.92C267.2 138.88 259.33 139.02 251.46 138.85C246.05 138.73 244.12 137.04 242.62 131.79C240.38 123.93 238.2 116.05 235.99 108.19C235.66 107 235.35 105.8 234.98 104.63C234.33 102.6 233.35 101.05 230.82 101.03C228.34 101.01 227.2 102.32 226.59 104.47C225.79 107.29 224.93 110.09 224.11 112.9C222.26 119.27 220.46 125.65 218.57 132.01C217 137.28 215.04 138.83 209.63 138.89C202.38 138.97 195.13 138.83 187.88 138.94C183.38 139.01 180.57 136.81 179.02 132.87C177.27 128.42 175.97 123.79 174.04 119.42C167.86 105.43 165.98 90.85 166.37 75.64C166.86 56.52 166.48 37.3699 166.5 18.24C166.5 9.89995 167.73 8.70995 176.2 8.68995C183.45 8.66995 190.7 8.66995 197.96 8.68995C199.34 8.68995 200.75 8.70995 202.11 8.92995C205.56 9.47995 206.88 10.89 207.25 14.42C207.41 15.95 207.36 17.5 207.36 19.04C207.36 37.56 207.36 56.07 207.36 74.59C207.36 76.1199 207.36 77.66 207.36 79.19C207.69 79.28 208.01 79.38 208.34 79.47C210.79 74.2 213.68 69.09 215.59 63.63C218.31 55.8699 223.26 52.4399 231.39 53.4799C232.61 53.6399 233.86 53.52 235.09 53.52C239.93 53.52 243.22 55.7 245.15 60.22C247.33 65.33 249.74 70.33 252.07 75.37C252.71 76.74 253.45 78.06 254.94 79.3C255 77.68 255.12 76.06 255.12 74.45C255.13 56.4 255.12 38.34 255.12 20.29C255.12 19.21 255.12 18.13 255.12 17.05C255.17 10.18 256.58 8.73995 263.61 8.68995C271.17 8.62995 278.73 8.66995 286.29 8.67995C287.06 8.67995 287.84 8.66995 288.6 8.73995C293.11 9.17995 294.57 10.67 294.92 15.11C294.94 15.42 294.95 15.73 294.95 16.04C294.89 41.19 294.83 66.34 294.77 91.49C294.75 97.2599 293.55 102.82 291.56 108.22C288.79 115.75 286.07 123.29 283.27 130.8L283.29 130.81ZM291.06 114.72C290.42 116.16 289.83 117.62 289.25 119.1C289.82 117.63 290.42 116.17 291.06 114.72C293.01 110.3 294.38 105.79 295.3 101.2C294.38 105.79 293.01 110.29 291.06 114.72ZM296.86 18.34C296.86 17.49 296.84 16.64 296.79 15.8C296.74 14.96 296.66 14.11 296.53 13.27C296.65 14.11 296.74 14.95 296.79 15.8C296.84 16.65 296.86 17.5 296.86 18.34C296.88 39.94 296.82 61.54 296.9 83.15C296.82 61.55 296.88 39.95 296.86 18.34Z" fill="black"/>
<path d="M122.08 59.4399C119.73 58.0399 117.26 56.9699 114.88 55.9299C114.69 55.8499 114.51 55.7699 114.32 55.6899C117.58 52.9299 120.67 50.3099 123.81 47.8199C127.56 44.8399 129.46 40.9099 129.45 36.1099C129.45 33.8099 129.45 31.4599 129.47 29.1899C129.49 24.9199 129.51 20.4999 129.43 16.1399C129.37 13.0099 128.96 9.06994 126.26 6.36994C123.54 3.64994 119.61 3.28994 116.5 3.26994H115.1C106.28 3.22994 97.1602 3.18994 88.1802 3.18994C79.8002 3.18994 72.3902 3.21994 65.5202 3.28994C51.8502 3.41994 40.8002 7.56994 31.7302 15.9799C27.1802 20.1899 22.2402 24.2199 17.4502 28.1199C16.1302 29.1999 14.8102 30.2699 13.4902 31.3499C5.49022 37.9499 1.21022 46.5699 0.79022 56.9799C0.46022 65.1599 0.53022 73.4499 0.62022 81.2399C0.66022 84.4299 1.29022 87.5999 1.80022 90.1499C3.44022 98.3999 8.19022 104.79 15.9202 109.16C16.5502 109.52 17.1802 109.85 17.8202 110.17C17.6002 110.36 17.3702 110.55 17.1502 110.74C13.3602 113.96 9.78022 116.99 6.13022 119.91C2.38022 122.91 0.50022 126.84 0.52022 131.61C0.53022 134.08 0.52022 136.6 0.51022 139.03C0.49022 143.14 0.47022 147.38 0.56022 151.58C0.63022 154.62 1.05022 158.44 3.76022 161.07C6.44022 163.67 10.2702 164.03 13.3102 164.05C15.9902 164.07 18.8802 164.08 22.4002 164.08C24.6002 164.08 26.8002 164.08 29.0002 164.08C31.1902 164.08 33.3802 164.08 35.5602 164.08H35.6002C39.0502 164.08 42.4902 164.08 45.9402 164.09C49.3902 164.09 52.8402 164.1 56.2902 164.1C61.7202 164.1 66.1702 164.08 70.3102 164.05C82.9202 163.95 92.3502 161.06 99.9902 154.96C107.64 148.84 115.2 142.39 122.5 136.15L124.57 134.38C130.67 129.17 134.35 122.26 135.21 114.4C136.52 102.39 136.49 90.5999 135.1 79.3799C134.04 70.7599 129.53 63.8699 122.08 59.4399ZM22.4002 160.4C19.3802 160.4 16.3602 160.4 13.3502 160.37C16.9402 160.4 20.5202 160.4 24.1102 160.4C23.5402 160.4 22.9702 160.4 22.4002 160.4ZM120.19 62.6199C121.41 63.3399 122.53 64.1399 123.56 65.0099C122.53 64.1499 121.41 63.3499 120.19 62.6199C119.94 62.4699 119.67 62.3399 119.41 62.1899C119.67 62.3299 119.94 62.4599 120.19 62.6199ZM121.51 44.9199C120.92 45.3799 120.34 45.8499 119.76 46.3199C120.34 45.8499 120.93 45.3799 121.51 44.9199C121.74 44.7399 121.96 44.5599 122.16 44.3699C121.95 44.5599 121.73 44.7399 121.51 44.9199ZM121.66 7.73994C121.13 7.52994 120.54 7.36994 119.89 7.25994C120.54 7.37994 121.13 7.53994 121.66 7.73994ZM88.1902 6.90994C88.7102 6.90994 89.2302 6.90994 89.7402 6.90994C87.1302 6.90994 84.5302 6.90994 81.9202 6.90994C84.0102 6.90994 86.0902 6.89994 88.1802 6.89994L88.1902 6.90994ZM56.2902 160.4C55.6302 160.4 54.9802 160.4 54.3202 160.4C55.3302 160.4 56.3402 160.4 57.3502 160.4C56.9902 160.4 56.6402 160.4 56.2802 160.4H56.2902ZM130.36 107.25C130.26 122.94 121.96 133.61 106.68 137.23C102.36 138.25 97.8502 138.73 93.4002 138.85C84.3002 139.09 75.1902 138.92 66.0802 138.92C56.9702 138.92 47.5602 138.92 38.3002 138.92C37.0702 138.92 35.8202 138.99 34.6002 138.83C31.4002 138.41 29.6702 136.97 29.6002 133.79C29.4002 125.77 29.4102 117.74 29.6002 109.73C29.6702 106.79 31.3802 105.36 34.3202 104.94C35.8402 104.73 37.4002 104.76 38.9402 104.76C52.8302 104.75 66.7202 104.76 80.6102 104.76C81.6902 104.76 82.7702 104.81 83.8502 104.73C87.2602 104.49 88.6902 103.15 89.0202 100.01C89.4102 96.2799 88.2302 94.1599 84.7002 93.5799C76.6402 92.2399 68.4902 91.4199 60.4502 89.9599C55.0202 88.9699 49.5502 87.7299 44.4102 85.7699C35.1302 82.2299 30.2402 74.8899 29.7702 65.1299C29.3102 55.4299 29.1002 45.6599 29.7702 35.9899C30.6502 23.4199 38.0902 15.4799 49.7902 11.3599C55.6902 9.27994 61.8602 8.77994 68.0402 8.73994C83.7802 8.64994 99.5202 8.70994 115.27 8.71994C116.35 8.71994 117.44 8.75994 118.5 8.91994C121.99 9.46994 123.68 10.8399 123.78 14.2799C124 22.1399 124 30.0199 123.78 37.8899C123.68 41.4099 122.06 42.7199 118.5 43.1899C116.98 43.3899 115.42 43.3799 113.88 43.3799C102.31 43.3899 90.7302 43.3799 79.1602 43.3899C77.9302 43.3899 76.6802 43.3499 75.4602 43.4699C72.3902 43.7699 70.8702 45.1899 70.5102 47.9799C70.1202 50.9799 71.6502 53.6299 74.6202 54.2999C77.7702 55.0099 81.0102 55.3099 84.2202 55.7599C91.0902 56.7399 97.9802 57.5899 104.83 58.6999C110.21 59.5699 115.2 61.5399 119.83 64.4999C125.42 68.0599 128.47 73.1999 129.59 79.5599C130.04 82.1299 130.3 84.7699 130.34 87.3799C130.44 94.0199 130.41 100.65 130.37 107.29L130.36 107.25Z" fill="black"/>
<path d="M418.76 99.1C416.03 98.92 413.3 98.92 410.67 98.92C409.32 98.92 407.92 98.92 406.56 98.89C406.01 98.88 405.45 98.86 404.88 98.83C404.88 95.39 404.88 91.94 404.88 88.5C404.88 80.77 404.88 72.78 404.82 64.91C404.82 64.09 404.92 63.63 406.02 62.73C409.53 59.85 413.05 56.88 416.45 54.02C418.74 52.1 421.1 50.1 423.43 48.16C425.14 46.73 428.7 43.77 428.74 38.86V37.34C428.82 29.46 428.89 21.31 428.67 13.27C428.59 10.23 427.32 4.92999 419.76 3.63999C417.98 3.33999 416.21 3.27999 414.57 3.25999C413.02 3.23999 411.32 3.23999 409.24 3.23999C408.11 3.23999 406.98 3.23999 405.86 3.23999C404.74 3.23999 403.62 3.23999 402.5 3.23999H393.58H384.43C370.55 3.23999 356.67 3.23999 342.78 3.23999C339.39 3.23999 334.76 3.23999 330.77 6.62999C325.43 11.17 319.97 15.76 314.69 20.2C312.86 21.74 311.02 23.28 309.19 24.83C306.27 27.29 304.73 30.49 304.72 34.08C304.72 35.93 304.7 37.77 304.69 39.62C304.65 45.72 304.61 52.03 304.79 58.27C304.97 64.58 308.83 68.4 315.38 68.75C316.24 68.8 317.15 68.82 318.27 68.82C318.9 68.82 319.53 68.82 320.17 68.81C320.78 68.81 321.38 68.8 321.99 68.8H322.06C323.43 68.8 324.8 68.8 326.19 68.8H328.94C328.96 69.1 328.97 69.38 328.97 69.65C328.97 73.03 328.97 76.46 328.97 79.78C328.95 86.94 328.94 94.35 329.07 101.65C329.1 103.31 328.68 104.13 327.2 105.33C323.89 108.01 320.61 110.81 317.44 113.51C314.95 115.63 312.37 117.83 309.81 119.95C306.36 122.8 304.63 126.47 304.66 130.86C304.68 133.95 304.68 137.1 304.66 140.15C304.65 143.94 304.64 147.85 304.69 151.71C304.8 159.96 308.61 163.77 317.05 164.05C317.46 164.06 317.86 164.07 318.16 164.07H318.61H319.03H324.16H337.59H351.02C364.43 164.07 377.84 164.07 391.25 164.07H391.4C394.38 164.07 398.47 164.07 401.96 161.17L405.21 158.48C411.51 153.26 418.02 147.86 424.41 142.54C427.27 140.15 428.79 137.1 428.8 133.72C428.8 131.89 428.82 130.06 428.83 128.22C428.87 121.95 428.91 115.47 428.74 109.07C428.58 103.21 424.86 99.47 418.77 99.08L418.76 99.1ZM318.27 65.13C318.21 65.13 318.14 65.13 318.08 65.13C318.25 65.13 318.43 65.13 318.6 65.13C318.49 65.13 318.38 65.13 318.27 65.13ZM311.59 27.68C310.09 28.94 309.07 30.45 308.65 32.24C309.07 30.46 310.09 28.95 311.59 27.68ZM326.19 65.1C326.07 65.1 325.96 65.1 325.84 65.1C326.17 65.1 326.49 65.1 326.82 65.1C326.61 65.1 326.4 65.1 326.19 65.1ZM319.02 160.38C318.73 160.38 318.44 160.38 318.15 160.38C317.82 160.38 317.5 160.38 317.17 160.37C317.78 160.39 318.4 160.38 319.01 160.38H319.02ZM409.25 6.94999C411.01 6.94999 412.78 6.94999 414.54 6.96999C412.57 6.94999 410.61 6.94999 408.64 6.94999C408.84 6.94999 409.04 6.94999 409.25 6.94999ZM384.43 6.95999H402.5C382.59 6.95999 362.69 6.95999 342.78 6.95999C356.66 6.95999 370.54 6.95999 384.43 6.95999ZM391.38 160.38H391.24C391.41 160.38 391.57 160.38 391.74 160.38C391.62 160.38 391.5 160.38 391.39 160.38H391.38ZM423.22 133.7C423.15 136.91 421.44 138.43 418.31 138.83C417.09 138.99 415.85 138.91 414.61 138.91C390.54 138.91 366.48 138.91 342.41 138.91C341.79 138.91 341.18 138.92 340.56 138.91C335.27 138.79 333.55 137.23 333.46 132.02C333.34 125.23 333.36 118.44 333.45 111.65C333.52 106.17 335.13 104.62 340.77 104.48C344.78 104.38 348.79 104.45 352.8 104.45C354.3 104.45 355.81 104.45 357.58 104.45V44.01C356.32 43.89 355.14 43.68 353.96 43.67C349.18 43.63 344.39 43.74 339.61 43.61C335.43 43.5 333.61 41.86 333.52 37.68C333.35 29.97 333.35 22.25 333.54 14.54C333.63 10.83 335.26 9.34999 338.96 8.83999C340.33 8.64999 341.73 8.67999 343.12 8.67999C366.72 8.67999 390.33 8.67999 413.93 8.67999C414.55 8.67999 415.16 8.66999 415.78 8.67999C421.84 8.88999 423.32 10.38 423.36 16.55C423.41 23.34 423.44 30.13 423.34 36.92C423.26 41.98 421.64 43.56 416.64 43.63C411.1 43.71 405.56 43.65 399.62 43.65V104.45C401.54 104.45 403.19 104.45 404.84 104.45C409.16 104.48 413.49 104.36 417.79 104.6C421.43 104.8 423.15 106.29 423.23 109.64C423.42 117.66 423.41 125.68 423.23 133.7H423.22Z" fill="black"/>
<path d="M699.96 24.6C699.98 23.14 700 21.63 700 20.14C700 19.74 700 19.35 700 18.95C700 17.95 700.01 16.91 699.98 15.85C699.69 7.27996 696.05 3.63996 687.39 3.27996C686.8 3.25996 686.17 3.23996 685.39 3.23996C684.99 3.23996 684.6 3.23996 684.2 3.23996C683.82 3.23996 683.45 3.23996 683.07 3.23996H639.1H612.26H612.2C610.57 3.23996 608.95 3.23996 607.32 3.23996C605.69 3.23996 604.06 3.23996 602.43 3.23996C599.19 3.23996 596.58 3.23996 594.19 3.25996C590.61 3.27996 586.85 3.67996 583.54 6.46996C580.9 8.69996 578.26 10.92 575.62 13.15C571.36 16.74 567.1 20.33 562.85 23.93C562.85 21.88 562.85 19.81 562.85 17.76C562.83 12.82 562.27 8.99996 559.65 6.39996C557.03 3.80996 553.18 3.26996 548.2 3.25996C542.69 3.24996 536.74 3.23996 529.47 3.23996C525.1 3.23996 520.73 3.23996 516.37 3.23996C512.02 3.23996 507.67 3.23996 503.32 3.23996C500.32 3.23996 497.31 3.23996 494.31 3.23996C491.3 3.23996 488.29 3.23996 485.28 3.23996C480.25 3.23996 476.14 3.23996 472.34 3.20996H472.21C467.11 3.20996 462.89 4.76996 459.31 7.96996C453.59 13.09 447.45 18.26 441.08 23.35C436.77 26.79 434.75 31.01 434.9 36.25C435.02 40.59 434.99 45.04 434.97 49.34C434.96 51.23 434.94 53.19 434.94 55.12C434.94 63.4 434.94 71.67 434.94 79.95C434.94 103.2 434.94 127.25 434.97 150.9C434.97 154.36 435.34 158.25 438.02 160.94C440.69 163.61 444.57 164.01 448.01 164.03C450.31 164.05 452.8 164.06 455.85 164.06C457.64 164.06 459.43 164.06 461.22 164.06C463 164.06 464.79 164.06 466.57 164.06C469.23 164.06 471.42 164.06 473.46 164.08H473.61C477.92 164.08 481.57 162.74 484.78 159.97L485.89 159.01C491.34 154.3 496.97 149.44 502.76 145.09C508.41 140.84 510.87 135.5 510.27 128.74C510.08 126.61 510.17 124.39 510.26 122.04C510.65 122.06 511.04 122.08 511.42 122.08C515.77 122.08 519.68 120.51 523.37 117.27C529.6 111.81 536.17 106.48 542.52 101.31L542.81 101.07C546.43 98.13 548.24 94.32 548.2 89.76C548.17 86.4 548.18 82.97 548.18 79.65C548.18 76.14 548.2 72.52 548.16 68.94C548.13 66.15 547.84 63.22 545.98 60.75C545.4 59.98 544.72 59.31 543.92 58.7C544.91 57.87 545.9 57.05 546.87 56.24C550.19 53.46 553.63 50.59 557.07 47.9C557.15 47.84 557.22 47.77 557.3 47.7C557.3 51.27 557.32 54.86 557.41 58.44C557.56 64.57 561.4 68.41 567.67 68.71C569.11 68.78 570.68 68.81 572.6 68.81C573.64 68.81 574.68 68.81 575.73 68.79C576.75 68.79 577.77 68.77 578.79 68.77H578.95C580.84 68.77 582.73 68.77 584.67 68.77H589.03H590.24V77.5V92.61C590.24 98.1 590.24 103.58 590.24 109.07C590.24 122.79 590.22 136.98 590.28 150.94C590.29 154.18 590.66 158.24 593.42 160.96C596.12 163.62 600 164.01 603.43 164.03C605.76 164.05 608.27 164.06 611.34 164.06C613.22 164.06 615.11 164.06 616.99 164.06C618.87 164.06 620.75 164.06 622.63 164.06C625.59 164.06 628.02 164.06 630.27 164.08H630.41C634.6 164.08 638.24 162.7 641.54 159.85C647.69 154.54 653.73 149.38 659.91 144.64C664.76 140.92 666.98 136.19 666.91 129.76C666.75 115.4 666.78 100.78 666.8 86.65C666.8 81.29 666.82 75.92 666.82 70.56V68.69C670.84 67.81 673.69 65.38 676.07 63.35C676.75 62.77 677.42 62.19 678.1 61.61C682.93 57.48 687.93 53.21 693.03 49.35C698.08 45.53 700.37 40.59 700.02 34.26C699.84 31.09 699.88 27.93 699.93 24.58L699.96 24.6ZM455.86 160.39C455.72 160.39 455.59 160.39 455.45 160.39C457.06 160.39 458.67 160.39 460.28 160.39C458.81 160.39 457.33 160.39 455.86 160.39ZM529.48 6.94996C535.72 6.94996 541.96 6.94996 548.2 6.96996C540.93 6.95996 533.66 6.94996 526.38 6.94996C527.41 6.94996 528.44 6.94996 529.47 6.94996H529.48ZM472.23 6.94996C472.23 6.94996 472.29 6.94996 472.31 6.94996H472.33C472.05 6.94996 471.78 6.96996 471.5 6.97996C471.74 6.97996 471.98 6.94996 472.22 6.94996H472.23ZM473.63 160.4C473.63 160.4 473.55 160.4 473.51 160.4C473.75 160.4 473.99 160.39 474.23 160.38C474.03 160.38 473.84 160.4 473.64 160.4H473.63ZM511.43 118.4C511.11 118.4 510.78 118.39 510.45 118.37C510.88 118.4 511.29 118.4 511.71 118.39C511.62 118.39 511.53 118.4 511.44 118.4H511.43ZM557.34 33.17C557.34 42.45 556.42 43.35 546.92 43.36C534.73 43.36 522.54 43.36 510.35 43.36C508.68 43.36 507.01 43.36 504.98 43.36V61.85C506.57 61.96 507.91 62.12 509.26 62.13C517.28 62.15 525.31 62.14 533.33 62.15C534.41 62.15 535.49 62.12 536.57 62.21C540.95 62.55 542.58 64.17 542.64 68.69C542.74 75.94 542.76 83.2 542.63 90.45C542.55 94.91 540.92 96.6 536.4 96.73C529.77 96.92 523.13 96.81 516.5 96.82C512.82 96.82 509.14 96.82 505.1 96.82C504.95 98.51 504.75 99.82 504.74 101.14C504.71 110.09 504.72 119.04 504.72 127.99C504.72 129.22 504.74 130.46 504.71 131.69C504.56 137.26 503 138.87 497.49 138.92C490.24 138.98 482.99 138.94 475.74 138.94C473.73 138.94 471.72 139.02 469.72 138.91C465.73 138.68 464.18 137.17 463.85 133.24C463.73 131.86 463.78 130.46 463.78 129.08C463.78 92.2 463.78 55.32 463.78 18.44C463.78 9.74996 464.83 8.71996 473.69 8.70996C498.22 8.70996 522.75 8.70996 547.28 8.70996C547.74 8.70996 548.21 8.70996 548.67 8.70996C555.85 8.79996 557.3 10.24 557.34 17.45C557.37 22.7 557.35 27.94 557.34 33.19V33.17ZM572.63 65.14C572.23 65.14 571.83 65.14 571.43 65.13C571.99 65.13 572.56 65.13 573.12 65.13C572.95 65.13 572.79 65.13 572.62 65.13L572.63 65.14ZM685.39 6.94996C686.01 6.94996 686.62 6.94996 687.23 6.97996C686.55 6.94996 685.87 6.94996 685.19 6.94996C685.26 6.94996 685.32 6.94996 685.39 6.94996ZM639.11 6.95996C653.76 6.95996 668.42 6.95996 683.07 6.95996C659.47 6.95996 635.87 6.95996 612.26 6.95996C621.21 6.95996 630.15 6.95996 639.1 6.95996H639.11ZM602.44 6.95996C602.67 6.95996 602.89 6.95996 603.12 6.95996C600.15 6.95996 597.19 6.95996 594.22 6.97996C596.96 6.96996 599.7 6.95996 602.44 6.95996ZM584.7 65.1H584.61C585.11 65.1 585.6 65.1 586.1 65.1C585.63 65.1 585.16 65.1 584.7 65.1ZM611.37 160.38C611.26 160.38 611.15 160.38 611.03 160.38C612.87 160.38 614.7 160.38 616.54 160.38C614.82 160.38 613.09 160.38 611.37 160.38ZM630.44 160.4C630.44 160.4 630.36 160.4 630.33 160.4C630.58 160.4 630.81 160.38 631.05 160.37C630.85 160.37 630.65 160.4 630.44 160.4ZM663.69 65.34C663.51 65.34 663.33 65.34 663.15 65.33C663.36 65.33 663.57 65.33 663.77 65.33C663.77 65.33 663.77 65.33 663.78 65.33C663.75 65.33 663.72 65.33 663.69 65.33V65.34ZM694.44 36.21C694.37 42.08 692.81 43.62 687 43.65C680.21 43.69 673.43 43.66 666.64 43.66C665.11 43.66 663.59 43.66 661.51 43.66C661.45 45.75 661.36 47.55 661.36 49.34C661.36 76.03 661.36 102.71 661.36 129.4C661.36 138.02 660.45 138.92 651.82 138.92C643.65 138.92 635.47 138.94 627.3 138.92C620.57 138.9 619.14 137.55 619.13 130.78C619.09 103.79 619.11 76.79 619.11 49.8C619.11 47.97 619.11 46.15 619.11 43.68C616.7 43.68 615.02 43.68 613.33 43.68C606.39 43.68 599.45 43.74 592.51 43.65C588.13 43.59 586.29 42.05 586.21 38.01C586.04 30.15 586.06 22.28 586.21 14.41C586.28 10.89 587.76 9.47996 591.26 8.91996C592.62 8.69996 594.03 8.71996 595.41 8.71996C625.33 8.70996 655.25 8.71996 685.17 8.71996C685.94 8.71996 686.71 8.69996 687.48 8.73996C692.69 9.03996 694.36 10.65 694.44 15.88C694.54 22.67 694.53 29.45 694.44 36.24V36.21Z" fill="black"/>
<path d="M1139.87 46.1C1139.82 41.1 1139.18 36.05 1137.97 31.1C1136.7 25.88 1134.4 21.3 1131.15 17.5C1127.95 13.76 1123.81 10.74 1118.85 8.54004C1111.94 5.48004 1105.63 3.96004 1099.53 3.87004C1080.15 3.60004 1060.45 3.48004 1041.4 3.36004C1037.49 3.34004 1033.57 3.31004 1029.66 3.29004H1029.55C1025.63 3.29004 1022.02 4.71004 1018.81 7.51004C1012.64 12.9 1006.57 18.15 1000.19 23.15C995.67 26.69 993.6 31.18 993.65 37.27C993.77 50.88 993.75 64.72 993.73 78.11C993.73 83.15 993.72 88.19 993.72 93.23V109.08C993.72 122.46 993.72 135.84 993.72 149.22C993.72 154.5 994.24 158.3 996.81 160.91C999.4 163.54 1003.17 164.08 1008.4 164.08C1016.55 164.08 1024.7 164.08 1032.84 164.08C1043.56 164.08 1054.48 164.08 1065.31 164.06H1065.65C1068.35 164.06 1071.15 164.06 1073.95 163.81C1083.58 162.96 1094.67 161.06 1103.96 153.37C1110.84 147.67 1118.85 141.04 1126.75 134.45C1132.56 129.61 1136.31 123.61 1137.9 116.63C1139.17 111.07 1139.81 106.18 1139.86 101.69C1140.07 83.52 1140.07 64.81 1139.86 46.08L1139.87 46.1ZM1099.48 7.58004C1087.84 7.42004 1076.2 7.31004 1064.56 7.23004C1076.2 7.32004 1087.84 7.42004 1099.48 7.58004ZM1029.56 7.00004C1029.56 7.00004 1029.62 7.00004 1029.64 7.00004C1029.41 7.00004 1029.19 7.02004 1028.97 7.03004C1029.17 7.03004 1029.36 7.00004 1029.56 7.00004ZM1032.85 160.38C1024.7 160.38 1016.56 160.38 1008.41 160.38C1027.38 160.4 1046.35 160.39 1065.32 160.38C1054.5 160.39 1043.68 160.4 1032.86 160.4L1032.85 160.38ZM1113.18 135.45C1106.71 137.76 1099.97 138.73 1093.18 138.78C1071.89 138.95 1050.6 138.92 1029.32 138.89C1024.23 138.89 1022.6 137.14 1022.57 131.67C1022.49 117.63 1022.54 103.59 1022.54 89.55C1022.54 84.3 1022.54 79.06 1022.54 73.81V20.58C1022.54 19.5 1022.54 18.42 1022.54 17.34C1022.6 10.17 1024.03 8.70004 1031.28 8.69004C1050.72 8.66004 1070.16 8.53004 1089.59 8.77004C1095.72 8.85004 1101.95 9.44004 1107.94 10.74C1124.75 14.38 1133.57 25.18 1134.29 42.38C1134.51 47.62 1134.4 52.87 1134.4 58.11C1134.41 72.15 1134.46 86.19 1134.36 100.23C1134.33 103.92 1134.1 107.64 1133.51 111.28C1131.55 123.32 1124.66 131.35 1113.18 135.44V135.45Z" fill="black"/>
<path d="M987.039 45.18C986.899 40.14 986.319 34.86 985.299 29.47C983.909 22.13 979.709 15.95 972.809 11.12C967.309 7.25999 960.859 4.63999 953.099 3.08999C944.409 1.35999 935.299 0.48999 926.039 0.48999C918.209 0.48999 910.009 1.11999 901.659 2.34999C891.529 3.84999 883.57 7.02999 877.32 12.06C868.88 18.86 860.46 25.93 852.32 32.77L851.96 33.07C847.1 37.15 843.99 42.11 842.71 47.8C841.72 52.21 840.8 56.95 840.75 61.79C840.6 76.95 840.63 92.35 840.65 107.25C840.65 111.55 840.669 115.85 840.669 120.16C840.669 122.19 840.77 124.17 840.96 126.07C842.61 142.55 851.089 154.19 866.169 160.65C868.849 161.8 871.29 162.66 873.64 163.28C882.73 165.7 892.409 166.92 902.419 166.92C910.829 166.92 919.499 166.1 928.909 164.4C937.969 162.77 945.149 159.71 950.849 155.06C959.329 148.14 967.789 140.96 975.729 134.2C980.969 129.74 984.21 124.28 985.34 117.98C986.36 112.31 986.91 107.33 987.03 102.76C987.21 95.94 987.17 89.03 987.14 82.35C987.13 79.6 987.109 76.76 987.109 73.97C987.109 71.18 987.13 68.32 987.14 65.57C987.18 58.89 987.22 51.99 987.03 45.17L987.039 45.18ZM952.38 6.73999C952.35 6.73999 952.319 6.72999 952.289 6.71999C952.319 6.71999 952.35 6.72999 952.38 6.73999ZM926.03 4.19999C926.23 4.19999 926.44 4.19999 926.64 4.19999C926.1 4.19999 925.57 4.19999 925.03 4.19999C925.36 4.19999 925.7 4.18999 926.03 4.18999V4.19999ZM902.419 163.24C902.249 163.24 902.079 163.24 901.919 163.24C902.499 163.24 903.079 163.24 903.659 163.24C903.249 163.24 902.829 163.26 902.419 163.26V163.24ZM981.539 103.19C981.529 106.57 981.219 109.97 980.739 113.32C979.329 123.25 973.9 130.3 964.96 134.72C958.52 137.9 951.65 139.59 944.57 140.43C929.48 142.22 914.4 142.25 899.45 139.2C896.14 138.53 892.89 137.48 889.71 136.34C876.78 131.69 870.08 122.25 869.63 108.69C869.25 97.13 869.549 85.55 869.549 73.98C869.509 73.98 869.459 73.98 869.419 73.98C869.419 63.95 869.34 53.92 869.46 43.89C869.5 40.36 869.829 36.8 870.429 33.32C872.039 23.99 877.38 17.38 885.75 13.12C892.73 9.56999 900.25 7.83999 907.94 7.04999C922.57 5.52999 937.189 5.48999 951.679 8.51999C954.239 9.04999 956.77 9.78999 959.25 10.62C973.28 15.28 980.67 25.03 981.45 39.79C981.54 41.48 981.57 43.18 981.57 44.88C981.57 64.32 981.609 83.76 981.539 103.2V103.19Z" fill="black"/>
<path d="M838.52 31.03C838.48 30.86 838.44 30.69 838.4 30.52C835.88 19.67 829.2 11.9 819.09 8.04C814.43 6.26 808.31 4.2 802.24 4.04C780.33 3.44 758.07 3.41 736.54 3.38H736.46H736.45C733.48 3.38 730.16 4.56 727.8 6.45C722.57 10.64 717.39 15.04 712.39 19.3C710.21 21.15 707.96 23.07 705.74 24.93C702.96 27.27 701.45 30.32 701.26 34.01C701.16 35.87 701.16 37.71 701.16 39.29C701.16 74.93 701.16 110.56 701.16 146.2C701.16 146.7 701.16 147.19 701.16 147.69C701.16 149.06 701.14 150.48 701.2 151.91C701.32 154.82 701.8 158.49 704.44 161.07C707.11 163.68 710.8 164.04 713.73 164.07C716.15 164.09 718.78 164.1 722.01 164.1C723.81 164.1 725.6 164.1 727.4 164.1C729.19 164.1 730.98 164.1 732.78 164.1C735.62 164.1 737.95 164.1 740.12 164.13H740.28C744.25 164.13 747.62 162.9 750.59 160.38C756.16 155.65 763.53 149.44 771.17 143.32C774.79 140.42 776.61 136.62 776.59 132.02C776.59 130.47 776.59 128.9 776.59 127.26C777.3 127.19 777.98 127.13 778.66 127.07C790.02 125.99 799.24 122.22 806.85 115.56C813.02 110.16 819.51 104.88 825.79 99.77L826.66 99.06C833.97 93.11 838.15 85.67 839.08 76.95C840.59 62.9 840.58 48.35 839.06 33.72C838.96 32.74 838.74 31.85 838.55 31.06L838.52 31.03ZM704.88 151.74C704.84 150.82 704.83 149.89 704.83 148.96C704.83 149.89 704.83 150.81 704.88 151.74C704.9 152.14 704.92 152.52 704.95 152.88C704.92 152.51 704.89 152.13 704.88 151.74ZM721.99 160.39C721.84 160.39 721.69 160.39 721.53 160.39C723.19 160.39 724.84 160.39 726.5 160.39C725 160.39 723.49 160.39 721.99 160.39ZM802.13 7.74C803.12 7.77 804.1 7.85 805.1 7.98C804.11 7.85 803.12 7.77 802.13 7.74C796.66 7.59 791.19 7.48 785.71 7.39C791.18 7.48 796.65 7.59 802.13 7.74ZM736.44 7.08H736.45C736.31 7.08 736.16 7.09 736.01 7.1C736.15 7.1 736.3 7.08 736.44 7.08ZM740.25 160.4C740.25 160.4 740.16 160.4 740.12 160.4C740.35 160.4 740.56 160.39 740.78 160.38C740.6 160.38 740.43 160.4 740.25 160.4ZM772.85 128.07C772.85 129.41 772.85 130.71 772.85 132.01C772.85 130.71 772.85 129.42 772.85 128.07ZM829.47 90.95C830.06 90.2 830.62 89.43 831.13 88.64C830.62 89.43 830.07 90.21 829.47 90.95ZM834.03 72.2C833.8 76.82 832.07 81.58 830.1 85.85C825.67 95.41 817.2 99.71 807.27 101.08C800.88 101.96 794.38 102.11 787.92 102.35C782.55 102.55 777.18 102.39 771.03 102.39C771.03 106.63 771.03 110.16 771.03 113.68C771.03 119.7 771.09 125.71 771.01 131.73C770.93 137.21 769.26 138.86 763.72 138.9C755.24 138.96 746.75 138.94 738.27 138.91C731.54 138.89 730.13 137.5 730.13 130.76C730.11 99.91 730.12 69.05 730.12 38.2C730.12 30.95 730.08 23.7 730.13 16.45C730.17 10.52 731.64 8.73 737.38 8.75C758.81 8.83 780.25 9.02 801.67 9.41C805.47 9.48 809.34 10.39 813.01 11.46C825.26 15.03 833.21 24.9 834.07 38.91C834.75 49.97 834.59 61.12 834.03 72.2Z" fill="black"/>
<path d="M275.89 28.33C275.89 27.28 276.36 25.83 274.06 25.36C274.06 27.24 274.06 28.9 274.06 30.57C274.06 47.7 273.85 64.83 274.13 81.95C274.33 94.03 271 105.44 268.5 117.02C267.89 119.84 266.27 120.65 263.41 120.74C260.44 120.84 259.02 119.08 257.85 116.7C252.79 106.47 247.68 96.27 242.54 86.08C241.5 84.02 240.32 82.03 239.14 80.04C237.76 77.72 235.63 76.9 232.99 76.57C226.98 75.82 223 78.04 220.47 83.62C217.54 90.08 214.19 96.34 211.01 102.68C208.66 107.37 206.34 112.07 203.94 116.73C202.12 120.26 200.69 121.02 197.46 120.7C194.07 120.37 193.4 117.8 192.81 115.2C191.79 110.69 190.97 106.13 189.84 101.64C188.25 95.3 187.81 88.88 187.83 82.37C187.89 65.09 187.85 47.81 187.85 30.53V25.62C187.34 25.59 186.83 25.56 186.33 25.53C186.22 26.81 186 28.08 186 29.36C185.98 46.8 186.22 64.24 185.91 81.67C185.69 93.91 188.96 105.47 191.57 117.19C192.23 120.13 193.85 122.2 197.13 122.55C201.03 122.97 203.27 121.89 205.16 118.5C205.76 117.42 206.24 116.28 206.79 115.18C212 104.68 217.24 94.2 222.43 83.69C224.15 80.21 226.61 78.26 230.74 78.21C235.03 78.16 237.73 80.05 239.45 83.78C240.03 85.04 240.72 86.25 241.33 87.49C246.4 97.72 251.43 107.96 256.54 118.16C258.41 121.9 260.78 123 264.8 122.53C268.34 122.11 269.7 119.66 270.43 116.64C271.37 112.74 272.38 108.85 273.05 104.91C274.11 98.69 275.44 92.46 275.69 86.19C276.14 74.79 275.89 63.36 275.91 51.94C275.93 44.07 275.93 36.2 275.88 28.33H275.89Z" fill="black"/>
<path d="M101.46 77.23C100.03 76.68 98.5095 76.32 97.0095 76.01C84.9295 73.52 72.8295 71.1 60.7495 68.59C53.5395 67.09 51.0595 64.12 50.9295 56.8C50.8395 51.55 50.7995 46.3 50.9595 41.06C51.1495 34.75 54.8395 29.75 60.8695 27.99C63.6295 27.18 66.6395 26.97 69.5395 26.94C80.6495 26.83 91.7595 26.91 102.87 26.88C104.27 26.88 105.66 26.66 107.06 26.54C107.05 26.17 107.03 25.79 107.02 25.42C105.6 25.33 104.18 25.16 102.76 25.16C93.8095 25.14 84.8595 25.14 75.9095 25.16C72.3595 25.16 68.7995 25.06 65.2695 25.28C56.5995 25.82 49.9395 31.39 49.3495 39.27C48.8395 46.02 49.0495 52.84 49.3195 59.62C49.5195 64.81 52.5695 68.12 57.5295 69.64C58.7095 70 59.9095 70.31 61.1095 70.56C67.4595 71.86 73.8095 73.12 80.1595 74.41C86.0495 75.61 91.9695 76.72 97.8295 78.07C104.98 79.72 107.97 82.86 108.55 90.06C108.99 95.42 109 100.86 108.64 106.23C108.15 113.33 103.96 117.85 97.2395 119.79C94.6195 120.54 91.7695 120.71 89.0195 120.73C76.2095 120.82 63.3995 120.77 50.5995 120.78C49.1695 120.78 47.7295 120.87 46.2995 120.92C46.2995 121.49 46.2795 122.07 46.2695 122.64H50.7295C63.0795 122.64 75.4195 122.65 87.7695 122.63C89.9295 122.63 92.0995 122.61 94.2395 122.36C103.8 121.25 110.06 114.91 110.55 105.29C110.84 99.61 110.6 93.87 110.19 88.19C109.8 82.73 106.52 79.17 101.49 77.24L101.46 77.23Z" fill="black"/>
<path d="M379.93 120.59C378.89 109.52 379.36 30.39 380.57 26.69H406.56C406.56 26.38 406.56 26.08 406.56 25.77C402.24 24.74 353.66 24.91 349.64 26.21C354.78 27.49 359.32 26.68 363.79 26.88C368.34 27.09 372.92 26.6 377.36 27.15C378.35 35.79 377.96 117.22 376.87 120.75H367.75C364.82 120.75 361.88 120.61 358.96 120.79C356.08 120.96 353.03 120 349.49 121.89C350.83 122.28 351.35 122.57 351.87 122.57C370.05 122.48 388.23 122.37 406.41 122.25C406.5 122.25 406.63 122.06 406.65 121.94C406.68 121.8 406.63 121.64 406.55 120.88C397.71 120.79 388.77 120.69 379.94 120.59H379.93Z" fill="black"/>
<path d="M483.42 30.78C483.42 55.15 483.42 79.52 483.42 103.9C483.42 109.14 483.39 114.39 483.46 119.63C483.47 120.51 483.89 121.38 484.12 122.25C484.48 122.21 484.85 122.17 485.21 122.13V80.35H499.11C503.74 80.35 508.37 80.47 512.99 80.32C517.29 80.18 521.67 80.99 525.89 79.81C525.89 79.48 525.88 79.15 525.87 78.82H485.55V26.9H490.84C505.95 26.9 521.07 26.92 536.18 26.86C537.65 26.86 539.48 27.58 540.81 25.47H483.41V30.79L483.42 30.78Z" fill="black"/>
<path d="M606.8 25.15C605.59 25.15 604.37 25.33 603.16 25.45C603.06 25.45 602.93 25.63 602.9 25.74C602.86 25.88 602.92 26.04 603 26.89H614.7C618.87 26.89 623.03 26.84 627.2 26.9C631.15 26.96 635.13 26.62 639.32 27.17C639.32 32.12 639.32 36.59 639.32 41.05V95.23C639.32 99.86 639.2 104.5 639.36 109.12C639.51 113.42 638.66 117.81 639.89 122.03C640.24 122.03 640.58 122.05 640.93 122.05C641 120.32 641.13 118.59 641.13 116.87C641.14 88.78 641.13 60.69 641.15 32.59C641.15 30.8 641.26 29.01 641.32 26.88C643.56 26.88 645.24 26.88 646.92 26.88C656.03 26.88 665.13 26.91 674.24 26.84C675.41 26.84 677.04 27.51 677.85 25.12C653.98 25.12 630.4 25.12 606.82 25.13L606.8 25.15Z" fill="black"/>
<path d="M1114.01 41.7C1113.04 35.42 1109.52 31.02 1103.77 28.37C1099.22 26.27 1094.43 25.23 1089.43 25.22C1074.94 25.18 1060.44 25.16 1045.95 25.15C1044.91 25.15 1043.87 25.34 1042.58 25.47V122.07C1043.28 122.29 1043.71 122.54 1044.13 122.53C1060.32 122.48 1076.51 122.63 1092.69 122.19C1096.85 122.08 1101.14 120.52 1105.06 118.88C1110.22 116.71 1113.2 112.39 1114.01 106.8C1114.45 103.76 1114.85 100.68 1114.86 97.61C1114.94 81.88 1114.94 66.15 1114.86 50.42C1114.84 47.51 1114.45 44.58 1114 41.7H1114.01ZM1113.05 96.67C1113.03 100.04 1112.68 103.44 1112.07 106.76C1111.16 111.76 1108.36 115.73 1103.59 117.56C1099.76 119.03 1095.63 120.41 1091.6 120.51C1076.51 120.88 1061.4 120.7 1046.29 120.71C1045.71 120.71 1045.13 120.47 1044.31 120.29V27.27C1045.57 27.13 1046.6 26.92 1047.64 26.92C1061.66 26.93 1075.69 26.97 1089.71 27.02C1094.4 27.04 1098.88 28.04 1103.11 30.11C1108.01 32.51 1111.11 36.39 1112.07 41.74C1112.67 45.06 1113.03 48.46 1113.05 51.83C1113.15 66.78 1113.15 81.73 1113.05 96.68V96.67Z" fill="black"/>
<path d="M942.02 24.42C930.72 22.23 919.32 22.21 908.02 24.5C895.39 27.06 888.98 35.1 888.91 47.99C888.87 56.62 888.91 65.25 888.91 73.89C888.91 78.21 888.91 82.52 888.9 86.84C888.9 91.16 888.9 95.47 888.92 99.79C888.98 112.79 895.27 120.7 907.91 123.36C919.36 125.76 930.89 125.74 942.34 123.39C955.16 120.76 961.79 112.8 961.92 99.69C962.08 82.58 962.07 65.47 961.92 48.36C961.81 35.09 955.04 26.95 942.02 24.43V24.42ZM960.05 100.42C959.98 111.17 954.22 118.62 943.76 121.15C931.6 124.1 919.29 124.12 907.11 121.26C896.68 118.81 891.09 111.86 890.8 101.11C890.55 92.02 890.75 82.93 890.75 73.83C890.72 73.83 890.69 73.83 890.66 73.83C890.66 66.28 890.66 58.73 890.66 51.17C890.66 49.32 890.7 47.47 890.81 45.63C891.34 36.64 896.41 29.63 905.14 27.28C910.73 25.78 916.64 25.14 922.44 24.79C929.83 24.34 937.24 24.8 944.42 26.92C954.41 29.86 959.97 36.91 960.05 47.24C960.18 64.96 960.17 82.69 960.05 100.41V100.42Z" fill="black"/>
<path d="M803.57 27.3001C799.35 26.0401 794.819 25.3401 790.409 25.2401C778.529 24.9601 766.64 25.1401 754.76 25.1601C753.41 25.1601 752.07 25.3201 750.52 25.4301V122.1L751.93 122.16C751.98 110.59 752.03 99.0301 752.09 87.1501H757.77C767.49 87.1501 777.22 87.3601 786.94 87.0701C792.3 86.9101 797.77 86.4601 802.94 85.1601C809.92 83.4101 814.48 78.5601 815.57 71.2801C817.07 61.3101 817.08 51.2601 815.56 41.2901C814.49 34.3001 810.35 29.3401 803.57 27.3101V27.3001ZM813.76 70.9601C812.83 77.1301 809.05 81.4001 803.12 83.1901C799.33 84.3301 795.28 85.0601 791.33 85.1401C779.16 85.3901 766.969 85.2401 754.799 85.2301C754.059 85.2301 753.32 85.0601 752.21 84.9301V27.3501C753.21 27.1801 754.08 26.9201 754.94 26.9201C767.58 26.9201 780.219 26.8501 792.859 27.0901C796.189 27.1501 799.599 27.9001 802.799 28.9001C808.899 30.8201 812.739 35.1901 813.729 41.4801C815.269 51.2701 815.25 61.1501 813.77 70.9601H813.76Z" fill="black"/>
<path d="M1087.2 43.68C1079.55 43.39 1071.88 43.59 1063.88 43.59V104.52C1071.85 104.52 1079.52 104.73 1087.17 104.43C1090.8 104.29 1092.58 102.13 1093.28 98.51C1093.54 97.16 1093.55 95.75 1093.55 94.37C1093.57 80.64 1093.56 66.92 1093.55 53.19C1093.55 52.11 1093.55 51.02 1093.4 49.96C1092.83 46.06 1091.03 43.83 1087.18 43.69L1087.2 43.68Z" fill="black"/>
<path d="M933.08 42C928.22 41.52 923.239 41.5 918.379 41.95C912.639 42.47 910.399 45.37 910.369 51.21C910.329 58.91 910.359 66.61 910.359 74.31C910.359 82.01 910.299 89.71 910.379 97.41C910.429 102.57 912.459 105.39 917.549 105.95C922.699 106.51 927.99 106.55 933.15 106.03C938.5 105.49 940.74 102.68 940.78 97.35C940.89 81.8 940.88 66.24 940.78 50.69C940.75 45.47 938.3 42.53 933.08 42.02V42ZM912.129 68.96C912.129 67.9 912.129 66.77 912.129 65.53C912.129 66.77 912.129 67.89 912.129 68.96ZM912.129 64.25C912.299 64.39 912.459 64.52 912.609 64.64C912.449 64.52 912.289 64.39 912.129 64.25ZM915.619 103.22C915.299 103.07 915.019 102.91 914.749 102.75C915.009 102.91 915.299 103.07 915.619 103.22Z" fill="black"/>
<path d="M787.34 42.69C782.88 42.54 778.41 42.61 773.95 42.66C772.95 42.67 771.95 42.99 770.92 43.18V69.79C776.86 69.79 782.24 69.92 787.61 69.75C792.52 69.6 794.74 67.67 795.16 62.79C795.53 58.51 795.52 54.16 795.17 49.88C794.76 44.81 792.47 42.86 787.33 42.69H787.34Z" fill="black"/>
</g>
<defs>
<clipPath id="clip0_13183_14209">
<rect width="1140.52" height="167.44" fill="white"/>
</clipPath>
</defs>
</svg>
