<svg width="29" height="35" viewBox="0 0 29 35" fill="none" xmlns="http://www.w3.org/2000/svg">
<path d="M4.47363 15.24L5.97363 4.73999L6.97363 4.23999L7.97363 3.23999L9.47363 2.23999L11.4736 1.23999H23.4736C25.8736 1.23999 26.4736 1.90666 26.4736 2.23999V4.23999V7.73999L25.9736 8.73999H15.4736V9.23999L14.9736 9.73999L15.4736 10.74L18.4736 11.24L24.9736 12.74L26.9736 14.24C26.9736 14.5733 27.4736 15.8279 27.4736 18.74C27.4736 21.74 27.6403 24.5733 26.9736 25.74L23.9736 28.24L16.9736 30.74L7.97363 32.74L4.97363 31.24L5.47363 27.24V20.24L4.47363 15.24Z" fill="white"/>
<path d="M0.657094 26.0289L0.647291 26.051L0.639658 26.0739C0.541674 26.3678 0.5 26.7034 0.5 27.068V31.514C0.5 32.1843 0.65186 32.785 1.06445 33.1976C1.47703 33.6101 2.07772 33.762 2.748 33.762H14.756C16.0633 33.762 17.2549 33.5924 18.3252 33.2453C19.39 32.9251 20.3109 32.4539 21.0774 31.8244L21.0774 31.8244L21.081 31.8214L25.9808 27.7192C25.9812 27.7188 25.9817 27.7185 25.9821 27.7181C26.7781 27.059 27.3829 26.2473 27.7936 25.289C28.2046 24.3298 28.404 23.2476 28.404 22.052V18.062C28.404 15.9436 27.8955 14.2809 26.7756 13.1865C25.9383 12.3287 24.8885 11.7017 23.6413 11.2958L26.3241 9.06011L26.3241 9.06015L26.3294 9.05563C26.5715 8.84809 26.7458 8.58854 26.8506 8.28692C26.9809 7.98338 27.036 7.63898 27.036 7.27V2.748C27.036 2.07771 26.8841 1.47703 26.4716 1.06445C26.059 0.651859 25.4583 0.5 24.788 0.5H14.148C12.8165 0.5 11.6121 0.669333 10.5409 1.01672C9.47931 1.33582 8.57079 1.79328 7.82816 2.39838L7.82813 2.39834L7.82275 2.40286L2.88275 6.54486L2.88273 6.54484L2.8786 6.54837C2.10923 7.20784 1.51957 8.01838 1.11043 8.97304L1.57 9.17L1.11043 8.97304C0.699361 9.93219 0.5 11.0144 0.5 12.21V16.2C0.5 18.0851 0.89162 19.6152 1.74369 20.7229L1.74805 20.7285L1.75257 20.7341C2.43328 21.5685 3.30185 22.204 4.34556 22.6456L1.2104 25.2791L1.21039 25.2791L1.2066 25.2824C0.969061 25.486 0.786501 25.7378 0.657094 26.0289ZM15.8805 11.4913L21.5253 12.249C21.526 12.2491 21.5267 12.2492 21.5273 12.2493C23.2314 12.493 24.568 13.0473 25.569 13.8854C26.4978 14.663 27.024 16.007 27.024 18.062V22.052C27.024 24.0845 26.3611 25.5902 25.0786 26.6436C23.8017 27.6881 22.0146 28.24 19.658 28.24H7.65C7.25474 28.24 7.04601 28.1608 6.94099 28.081C6.86123 27.976 6.782 27.7673 6.782 27.372V22.926C6.782 22.4924 6.87721 22.3159 6.93955 22.2536C7.03625 22.1569 7.23657 22.058 7.65 22.058H17.872C18.3056 22.058 18.7175 21.9198 18.9912 21.5577C19.2388 21.2379 19.36 20.8636 19.36 20.456C19.36 19.9796 19.2659 19.5245 18.9826 19.191C18.7233 18.8556 18.3409 18.7019 17.9269 18.6668L12.2427 17.871C12.2425 17.871 12.2422 17.871 12.242 17.8709C10.5386 17.6275 9.2023 17.0738 8.20122 16.2365C7.29652 15.4596 6.782 14.1147 6.782 12.058V8.068C6.782 6.03205 7.43442 4.54114 8.68862 3.51498L8.68864 3.515L8.69278 3.51154C9.96879 2.44433 11.7665 1.88 14.148 1.88H24.788C25.2079 1.88 25.3757 1.98152 25.4403 2.05418L25.4598 2.07616L25.4818 2.0957C25.5545 2.1603 25.656 2.32811 25.656 2.748V7.27C25.656 7.68343 25.5571 7.88375 25.4604 7.98045C25.3981 8.04279 25.2216 8.138 24.788 8.138H15.934C15.4797 8.138 15.074 8.30164 14.7883 8.66163C14.5212 8.97279 14.408 9.3606 14.408 9.778C14.408 10.2022 14.5243 10.5931 14.7793 10.921C15.0528 11.2726 15.4393 11.454 15.8805 11.4913ZM23.236 4.8V4.3H22.736H14.3C13.0375 4.3 11.9709 4.65913 11.1514 5.41827C10.3306 6.15286 9.924 7.11447 9.924 8.258V11.374C9.924 12.4473 10.1275 13.3426 10.6784 13.8936L10.6895 13.9046L10.7012 13.9149C11.2087 14.3627 11.8384 14.6496 12.5687 14.7905L20.5792 16.4229C20.58 16.4231 20.5808 16.4232 20.5817 16.4234C21.2059 16.5576 21.6607 16.8164 21.9823 17.1782L21.9921 17.1892L22.0024 17.1996C22.2825 17.4796 22.502 18.1088 22.502 19.278V21.482C22.502 22.3634 22.2001 23.064 21.5983 23.6231C21.0283 24.1509 20.2363 24.44 19.164 24.44H9.702H9.202V24.94V25.32V25.82H9.702H19.164C20.5504 25.82 21.7095 25.437 22.5832 24.6215L22.5832 24.6216L22.5895 24.6155C23.4528 23.781 23.882 22.724 23.882 21.482V19.278C23.882 17.9318 23.63 16.8469 22.9802 16.1931C22.421 15.6064 21.7059 15.2334 20.859 15.0639C20.8587 15.0638 20.8584 15.0638 20.8581 15.0637L12.8418 13.4301L12.8348 13.4286L12.8277 13.4274C12.3278 13.3405 11.959 13.1519 11.6896 12.8824C11.4788 12.6717 11.304 12.2218 11.304 11.374V8.258C11.304 7.50637 11.5656 6.90675 12.0925 6.42197C12.613 5.94311 13.3304 5.68 14.3 5.68H22.736H23.236V5.18V4.8Z" stroke="white"/>
<path d="M2.748 33.262C2.14 33.262 1.69667 33.1227 1.418 32.844C1.13933 32.5653 1 32.122 1 31.514V27.068C1 26.7387 1.038 26.46 1.114 26.232C1.21533 26.004 1.35467 25.814 1.532 25.662L5.332 22.47C3.98933 22.0647 2.92533 21.3807 2.14 20.418C1.38 19.43 1 18.024 1 16.2V12.21C1 11.07 1.19 10.0567 1.57 9.17C1.95 8.28333 2.49467 7.536 3.204 6.928L8.144 2.786C8.828 2.22867 9.67667 1.798 10.69 1.494C11.7033 1.16467 12.856 1 14.148 1H24.788C25.396 1 25.8393 1.13933 26.118 1.418C26.3967 1.69667 26.536 2.14 26.536 2.748V7.27C26.536 7.59933 26.4853 7.878 26.384 8.106C26.308 8.334 26.1813 8.524 26.004 8.676L22.584 11.526C24.18 11.8807 25.4593 12.552 26.422 13.54C27.41 14.5027 27.904 16.01 27.904 18.062V22.052C27.904 23.192 27.714 24.2053 27.334 25.092C26.954 25.9787 26.3967 26.726 25.662 27.334L20.76 31.438C20.0507 32.0207 19.1893 32.464 18.176 32.768C17.1627 33.0973 16.0227 33.262 14.756 33.262H2.748ZM19.658 28.74C22.09 28.74 24.0027 28.17 25.396 27.03C26.8147 25.8647 27.524 24.2053 27.524 22.052V18.062C27.524 15.934 26.9793 14.414 25.89 13.502C24.8007 12.59 23.3693 12.0073 21.596 11.754L15.934 10.994C15.6047 10.9687 15.3513 10.842 15.174 10.614C14.9967 10.386 14.908 10.1073 14.908 9.778C14.908 9.44867 14.9967 9.18267 15.174 8.98C15.3513 8.752 15.6047 8.638 15.934 8.638H24.788C25.2693 8.638 25.6113 8.53667 25.814 8.334C26.042 8.106 26.156 7.75133 26.156 7.27V2.748C26.156 2.26667 26.042 1.92467 25.814 1.722C25.6113 1.494 25.2693 1.38 24.788 1.38H14.148C11.6907 1.38 9.76533 1.96267 8.372 3.128C6.97867 4.268 6.282 5.91467 6.282 8.068V12.058C6.282 14.186 6.814 15.706 7.878 16.618C8.96733 17.53 10.3987 18.1127 12.172 18.366L17.872 19.164C18.2013 19.1893 18.442 19.3033 18.594 19.506C18.7713 19.7087 18.86 20.0253 18.86 20.456C18.86 20.76 18.7713 21.026 18.594 21.254C18.442 21.4567 18.2013 21.558 17.872 21.558H7.65C7.16867 21.558 6.814 21.672 6.586 21.9C6.38333 22.1027 6.282 22.4447 6.282 22.926V27.372C6.282 27.8533 6.38333 28.208 6.586 28.436C6.814 28.6387 7.16867 28.74 7.65 28.74H19.658ZM22.736 4.8V5.18H14.3C13.236 5.18 12.3873 5.47133 11.754 6.054C11.1207 6.63667 10.804 7.37133 10.804 8.258V11.374C10.804 12.2607 10.9813 12.8813 11.336 13.236C11.6907 13.5907 12.1593 13.8187 12.742 13.92L20.76 15.554C21.52 15.706 22.1407 16.0353 22.622 16.542C23.1287 17.0487 23.382 17.9607 23.382 19.278V21.482C23.382 22.5967 23.002 23.5213 22.242 24.256C21.482 24.9653 20.456 25.32 19.164 25.32H9.702V24.94H19.164C20.3293 24.94 21.254 24.6233 21.938 23.99C22.6473 23.3313 23.002 22.4953 23.002 21.482V19.278C23.002 18.0873 22.7867 17.2767 22.356 16.846C21.9507 16.39 21.3933 16.086 20.684 15.934L12.666 14.3C12.0073 14.1733 11.4627 13.92 11.032 13.54C10.6267 13.1347 10.424 12.4127 10.424 11.374V8.258C10.424 7.24467 10.7787 6.42133 11.488 5.788C12.1973 5.12933 13.1347 4.8 14.3 4.8H22.736Z" fill="black"/>
</svg>
