<svg width="28" height="28" viewBox="0 0 28 28" fill="none" xmlns="http://www.w3.org/2000/svg">
<path d="M14 0C17.713 0 21.274 1.475 23.8995 4.10051C26.525 6.72601 28 10.287 28 14C28 17.713 26.525 21.274 23.8995 23.8995C21.274 26.525 17.713 28 14 28C10.287 28 6.72601 26.525 4.10051 23.8995C1.475 21.274 0 17.713 0 14C0 10.287 1.475 6.72601 4.10051 4.10051C6.72601 1.475 10.287 0 14 0ZM14 1.75C10.7511 1.75 7.63526 3.04062 5.33794 5.33794C3.04062 7.63526 1.75 10.7511 1.75 14C1.75 17.2489 3.04062 20.3647 5.33794 22.6621C7.63526 24.9594 10.7511 26.25 14 26.25C17.2489 26.25 20.3647 24.9594 22.6621 22.6621C24.9594 20.3647 26.25 17.2489 26.25 14C26.25 10.7511 24.9594 7.63526 22.6621 5.33794C20.3647 3.04062 17.2489 1.75 14 1.75ZM20.9545 9.3485C21.0192 9.5426 21.0138 9.75322 20.9393 9.94377C20.8648 10.1343 20.7259 10.2927 20.5468 10.3915L20.4015 10.4545L15.75 12.005V16.4832L17.4545 21.5985C17.5192 21.7926 17.5138 22.0032 17.4393 22.1938C17.3648 22.3843 17.2259 22.5427 17.0468 22.6415L16.9015 22.7045C16.7074 22.7692 16.4968 22.7638 16.3062 22.6893C16.1157 22.6148 15.9573 22.4759 15.8585 22.2968L15.7955 22.1515L14.0455 16.9015L14 16.625L13.9545 16.9015L12.2045 22.1515C12.1365 22.36 11.9927 22.5353 11.8016 22.6428C11.6104 22.7503 11.3859 22.7821 11.1724 22.7319C10.959 22.6818 10.7721 22.5533 10.6489 22.3719C10.5256 22.1905 10.475 21.9694 10.507 21.7525L10.5455 21.5985L12.25 16.478V12.005L7.5985 10.4545C7.39002 10.3865 7.21468 10.2427 7.10719 10.0516C6.9997 9.86042 6.96789 9.63589 7.01807 9.42243C7.06824 9.20896 7.19674 9.02211 7.37813 8.89888C7.55951 8.77564 7.78056 8.72501 7.9975 8.757L8.1515 8.7955L13.2703 10.5H14.728L19.8485 8.7955C20.0685 8.72234 20.3085 8.73949 20.5159 8.84317C20.7233 8.94686 20.881 9.1286 20.9545 9.3485ZM14 5.25C14.4641 5.25 14.9092 5.43437 15.2374 5.76256C15.5656 6.09075 15.75 6.53587 15.75 7C15.75 7.46413 15.5656 7.90925 15.2374 8.23744C14.9092 8.56563 14.4641 8.75 14 8.75C13.5359 8.75 13.0908 8.56563 12.7626 8.23744C12.4344 7.90925 12.25 7.46413 12.25 7C12.25 6.53587 12.4344 6.09075 12.7626 5.76256C13.0908 5.43437 13.5359 5.25 14 5.25Z" fill="black"/>
</svg>
