<svg width="28" height="28" viewBox="0 0 28 28" fill="none" xmlns="http://www.w3.org/2000/svg">
    <path
        d="M9.1801 18.0366L8.16667 25.6667L13.5198 22.4548C13.6944 22.35 13.7817 22.2977 13.8749 22.2772C13.9573 22.2591 14.0427 22.2591 14.1251 22.2772C14.2183 22.2977 14.3056 22.35 14.4802 22.4548L19.8333 25.6667L18.8206 18.0333M19.1635 4.95703C19.3437 5.3928 19.6896 5.73918 20.125 5.92002L21.6521 6.55257C22.0879 6.73308 22.4341 7.07933 22.6146 7.51514C22.7951 7.95094 22.7951 8.44061 22.6146 8.87642L21.9826 10.4024C21.802 10.8384 21.8017 11.3286 21.9831 11.7644L22.6141 13.2899C22.7036 13.5058 22.7497 13.7371 22.7497 13.9708C22.7497 14.2045 22.7037 14.4358 22.6143 14.6517C22.5249 14.8676 22.3938 15.0637 22.2286 15.2289C22.0633 15.3941 21.8671 15.5252 21.6512 15.6145L20.1253 16.2466C19.6896 16.4268 19.3432 16.7726 19.1623 17.2081L18.5298 18.7352C18.3493 19.171 18.0031 19.5173 17.5673 19.6978C17.1315 19.8783 16.6419 19.8783 16.2061 19.6978L14.6801 19.0657C14.2443 18.8856 13.7548 18.886 13.3193 19.0667L11.7923 19.6984C11.3567 19.8785 10.8675 19.8783 10.4321 19.6979C9.99664 19.5176 9.6506 19.1717 9.46996 18.7364L8.83725 17.2089C8.65708 16.7731 8.31123 16.4267 7.87574 16.2459L6.34871 15.6133C5.91311 15.4329 5.56697 15.0868 5.3864 14.6513C5.20582 14.2157 5.20557 13.7263 5.38572 13.2906L6.01778 11.7646C6.19785 11.3287 6.19748 10.8393 6.01676 10.4037L5.3856 8.87552C5.29612 8.65967 5.25004 8.4283 5.25 8.19464C5.24996 7.96097 5.29597 7.72959 5.38538 7.51371C5.4748 7.29784 5.60588 7.10169 5.77112 6.93649C5.93637 6.77129 6.13255 6.64028 6.34844 6.55093L7.87438 5.91884C8.30976 5.73881 8.65592 5.39339 8.83689 4.95839L9.46941 3.43129C9.64992 2.99549 9.99615 2.64924 10.4319 2.46872C10.8677 2.28821 11.3574 2.28821 11.7932 2.46872L13.3191 3.10081C13.7549 3.28088 14.2444 3.28052 14.6799 3.09979L16.2076 2.4697C16.6433 2.28929 17.1329 2.28933 17.5686 2.46981C18.0043 2.65029 18.3505 2.99644 18.531 3.43213L19.1637 4.95967L19.1635 4.95703Z"
        stroke="currentColor" stroke-width="2" stroke-linecap="round" stroke-linejoin="round" />
</svg>