<svg width="24" height="24" viewBox="0 0 24 24" fill="none" xmlns="http://www.w3.org/2000/svg">
<path d="M12.9246 23.6367C11.4412 23.7609 10.0732 23.7311 8.85867 23.5482C7.46071 23.3377 6.31356 22.9279 5.44914 22.3304C4.32711 21.5548 3.99991 20.234 3.90477 19.5157C3.82055 18.8787 3.87794 18.2163 4.07074 17.6002C4.16288 17.3057 4.13044 16.9955 3.97934 16.7267C3.82828 16.4579 3.57952 16.2677 3.27889 16.1911C2.64156 16.0287 2.04877 15.6826 1.56461 15.1902C0.846878 14.4606 0.400328 13.4615 0.307108 12.3768C0.213887 11.2921 0.483997 10.2318 1.06756 9.39128C1.69192 8.49233 2.63597 7.92705 3.65758 7.84042L3.67696 7.83883C4.02019 7.8101 4.3272 7.6316 4.51928 7.34914C4.70842 7.071 4.75989 6.7278 4.66056 6.40759C4.55871 6.0793 4.49185 5.73658 4.46185 5.38894C4.36863 4.30415 4.63869 3.24389 5.2223 2.40362C5.84661 1.50445 6.79076 0.93907 7.81264 0.85241L7.81594 0.852138C8.8366 0.766692 9.86259 1.16554 10.6309 1.94642C10.6513 1.96718 10.6715 1.98813 10.6914 2.00931C10.8257 2.15179 11.0144 2.22411 11.2092 2.20779C11.4044 2.19144 11.5785 2.08839 11.6867 1.92507C11.7031 1.90033 11.7197 1.87584 11.7366 1.85154C12.361 0.95247 13.3049 0.387087 14.3262 0.300501L14.3298 0.300205C15.3506 0.214734 16.3766 0.613482 17.1447 1.39419C17.8626 2.12398 18.3093 3.12313 18.4025 4.20758C18.4323 4.55524 18.425 4.90425 18.3807 5.24493C18.3375 5.5768 18.4465 5.90611 18.6799 6.1484C18.9167 6.39419 19.2487 6.51875 19.591 6.49009L19.6168 6.48786C20.6378 6.40239 21.6638 6.80121 22.4317 7.58209C23.1496 8.31193 23.5963 9.31096 23.6895 10.3952C23.7827 11.4801 23.5127 12.5404 22.9291 13.3807C22.5383 13.9435 22.0171 14.3823 21.4217 14.6498C21.1393 14.7767 20.9186 15.0156 20.8164 15.3052C20.7145 15.5936 20.735 15.9016 20.874 16.1724C21.1387 16.6881 21.2983 17.2449 21.3483 17.8275C21.4015 18.4455 21.3443 19.0571 21.183 19.5965C21.0083 20.1805 20.7176 20.6783 20.319 21.076C19.65 21.7435 18.5634 22.3386 17.1767 22.7968C15.9434 23.2043 14.4755 23.4989 13.0431 23.6264C13.0037 23.63 12.9642 23.6334 12.9246 23.6367Z" fill="#F9FAD1"/>
<path d="M19.8116 17.6882C19.9644 19.4649 18.5967 21.0216 16.7828 21.0933C16.4096 21.1082 16.0464 21.0562 15.706 20.9482C14.8205 20.6666 13.8927 20.5395 12.9665 20.6181L12.7171 20.6389C11.7631 20.7198 10.8364 20.9908 9.98755 21.4305C9.58639 21.6382 9.13223 21.7638 8.64603 21.783C7.0252 21.8466 5.6026 20.6558 5.39087 19.0588C5.25154 18.0056 5.64958 17.0165 6.36609 16.35C7.39568 15.3931 8.06287 14.111 8.3121 12.7323C8.60079 11.1308 9.46287 9.39561 11.8113 9.19673C14.1348 8.99961 15.2816 10.5721 15.8466 12.1041C16.3357 13.4319 17.2486 14.5601 18.4285 15.3507C19.1938 15.8635 19.727 16.7032 19.8116 17.6882Z" fill="#403A19"/>
<path d="M8.76776 21.4899C8.72411 21.4935 8.67972 21.4963 8.63578 21.498C7.16827 21.5556 5.86852 20.4679 5.67682 19.0217C5.55597 18.1081 5.8875 17.1873 6.56359 16.5584C7.60981 15.5859 8.33163 14.2451 8.59595 12.7829C8.75738 11.8873 9.0657 11.1596 9.51235 10.6198C10.0684 9.94772 10.8505 9.56462 11.8368 9.48111L11.8419 9.48068C12.8147 9.39923 13.6425 9.64744 14.3023 10.2185C14.8325 10.6773 15.2617 11.3448 15.578 12.2023C16.084 13.5762 17.0146 14.7468 18.269 15.5874C18.9939 16.0731 19.4523 16.8477 19.5266 17.7126C19.5919 18.4731 19.3551 19.2131 18.8597 19.7963C18.3642 20.3797 17.6695 20.7362 16.9036 20.8003C16.8603 20.8039 16.8162 20.8067 16.7725 20.8084C16.441 20.8216 16.1119 20.7772 15.7945 20.6765C14.8344 20.3712 13.8773 20.2557 12.95 20.3334L12.6941 20.3548C11.7028 20.4388 10.748 20.7156 9.85585 21.1777C9.51786 21.3527 9.15176 21.4577 8.76776 21.4899Z" fill="#F7B925"/>
<path d="M10.7433 5.16086C10.881 6.76341 9.91539 8.15378 8.58657 8.26633C7.25776 8.37919 6.06902 7.1711 5.93103 5.56857C5.7934 3.96634 6.75897 2.57564 8.08812 2.46308C9.41695 2.35054 10.6057 3.5583 10.7433 5.16086Z" fill="#403A19"/>
<path d="M8.55797 7.98222C7.3904 8.07998 6.33944 6.98631 6.21524 5.54425C6.15434 4.8351 6.32435 4.1514 6.69401 3.61916C7.05178 3.104 7.55487 2.79436 8.11053 2.74731C9.28019 2.64938 10.3312 3.74302 10.4551 5.18508C10.516 5.89438 10.346 6.57813 9.9764 7.11032C9.61868 7.62538 9.1157 7.93497 8.56017 7.98203L8.55797 7.98222Z" fill="#F7B925"/>
<path d="M16.9894 4.63177C17.1271 6.23433 16.1615 7.6247 14.8323 7.73759C13.5035 7.85013 12.3148 6.64237 12.1771 5.03981C12.0395 3.43726 13.0051 2.04689 14.3339 1.93402C15.6627 1.82151 16.8518 3.02925 16.9894 4.63177Z" fill="#403A19"/>
<path d="M14.8041 7.45342C13.6361 7.5512 12.5851 6.45756 12.4612 5.01552C12.3373 3.57237 13.1874 2.31752 14.3562 2.21825C15.526 2.12033 16.5772 3.21394 16.7011 4.65598C16.825 6.09913 15.9748 7.354 14.8057 7.45329L14.8041 7.45342Z" fill="#F7B925"/>
<path d="M10.5075 5.19933C10.5691 5.91804 10.3969 6.61051 10.0224 7.14966C9.66021 7.67126 9.15067 7.98478 8.58793 8.03248L8.58591 8.03266C7.85725 8.09366 7.17321 7.69649 6.72656 7.04106C6.93555 7.17059 7.17947 7.25081 7.42342 7.29331C8.30106 7.44605 8.98689 7.29001 9.54761 6.60243C10.2853 5.69791 10.3292 4.61596 10.0339 3.78198C10.2904 4.17957 10.4616 4.66607 10.5075 5.19933Z" fill="#403A19"/>
<path d="M7.24288 4.53696C7.20178 4.80196 7.22874 5.07088 7.28605 5.33441C7.316 5.47209 7.23041 5.60831 7.09228 5.64023C7.09051 5.64065 7.08871 5.64105 7.08694 5.64147C6.93826 5.67584 6.79152 5.57549 6.77194 5.42515C6.72553 5.06873 6.71668 4.7074 6.81334 4.36364C6.92848 3.95312 7.2246 3.57035 7.62694 3.43901C7.6902 3.41835 7.75958 3.44384 7.79517 3.49974C7.83804 3.56708 7.81799 3.65587 7.75056 3.69906C7.47027 3.8786 7.2943 4.20523 7.24288 4.53696Z" fill="#5F4C3A"/>
<path d="M16.7614 4.66954C16.823 5.38826 16.6508 6.08072 16.2763 6.61988C15.9141 7.14147 15.4046 7.455 14.8418 7.5027L14.8398 7.50287C14.1112 7.56387 13.4271 7.16671 12.9805 6.51127C13.1895 6.6408 13.4334 6.72102 13.6773 6.76352C14.555 6.91626 15.2408 6.76023 15.8015 6.07265C16.5392 5.16813 16.5831 4.08618 16.2878 3.2522C16.5443 3.64976 16.7155 4.13628 16.7614 4.66954Z" fill="#403A19"/>
<path d="M13.4968 4.00717C13.4557 4.27218 13.4826 4.5411 13.54 4.80462C13.5699 4.9423 13.4843 5.07852 13.3462 5.11045C13.3444 5.11087 13.3426 5.11126 13.3408 5.11168C13.1922 5.14606 13.0454 5.0457 13.0258 4.89537C12.9794 4.53894 12.9706 4.17762 13.0672 3.83385C13.1824 3.42334 13.4785 3.04056 13.8808 2.90922C13.9441 2.88857 14.0135 2.91405 14.0491 2.96995C14.0919 3.03729 14.0719 3.12608 14.0045 3.16928C13.7242 3.34879 13.5482 3.67544 13.4968 4.00717Z" fill="#5F4C3A"/>
<path d="M22.0558 10.5634C22.1935 12.166 21.2279 13.5563 19.8987 13.6692C18.5699 13.7818 17.3812 12.574 17.2435 10.9715C17.1059 9.3689 18.0715 7.97853 19.4003 7.86567C20.7291 7.75313 21.9182 8.96086 22.0558 10.5634Z" fill="#403A19"/>
<path d="M19.8705 13.3851C18.7025 13.4829 17.6515 12.3892 17.5276 10.9472C17.4037 9.50403 18.2538 8.24916 19.4226 8.14989C20.5924 8.05197 21.6436 9.14558 21.7675 10.5876C21.8914 12.0308 21.0412 13.2856 19.8722 13.3849L19.8705 13.3851Z" fill="#F7B925"/>
<path d="M21.8278 10.6012C21.8894 11.3199 21.7172 12.0124 21.3427 12.5515C20.9805 13.0731 20.471 13.3866 19.9082 13.4343L19.9062 13.4345C19.1776 13.4955 18.4935 13.0983 18.0469 12.4429C18.2559 12.5724 18.4998 12.6527 18.7437 12.6952C19.6214 12.8479 20.3072 12.6919 20.8679 12.0043C21.6056 11.0998 21.6495 10.0178 21.3542 9.18384C21.6107 9.58142 21.7819 10.0679 21.8278 10.6012Z" fill="#403A19"/>
<path d="M18.5671 9.93881C18.526 10.2038 18.553 10.4727 18.6103 10.7363C18.6402 10.8739 18.5546 11.0102 18.4165 11.0421C18.4147 11.0425 18.4129 11.0429 18.4112 11.0433C18.2625 11.0777 18.1157 10.9773 18.0962 10.827C18.0497 10.4706 18.0409 10.1093 18.1376 9.76549C18.2527 9.35498 18.5488 8.9722 18.9512 8.84086C19.0144 8.82021 19.0838 8.84569 19.1194 8.90159C19.1623 8.96893 19.1422 9.05772 19.0748 9.10092C18.7945 9.28043 18.6185 9.60708 18.5671 9.93881Z" fill="#5F4C3A"/>
<path d="M6.75893 11.8442C6.89659 13.4467 5.931 14.8371 4.60187 14.95C3.27304 15.0625 2.08432 13.8548 1.94666 12.2522C1.809 10.6497 2.7746 9.25929 4.1034 9.14643C5.43222 9.03389 6.62127 10.2416 6.75893 11.8442Z" fill="#403A19"/>
<path d="M4.57754 14.6658C3.40954 14.7636 2.35853 13.67 2.23466 12.2279C2.11071 10.7848 2.9608 9.52992 4.12964 9.43066C5.29943 9.33273 6.35062 10.4263 6.47449 11.8684C6.59843 13.3115 5.7482 14.5664 4.57918 14.6657L4.57754 14.6658Z" fill="#F7B925"/>
<path d="M6.53091 11.8819C6.59251 12.6007 6.42031 13.2931 6.04586 13.8323C5.68365 14.3539 5.1741 14.6674 4.61136 14.7151L4.60934 14.7153C3.88069 14.7763 3.19665 14.3791 2.75 13.7237C2.95899 13.8532 3.20291 13.9334 3.44686 13.9759C4.3245 14.1287 5.01033 13.9726 5.57105 13.285C6.30871 12.3805 6.35265 11.2986 6.0573 10.4646C6.31382 10.8622 6.48507 11.3487 6.53091 11.8819Z" fill="#403A19"/>
<path d="M3.27023 11.2196C3.22913 11.4846 3.25609 11.7535 3.31339 12.017C3.34335 12.1547 3.25776 12.2909 3.11962 12.3228C3.11785 12.3233 3.11608 12.3237 3.11428 12.3241C2.9656 12.3585 2.81886 12.2581 2.79929 12.1078C2.75287 11.7513 2.74402 11.39 2.84068 11.0463C2.95582 10.6357 3.25195 10.253 3.65428 10.1216C3.71755 10.101 3.78693 10.1265 3.82251 10.1824C3.86538 10.2497 3.84533 10.3385 3.7779 10.3817C3.49761 10.5612 3.32165 10.8878 3.27023 11.2196Z" fill="#5F4C3A"/>
<path d="M19.6103 17.6862C19.6757 18.4466 19.4171 19.2981 18.9217 19.8812C18.4264 20.4647 17.6906 20.8156 16.9245 20.8798C16.8813 20.8834 16.8371 20.8859 16.7935 20.8879C16.4619 20.901 16.096 20.8731 15.7787 20.7723C14.8184 20.467 13.8288 20.3393 12.9016 20.4169L12.6456 20.4384C11.6544 20.5222 10.8161 20.7813 9.92414 21.2434C9.58613 21.4183 9.21998 21.5234 8.8361 21.5555C8.79231 21.5592 8.74787 21.562 8.7039 21.5637C7.23649 21.6213 5.80933 20.5578 5.61765 19.1114C5.58867 18.8922 5.64341 18.5829 5.66489 18.3673C6.1378 19.3535 7.31642 19.9895 8.40661 19.7777C9.57652 19.5506 10.4962 18.5151 11.6849 18.4239C12.5112 18.3607 13.3399 18.7726 14.1517 18.6064C15.0207 18.4283 15.6386 17.6075 15.8432 16.7498C16.0477 15.8921 15.9197 14.9949 15.7909 14.123C15.6303 13.0365 15.3926 11.7477 14.3008 10.2183C14.9126 10.5702 15.3402 11.2548 15.6566 12.1125C16.1627 13.4862 17.0519 14.6464 18.3064 15.4867C19.0312 15.9727 19.536 16.8215 19.6103 17.6862Z" fill="#403A19"/>
</svg>
