<svg width="25" height="24" viewBox="0 0 25 24" fill="none" xmlns="http://www.w3.org/2000/svg">
<path d="M21.1665 7.27771L12.6665 11.9999M12.6665 11.9999L4.16647 7.27771M12.6665 11.9999L12.6665 21.5M21.6665 16.0585V7.94141C21.6665 7.59876 21.6665 7.42744 21.616 7.27464C21.5714 7.13947 21.4983 7.01539 21.4019 6.9107C21.2928 6.79236 21.1431 6.70916 20.8435 6.54276L13.4435 2.43164C13.1599 2.27409 13.0181 2.19531 12.868 2.16442C12.735 2.13709 12.598 2.13709 12.4651 2.16442C12.3149 2.19531 12.1731 2.27409 11.8895 2.43165L4.48948 6.54276C4.18995 6.70916 4.04019 6.79236 3.93114 6.9107C3.83466 7.01539 3.76165 7.13947 3.71699 7.27465C3.6665 7.42745 3.6665 7.59877 3.6665 7.94141V16.0585C3.6665 16.4012 3.6665 16.5725 3.71699 16.7253C3.76165 16.8605 3.83466 16.9845 3.93114 17.0892C4.04019 17.2076 4.18995 17.2908 4.48948 17.4572L11.8895 21.5683C12.1731 21.7258 12.3149 21.8046 12.4651 21.8355C12.598 21.8628 12.735 21.8628 12.868 21.8355C13.0181 21.8046 13.1599 21.7258 13.4435 21.5683L20.8435 17.4572C21.1431 17.2908 21.2928 17.2076 21.4019 17.0892C21.4983 16.9845 21.5714 16.8605 21.616 16.7253C21.6665 16.5725 21.6665 16.4012 21.6665 16.0585Z" stroke="#70707B" stroke-width="2" stroke-linecap="round" stroke-linejoin="round"/>
</svg>
