<svg width="40" height="40" viewBox="0 0 40 40" fill="none" xmlns="http://www.w3.org/2000/svg">
<rect x="0.5" y="0.5" width="39" height="39" rx="19.5" fill="white" fill-opacity="0.05"/>
<rect x="0.5" y="0.5" width="39" height="39" rx="19.5" stroke="#70707B"/>
<path fill-rule="evenodd" clip-rule="evenodd" d="M28.9721 16.989C27.9742 16.9895 27.0174 16.592 26.3138 15.8844C25.6102 15.1768 25.2179 14.2178 25.2241 13.22C24.578 13.7162 23.7867 13.9864 22.9721 13.989C21.711 13.99 20.534 13.3567 19.8402 12.3037C19.1463 11.2507 19.0286 9.91934 19.5271 8.76099C14.7087 8.95659 10.5522 12.2045 9.19745 16.8327C7.84273 21.4609 9.59179 26.4374 13.5442 29.2004C17.4966 31.9633 22.7712 31.8966 26.6524 29.0346C30.5337 26.1726 32.1564 21.1534 30.6851 16.561C30.1569 16.8395 29.5692 16.9863 28.9721 16.989Z" stroke="#F4F4F5" stroke-width="1.5" stroke-linecap="round" stroke-linejoin="round"/>
<path fill-rule="evenodd" clip-rule="evenodd" d="M15.4727 20.739C16.7153 20.739 17.7227 19.7317 17.7227 18.489C17.7227 17.2464 16.7153 16.239 15.4727 16.239C14.23 16.239 13.2227 17.2464 13.2227 18.489C13.2227 19.7317 14.23 20.739 15.4727 20.739Z" stroke="#F4F4F5" stroke-width="1.5" stroke-linecap="round" stroke-linejoin="round"/>
<path fill-rule="evenodd" clip-rule="evenodd" d="M22.2227 26.739C23.0511 26.739 23.7227 26.0674 23.7227 25.239C23.7227 24.4106 23.0511 23.739 22.2227 23.739C21.3942 23.739 20.7227 24.4106 20.7227 25.239C20.7227 26.0674 21.3942 26.739 22.2227 26.739Z" stroke="#F4F4F5" stroke-width="1.5" stroke-linecap="round" stroke-linejoin="round"/>
<path d="M15.0996 24.489C15.3067 24.489 15.4746 24.6569 15.4746 24.864C15.4746 25.0711 15.3067 25.239 15.0996 25.239C14.8925 25.239 14.7246 25.0711 14.7246 24.864C14.7246 24.6569 14.8925 24.489 15.0996 24.489" stroke="#F4F4F5" stroke-width="1.5" stroke-linecap="round" stroke-linejoin="round"/>
<path d="M21.0376 17.744C21.1874 17.7197 21.337 17.7879 21.4168 17.917C21.4965 18.046 21.4907 18.2104 21.402 18.3335C21.3133 18.4565 21.1592 18.514 21.0115 18.4791C20.8639 18.4442 20.7518 18.3238 20.7276 18.174C20.7115 18.0759 20.7351 17.9753 20.7933 17.8946C20.8515 17.8139 20.9394 17.7597 21.0376 17.744" stroke="#F4F4F5" stroke-width="1.5" stroke-linecap="round" stroke-linejoin="round"/>
<path d="M27.0375 20.744C27.1873 20.7197 27.3369 20.7879 27.4167 20.917C27.4965 21.046 27.4906 21.2104 27.4019 21.3335C27.3132 21.4565 27.1591 21.514 27.0114 21.4791C26.8638 21.4442 26.7517 21.3238 26.7275 21.174C26.6945 20.9697 26.8332 20.7772 27.0375 20.744" stroke="#F4F4F5" stroke-width="1.5" stroke-linecap="round" stroke-linejoin="round"/>
</svg>
