<svg width="25" height="24" viewBox="0 0 25 24" fill="none" xmlns="http://www.w3.org/2000/svg">
<path d="M17.5 20H17.3C15.6198 20 14.7798 20 14.138 19.673C13.5735 19.3854 13.1146 18.9265 12.827 18.362C12.5 17.7202 12.5 16.8802 12.5 15.2V8.8C12.5 7.11984 12.5 6.27976 12.827 5.63803C13.1146 5.07354 13.5735 4.6146 14.138 4.32698C14.7798 4 15.6198 4 17.3 4H17.5M17.5 20C17.5 21.1046 18.3954 22 19.5 22C20.6046 22 21.5 21.1046 21.5 20C21.5 18.8954 20.6046 18 19.5 18C18.3954 18 17.5 18.8954 17.5 20ZM17.5 4C17.5 5.10457 18.3954 6 19.5 6C20.6046 6 21.5 5.10457 21.5 4C21.5 2.89543 20.6046 2 19.5 2C18.3954 2 17.5 2.89543 17.5 4ZM7.5 12L17.5 12M7.5 12C7.5 13.1046 6.60457 14 5.5 14C4.39543 14 3.5 13.1046 3.5 12C3.5 10.8954 4.39543 10 5.5 10C6.60457 10 7.5 10.8954 7.5 12ZM17.5 12C17.5 13.1046 18.3954 14 19.5 14C20.6046 14 21.5 13.1046 21.5 12C21.5 10.8954 20.6046 10 19.5 10C18.3954 10 17.5 10.8954 17.5 12Z" stroke="#131316" stroke-width="2" stroke-linecap="round" stroke-linejoin="round"/>
</svg>
