<svg xmlns="http://www.w3.org/2000/svg" viewBox="0 0 32 32"><path fill="#231f20" d="M29.83,19.41l-1.56-7a2,2,0,0,0-1.95-1.56H22.11v-3a1,1,0,0,0-1-1h-18a1,1,0,0,0-1,1v13a1,1,0,0,0,1,1H7.31a2.76,2.76,0,0,0-.09.65,2.65,2.65,0,0,0,5.3,0,2.32,2.32,0,0,0-.09-.65h8.68a1,1,0,0,0,.42-.1,1.81,1.81,0,0,0,.58.1h.2a2.76,2.76,0,0,0-.09.65,2.65,2.65,0,1,0,5.3,0,2.32,2.32,0,0,0-.09-.65h.45a2,2,0,0,0,1.56-.75A2,2,0,0,0,29.83,19.41ZM10.52,22.5a.65.65,0,1,1-.65-.65A.65.65,0,0,1,10.52,22.5Zm-6.4-2.65v-11h16v11Zm21.4,2.65a.65.65,0,1,1-.65-.65A.65.65,0,0,1,25.52,22.5Zm-3.41-2.65v-2.5H25a1,1,0,0,0,0-2H22.11v-2.5h4.21l1.56,7Z" data-name="bus 1"/></svg>