<svg width="24" height="25" viewBox="0 0 24 25" fill="none" xmlns="http://www.w3.org/2000/svg">
<path fill-rule="evenodd" clip-rule="evenodd" d="M0 0.5H45.6V2.34688H0V0.5ZM0 4.19375H45.6V6.04063H0V4.19375ZM0 7.88281H45.6V9.73438H0V7.88281ZM0 11.5766H45.6V13.4234H0V11.5766ZM0 15.2703H45.6V17.1172H0V15.2703ZM0 18.9594H45.6V20.8063H0V18.9594ZM0 22.6531H45.6V24.5H0V22.6531Z" fill="#BD3D44"/>
<path fill-rule="evenodd" clip-rule="evenodd" d="M0 2.34692H45.6V4.1938H0V2.34692ZM0 6.04067H45.6V7.88286H0V6.04067ZM0 9.72974H45.6V11.5766H0V9.72974ZM0 13.4235H45.6V15.2704H0V13.4235ZM0 17.1172H45.6V18.9641H0V17.1172ZM0 20.8063H45.6V22.6532H0V20.8063Z" fill="white"/>
<path fill-rule="evenodd" clip-rule="evenodd" d="M0 0.5H18.2391V13.4234H0V0.5Z" fill="#192F5D"/>
<path fill-rule="evenodd" clip-rule="evenodd" d="M1.5188 1.0531L1.68755 1.56404H2.22192L1.79067 1.8781L1.95474 2.39373L1.5188 2.07498L1.08755 2.38904L1.25161 1.8781L0.815674 1.56404H1.35942L1.5188 1.0531ZM4.56099 1.0531L4.72505 1.56404H5.26411L4.82817 1.8781L4.99224 2.39373L4.56099 2.07498L4.12505 2.38904L4.28911 1.8781L3.85786 1.56404H4.39224L4.56099 1.0531ZM7.59849 1.0531L7.76724 1.56404H8.29692L7.86567 1.8781L8.02974 2.39373L7.5938 2.07498L7.16255 2.38904L7.32661 1.8781L6.89067 1.56404H7.42974L7.59849 1.0531ZM10.6407 1.0531L10.8047 1.56404H11.3438L10.9079 1.8781L11.0766 2.39373L10.6407 2.07498L10.2047 2.38904L10.3735 1.8781L9.93755 1.56404H10.4719L10.6407 1.0531ZM13.6782 1.0531L13.8469 1.56404H14.3813L13.9501 1.8781L14.1141 2.39373L13.6782 2.07498L13.2469 2.38904L13.411 1.8781L12.9797 1.56404H13.5141L13.6782 1.0531ZM16.7204 1.0531L16.8844 1.56404H17.4235L16.9876 1.8781L17.1563 2.39373L16.7204 2.07498L16.2844 2.38904L16.4532 1.8781L16.0172 1.56404H16.5563L16.7204 1.0531ZM3.04224 2.34685L3.2063 2.85779H3.74536L3.30942 3.17185L3.4688 3.68279L3.04692 3.36873L2.61099 3.68279L2.76567 3.17185L2.3438 2.85779H2.87817L3.04224 2.34685ZM6.07974 2.34685L6.24849 2.85779H6.78286L6.34692 3.17185L6.51567 3.68279L6.07974 3.36873L5.6438 3.68279L5.81255 3.17185L5.37661 2.85779H5.91567L6.07974 2.34685ZM9.12192 2.34685L9.28599 2.85779H9.82505L9.38911 3.17185L9.55317 3.68279L9.12192 3.36873L8.68599 3.68279L8.85005 3.17185L8.4188 2.85779H8.95317L9.12192 2.34685ZM12.1594 2.34685L12.3282 2.85779H12.8625L12.4266 3.17185L12.5954 3.68279L12.1594 3.36873L11.7282 3.68279L11.8922 3.17185L11.4563 2.85779H12L12.1594 2.34685ZM15.2016 2.34685L15.3657 2.85779H15.9047L15.4688 3.17185L15.6329 3.68279L15.2016 3.36873L14.7657 3.68279L14.9297 3.17185L14.4985 2.85779H15.0329L15.2016 2.34685ZM1.5188 3.63591L1.68755 4.15623H2.22192L1.79067 4.47029L1.95474 4.98123L1.5188 4.66248L1.08755 4.98123L1.25161 4.4656L0.815674 4.15154H1.35942L1.5188 3.63591ZM4.56099 3.63591L4.72505 4.15154H5.26411L4.82817 4.4656L4.99224 4.97654L4.56099 4.65779L4.12505 4.97654L4.28911 4.46091L3.85786 4.14685H4.39224L4.56099 3.63591ZM7.59849 3.63591L7.76724 4.15154H8.29692L7.86567 4.4656L8.02974 4.97654L7.5938 4.65779L7.16255 4.97654L7.32661 4.46091L6.89067 4.14685H7.42974L7.59849 3.63591ZM10.6407 3.63591L10.8047 4.15154H11.3438L10.9079 4.4656L11.0766 4.97654L10.6407 4.65779L10.2047 4.97654L10.3735 4.46091L9.93755 4.14685H10.4719L10.6407 3.63591ZM13.6782 3.63591L13.8469 4.15154H14.3813L13.9501 4.4656L14.1141 4.97654L13.6782 4.65779L13.2469 4.97654L13.411 4.46091L12.9797 4.14685H13.5141L13.6782 3.63591ZM16.7204 3.63591L16.8844 4.15154H17.4235L16.9876 4.4656L17.1563 4.97654L16.7204 4.65779L16.2844 4.97654L16.4532 4.46091L16.0172 4.14685H16.5563L16.7204 3.63591ZM3.04224 4.92966L3.2063 5.4406H3.74536L3.30942 5.75466L3.47349 6.27029L3.04224 5.95154L2.6063 6.2656L2.77036 5.75466L2.33911 5.4406H2.87349L3.04224 4.92966ZM6.07974 4.92966L6.24849 5.4406H6.78286L6.34692 5.75466L6.51567 6.27029L6.07974 5.95154L5.6438 6.2656L5.81255 5.75466L5.37661 5.4406H5.91567L6.07974 4.92966ZM9.12192 4.92966L9.28599 5.4406H9.82505L9.38911 5.75466L9.55317 6.27029L9.12192 5.95154L8.68599 6.2656L8.85005 5.75466L8.4188 5.4406H8.95317L9.12192 4.92966ZM12.1594 4.92966L12.3282 5.4406H12.8625L12.4313 5.75466L12.5954 6.27029L12.1594 5.95154L11.7282 6.2656L11.8922 5.75466L11.4563 5.4406H12L12.1594 4.92966ZM15.2016 4.92966L15.3657 5.4406H15.9047L15.4688 5.75466L15.6329 6.27029L15.2016 5.95154L14.7657 6.2656L14.9297 5.75466L14.4985 5.4406H15.0329L15.2016 4.92966ZM1.5188 6.22341L1.68755 6.73435H2.22192L1.79067 7.04841L1.95474 7.56404L1.5188 7.24529L1.08755 7.55935L1.25161 7.04841L0.815674 6.73435H1.35942L1.5188 6.22341ZM4.56099 6.22341L4.72505 6.73435H5.26411L4.82817 7.04841L4.99224 7.55935L4.56099 7.24529L4.12505 7.55935L4.28911 7.04841L3.85786 6.73435H4.39224L4.56099 6.22341ZM7.59849 6.22341L7.76724 6.73435H8.29692L7.86567 7.04841L8.02974 7.56404L7.5938 7.24529L7.16255 7.55935L7.32661 7.04841L6.89067 6.73435H7.42974L7.59849 6.22341ZM10.6407 6.22341L10.8047 6.73435H11.3438L10.9079 7.04841L11.0766 7.56404L10.6407 7.24529L10.2047 7.55935L10.3735 7.04841L9.93755 6.73435H10.4719L10.6407 6.22341ZM13.6782 6.22341L13.8469 6.73435H14.3813L13.9501 7.04841L14.1141 7.56404L13.6782 7.24529L13.2469 7.55935L13.411 7.04841L12.9797 6.73435H13.5141L13.6782 6.22341ZM16.7204 6.22341L16.8844 6.73435H17.4235L16.9876 7.04841L17.1563 7.56404L16.7204 7.24529L16.2844 7.55935L16.4532 7.04841L16.0172 6.73435H16.5563L16.7204 6.22341ZM3.04224 7.51716L3.2063 8.0281H3.74536L3.30942 8.34216L3.47349 8.8531L3.04224 8.53435L2.6063 8.8531L2.77036 8.33748L2.33911 8.02341H2.87349L3.04224 7.51716ZM6.07974 7.51716L6.24849 8.0281H6.78286L6.34692 8.34216L6.51567 8.8531L6.07974 8.53435L5.6438 8.8531L5.81255 8.33748L5.37661 8.02341H5.91567L6.07974 7.51716ZM9.12192 7.51716L9.28599 8.0281H9.82505L9.38911 8.34216L9.55317 8.8531L9.12192 8.53435L8.68599 8.8531L8.85005 8.33748L8.4188 8.02341H8.95317L9.12192 7.51716ZM12.1594 7.51716L12.3282 8.0281H12.8625L12.4313 8.34216L12.5954 8.8531L12.1594 8.53435L11.7282 8.8531L11.8922 8.33748L11.4563 8.02341H12L12.1594 7.51716ZM15.2016 7.51716L15.3657 8.0281H15.9047L15.4688 8.34216L15.6329 8.8531L15.2016 8.53435L14.7657 8.8531L14.9297 8.33748L14.4985 8.02341H15.0329L15.2016 7.51716ZM1.5188 8.80623L1.68755 9.32185H2.22192L1.79067 9.63591L1.95474 10.1422L1.5188 9.8281L1.08755 10.1422L1.25161 9.63123L0.815674 9.31716H1.35942L1.5188 8.80623ZM4.56099 8.80623L4.72505 9.32185H5.26411L4.82817 9.63591L4.99692 10.1422L4.56099 9.8281L4.12505 10.1422L4.2938 9.63123L3.85786 9.31716H4.39224L4.56099 8.80623ZM7.59849 8.80623L7.76724 9.32185H8.29692L7.86567 9.63591L8.02974 10.1422L7.5938 9.8281L7.16255 10.1422L7.32661 9.63123L6.89067 9.31716H7.42974L7.59849 8.80623ZM10.6407 8.80623L10.8047 9.32185H11.3438L10.9079 9.63591L11.0766 10.1422L10.6407 9.8281L10.2047 10.1422L10.3735 9.63123L9.93755 9.31716H10.4719L10.6407 8.80623ZM13.6782 8.80623L13.8469 9.32185H14.3813L13.9501 9.63591L14.1141 10.1422L13.6782 9.8281L13.2469 10.1422L13.411 9.63123L12.9797 9.31716H13.5141L13.6782 8.80623ZM16.7204 8.80623L16.8844 9.32185H17.4235L16.9876 9.63591L17.1563 10.1422L16.7204 9.8281L16.2844 10.1422L16.4532 9.63123L16.0172 9.31716H16.5563L16.7204 8.80623ZM3.04224 10.1L3.2063 10.6109H3.74536L3.30942 10.925L3.47349 11.4406L3.04224 11.1219L2.6063 11.4359L2.77036 10.925L2.33911 10.6109H2.87349L3.04224 10.1ZM6.07974 10.1L6.24849 10.6109H6.78286L6.34692 10.925L6.51567 11.4406L6.07974 11.1219L5.6438 11.4359L5.81255 10.925L5.37661 10.6109H5.91567L6.07974 10.1ZM9.12192 10.1L9.28599 10.6109H9.82505L9.38911 10.925L9.55317 11.4406L9.12192 11.1219L8.68599 11.4359L8.85005 10.925L8.4188 10.6109H8.95317L9.12192 10.1ZM12.1594 10.1L12.3282 10.6109H12.8625L12.4313 10.925L12.5954 11.4406L12.1594 11.1219L11.7282 11.4359L11.8922 10.925L11.4563 10.6109H12L12.1594 10.1ZM15.2016 10.1L15.3657 10.6109H15.9047L15.4688 10.925L15.6329 11.4406L15.2016 11.1219L14.7657 11.4359L14.9297 10.925L14.4985 10.6109H15.0329L15.2016 10.1ZM1.5188 11.3937L1.68755 11.9047H2.22192L1.79067 12.2187L1.95474 12.7297L1.5188 12.4156L1.08755 12.7297L1.25161 12.214L0.815674 11.9H1.35942L1.5188 11.3937ZM4.56099 11.3937L4.72505 11.9047H5.26411L4.82817 12.2187L4.99692 12.7297L4.56099 12.4156L4.12505 12.7297L4.2938 12.214L3.85786 11.9H4.39224L4.56099 11.3937ZM7.59849 11.3937L7.76724 11.9047H8.29692L7.87505 12.2187L8.03911 12.7297L7.60317 12.4156L7.17192 12.7297L7.33599 12.214L6.90005 11.9H7.43911L7.59849 11.3937ZM10.6407 11.3937L10.8047 11.9047H11.3438L10.9079 12.2187L11.0766 12.7297L10.6407 12.4156L10.2047 12.7297L10.3735 12.214L9.93755 11.9H10.4719L10.6407 11.3937ZM13.6782 11.3937L13.8469 11.9047H14.3813L13.9501 12.2187L14.1141 12.7297L13.6782 12.4156L13.2469 12.7297L13.411 12.214L12.9797 11.9H13.5141L13.6782 11.3937ZM16.7204 11.3937L16.8844 11.9047H17.4235L16.9876 12.2187L17.1563 12.7297L16.7204 12.4156L16.2844 12.7297L16.4532 12.214L16.0172 11.9H16.5563L16.7204 11.3937Z" fill="white"/>
</svg>
