<svg width="24" height="24" viewBox="0 0 24 24" fill="none" xmlns="http://www.w3.org/2000/svg">
  <path
    d="M15 1.25H9C3.57 1.25 1.25 3.57 1.25 9V15C1.25 20.43 3.57 22.75 9 22.75H15C20.43 22.75 22.75 20.43 22.75 15V9C22.75 3.57 20.43 1.25 15 1.25ZM9 21.25C4.39 21.25 2.75 19.61 2.75 15V9C2.75 4.39 4.39 2.75 9 2.75H15C19.61 2.75 21.25 4.39 21.25 9V15C21.25 19.61 19.61 21.25 15 21.25H9Z"
    fill="currentColor" />
  <path
    d="M12.0002 9.08993C11.8102 9.08993 11.6202 9.15993 11.4702 9.30993L7.94016 12.8399C7.65016 13.1299 7.65016 13.6099 7.94016 13.8999C8.23016 14.1899 8.71016 14.1899 9.00016 13.8999L12.0002 10.8999L15.0002 13.8999C15.2902 14.1899 15.7702 14.1899 16.0602 13.8999C16.3502 13.6099 16.3502 13.1299 16.0602 12.8399L12.5302 9.30993C12.3802 9.15993 12.1902 9.08993 12.0002 9.08993Z"
    fill="currentColor" />
</svg>