<svg width="48" height="48" viewBox="0 0 48 48" fill="none" xmlns="http://www.w3.org/2000/svg">
<path d="M0 24C0 10.7452 10.7452 0 24 0C37.2548 0 48 10.7452 48 24C48 37.2548 37.2548 48 24 48C10.7452 48 0 37.2548 0 24Z" fill="#F3F4F6"/>
<path d="M27.1427 20.1554C27.5046 20.5725 28.1362 20.6173 28.5534 20.2553C28.9705 19.8933 29.0152 19.2618 28.6533 18.8446L27.1427 20.1554ZM20.8574 27.8446C20.4954 27.4275 19.8638 27.3827 19.4467 27.7447C19.0295 28.1067 18.9848 28.7382 19.3467 29.1554L20.8574 27.8446ZM25 16.5C25 15.9477 24.5523 15.5 24 15.5C23.4477 15.5 23 15.9477 23 16.5H25ZM23 31.5C23 32.0523 23.4477 32.5 24 32.5C24.5523 32.5 25 32.0523 25 31.5L23 31.5ZM36.5 24C36.5 30.9036 30.9036 36.5 24 36.5V38.5C32.0081 38.5 38.5 32.0081 38.5 24H36.5ZM24 36.5C17.0964 36.5 11.5 30.9036 11.5 24H9.5C9.5 32.0081 15.9919 38.5 24 38.5V36.5ZM11.5 24C11.5 17.0964 17.0964 11.5 24 11.5V9.5C15.9919 9.5 9.5 15.9919 9.5 24H11.5ZM24 11.5C30.9036 11.5 36.5 17.0964 36.5 24H38.5C38.5 15.9919 32.0081 9.5 24 9.5V11.5ZM24 23C22.9272 23 22.0013 22.7083 21.3727 22.2893C20.7372 21.8656 20.5 21.39 20.5 21H18.5C18.5 22.2668 19.2702 23.2913 20.2633 23.9534C21.2634 24.6201 22.5875 25 24 25V23ZM20.5 21C20.5 20.61 20.7372 20.1344 21.3727 19.7107C22.0013 19.2917 22.9272 19 24 19V17C22.5875 17 21.2634 17.3799 20.2633 18.0466C19.2702 18.7087 18.5 19.7332 18.5 21H20.5ZM24 19C25.459 19 26.603 19.5334 27.1427 20.1554L28.6533 18.8446C27.6368 17.6732 25.8723 17 24 17V19ZM24 25C25.0728 25 25.9987 25.2917 26.6273 25.7107C27.2629 26.1344 27.5 26.61 27.5 27H29.5C29.5 25.7332 28.7298 24.7087 27.7367 24.0466C26.7366 23.3799 25.4125 23 24 23V25ZM23 16.5V18H25V16.5H23ZM23 30L23 31.5L25 31.5L25 30L23 30ZM24 29C22.5411 29 21.397 28.4666 20.8574 27.8446L19.3467 29.1554C20.3632 30.3268 22.1278 31 24 31L24 29ZM27.5 27C27.5 27.39 27.2629 27.8656 26.6273 28.2893C25.9987 28.7083 25.0728 29 24 29V31C25.4126 31 26.7366 30.6201 27.7367 29.9534C28.7298 29.2913 29.5 28.2668 29.5 27H27.5ZM23 18L23 30L25 30L25 18L23 18Z" fill="#6B7280"/>
</svg>
