<svg width="49" height="48" viewBox="0 0 49 48" fill="none" xmlns="http://www.w3.org/2000/svg">
<path d="M26.332 32V12C26.332 10.8954 25.4366 10 24.332 10H8.33203C7.22746 10 6.33203 10.8954 6.33203 12V32C6.33203 33.1046 7.22746 34 8.33203 34H10.332M26.332 32C26.332 33.1046 25.4366 34 24.332 34H18.332M26.332 32L26.332 16C26.332 14.8954 27.2275 14 28.332 14H33.5036C34.034 14 34.5427 14.2107 34.9178 14.5858L41.7463 21.4142C42.1213 21.7893 42.332 22.298 42.332 22.8284V32C42.332 33.1046 41.4366 34 40.332 34H38.332M26.332 32C26.332 33.1046 27.2275 34 28.332 34H30.332M10.332 34C10.332 36.2091 12.1229 38 14.332 38C16.5412 38 18.332 36.2091 18.332 34M10.332 34C10.332 31.7909 12.1229 30 14.332 30C16.5412 30 18.332 31.7909 18.332 34M30.332 34C30.332 36.2091 32.1229 38 34.332 38C36.5412 38 38.332 36.2091 38.332 34M30.332 34C30.332 31.7909 32.1229 30 34.332 30C36.5412 30 38.332 31.7909 38.332 34" stroke="#6B7280" stroke-width="2"/>
</svg>
