<svg width="48" height="48" viewBox="0 0 48 48" fill="none" xmlns="http://www.w3.org/2000/svg">
<path d="M38.9617 20.7825C39.0612 20.3848 38.9617 19.9872 38.7132 19.6889L36.6752 17.303L38.2161 16.6568C38.5641 16.5077 38.8623 16.2094 38.912 15.8118C39.0115 15.4141 38.912 15.0164 38.6635 14.7182L33.146 8.10714C33.0466 7.95802 32.8975 7.8089 32.6986 7.70948L27.5291 4.77676C27.3303 4.67734 27.0817 4.67734 26.8829 4.77676C26.6841 4.87617 26.5349 5.075 26.4852 5.27383C26.2864 6.66563 25.0934 7.65977 23.7016 7.65977C22.3098 7.65977 21.1666 6.66563 20.918 5.32353C20.8683 5.12471 20.7192 4.92588 20.5204 4.82646C20.3215 4.72705 20.073 4.72705 19.8742 4.82646L14.804 7.70948C14.6549 7.75919 14.5555 7.8586 14.4561 8.00772L8.78946 14.7679C8.54093 15.0661 8.44151 15.4638 8.54093 15.8615C8.64034 16.2591 8.88888 16.5574 9.23683 16.7065L10.7778 17.3527L8.73976 19.7386C8.49122 20.0369 8.39181 20.4345 8.49122 20.8322C8.59064 21.2298 8.83917 21.5281 9.18712 21.6772L10.8772 22.3731L8.73976 24.9579C8.49122 25.2561 8.39181 25.6538 8.49122 26.0514C8.59064 26.4491 8.83917 26.7473 9.18712 26.8965L14.1081 28.9345V32.911V37.1859V42.3554V42.4051C14.1081 43.101 14.6549 43.6478 15.3508 43.6478H32.0524C32.7483 43.6478 33.2951 43.101 33.2951 42.4051V37.0864V32.1157V28.7853L38.2161 26.7473C38.5641 26.5982 38.8623 26.3 38.912 25.9023C39.0115 25.5047 38.912 25.107 38.6635 24.8088L36.5261 22.224L38.2161 21.5281C38.6138 21.4784 38.8623 21.1801 38.9617 20.7825ZM32.6489 24.3614C32.2513 24.3614 31.953 24.6596 31.953 25.0573V32.8116V37.0864V42.1566H15.5496V36.9373V31.9666V28.338C15.5496 28.338 15.5496 28.338 15.5496 28.2883V25.0076C15.5496 24.6099 15.2514 24.3117 14.8537 24.3117C14.4561 24.3117 14.1578 24.6099 14.1578 25.0076V27.3438L9.93273 25.6041L15.4502 18.993L19.8742 16.458C20.5204 17.9989 22.0116 19.0427 23.7513 19.0427C25.4911 19.0427 26.9823 17.9989 27.6285 16.458L32.0027 18.9433C32.0027 18.993 32.0524 18.993 32.0524 19.0427L37.5202 25.5544L33.2951 27.2941V24.9579C33.3448 24.6596 33.0466 24.3614 32.6489 24.3614ZM33.146 18.2474C33.0466 18.0983 32.8975 17.9492 32.6986 17.8498L27.5291 14.917C27.3303 14.8176 27.0817 14.8176 26.8829 14.917C26.6841 15.0164 26.5349 15.2153 26.4852 15.4141C26.2864 16.8059 25.0934 17.8 23.7016 17.8C22.3098 17.8 21.1666 16.8059 20.918 15.4638C20.8683 15.265 20.7192 15.0661 20.5204 14.9667C20.3215 14.8673 20.073 14.8673 19.8742 14.9667L14.804 17.8C14.6549 17.8498 14.5555 17.9492 14.4561 18.0983L11.8713 21.2298L9.98244 20.4345L15.4999 13.8235L19.9239 11.2884C20.5701 12.8293 22.0613 13.8732 23.801 13.8732C25.5408 13.8732 27.032 12.8293 27.6782 11.2884L32.0524 13.7738C32.0524 13.8235 32.1022 13.8235 32.1022 13.8732L37.5699 20.3848L35.6811 21.1801L33.146 18.2474ZM19.8742 6.36739C20.5204 7.90831 22.0116 8.95216 23.7513 8.95216C25.4911 8.95216 26.9823 7.90831 27.6285 6.36739L32.0027 8.85275C32.0027 8.90245 32.0524 8.90245 32.0524 8.95216L37.5202 15.4638L35.7805 16.2094L33.146 13.0779C33.0466 12.9287 32.8975 12.7796 32.6986 12.6802L27.5291 9.74748C27.3303 9.64806 27.0817 9.64806 26.8829 9.74748C26.6841 9.84689 26.5349 10.0457 26.4852 10.2445C26.2864 11.6364 25.0934 12.6305 23.7016 12.6305C22.3098 12.6305 21.1666 11.6364 20.918 10.2943C20.8683 10.0954 20.7192 9.8966 20.5204 9.79718C20.3215 9.69777 20.073 9.69777 19.8742 9.79718L14.804 12.6305C14.6549 12.6802 14.5555 12.7796 14.4561 12.9287L11.7222 16.2094L9.98244 15.4638L15.4999 8.85275L19.8742 6.36739Z" fill="#6B7280"/>
<path d="M18.7294 33.9549C18.8785 34.104 19.0276 34.1537 19.2264 34.1537C19.4253 34.1537 19.5744 34.104 19.7235 33.9549L29.1182 24.5602C29.3667 24.3117 29.3667 23.8643 29.1182 23.6158C28.8696 23.3673 28.4223 23.3673 28.1737 23.6158L18.7294 32.9608C18.4808 33.259 18.4808 33.7064 18.7294 33.9549Z" fill="#6B7280"/>
<path d="M21.0166 28.338C22.3587 28.338 23.502 27.2444 23.502 25.8526C23.502 24.5105 22.4084 23.3673 21.0166 23.3673C19.6248 23.3673 18.5312 24.4608 18.5312 25.8526C18.5312 27.2444 19.6745 28.338 21.0166 28.338ZM21.0166 24.7591C21.6131 24.7591 22.1102 25.2561 22.1102 25.8526C22.1102 26.4491 21.6131 26.9462 21.0166 26.9462C20.4201 26.9462 19.9231 26.4491 19.9231 25.8526C19.9231 25.2561 20.4201 24.7591 21.0166 24.7591Z" fill="#6B7280"/>
<path d="M26.833 29.183C25.4909 29.183 24.3477 30.2766 24.3477 31.6684C24.3477 33.0105 25.4412 34.1537 26.833 34.1537C28.2248 34.1537 29.3184 33.0602 29.3184 31.6684C29.3184 30.3263 28.1751 29.183 26.833 29.183ZM26.833 32.7619C26.2365 32.7619 25.7395 32.2648 25.7395 31.6684C25.7395 31.0719 26.2365 30.5748 26.833 30.5748C27.4295 30.5748 27.9266 31.0719 27.9266 31.6684C27.9266 32.2648 27.4295 32.7619 26.833 32.7619Z" fill="#6B7280"/>
</svg>
