<svg width="12" height="12" viewBox="0 0 12 12" fill="none" xmlns="http://www.w3.org/2000/svg">
    <g clip-path="url(#clip0_12692_7536)">
        <path
            d="M7.5 1.2289C7.02648 1.08018 6.5226 1 6 1C3.23858 1 1 3.23858 1 6C1 8.76142 3.23858 11 6 11C8.76142 11 11 8.76142 11 6C11 5.14234 10.7841 4.33511 10.4036 3.62972M8.5 2.875H8.5025M5.25003 10.9441L5.25008 9.84246C5.25008 9.78279 5.27143 9.72509 5.31026 9.67978L6.55316 8.2297C6.6553 8.11053 6.62365 7.92782 6.48738 7.84995L5.05927 7.03387C5.02047 7.0117 4.98832 6.97953 4.96617 6.94071L4.03523 5.30931C3.98678 5.22441 3.89329 5.17553 3.79592 5.18421L1.03209 5.43037M10.5 3C10.5 4.10457 9.5 5 8.5 6C7.5 5 6.5 4.10457 6.5 3C6.5 1.89543 7.39543 1 8.5 1C9.60457 1 10.5 1.89543 10.5 3ZM8.625 2.875C8.625 2.94404 8.56904 3 8.5 3C8.43096 3 8.375 2.94404 8.375 2.875C8.375 2.80596 8.43096 2.75 8.5 2.75C8.56904 2.75 8.625 2.80596 8.625 2.875Z"
            stroke="currentColor" stroke-width="1.5" stroke-linecap="round" stroke-linejoin="round" />
    </g>
    <defs>
        <clipPath id="clip0_12692_7536">
            <rect width="12" height="12" fill="white" />
        </clipPath>
    </defs>
</svg>
