<svg width="28" height="28" viewBox="0 0 28 28" fill="none" xmlns="http://www.w3.org/2000/svg">
    <path
        d="M19.834 16.9167V13.4102C19.834 13.2008 19.834 13.0961 19.8021 13.0036C19.7739 12.9219 19.7279 12.8475 19.6674 12.7857C19.599 12.7158 19.5053 12.669 19.318 12.5754L14.0007 9.91667M4.66732 11.0833V19.0244C4.66732 19.4583 4.66732 19.6752 4.73501 19.8652C4.79484 20.0331 4.89237 20.1851 5.02009 20.3095C5.16457 20.4501 5.3618 20.5405 5.75623 20.7213L13.2229 24.1435C13.509 24.2747 13.6521 24.3402 13.8011 24.3661C13.9331 24.389 14.0682 24.389 14.2002 24.3661C14.3492 24.3402 14.4923 24.2747 14.7784 24.1435L22.2451 20.7213C22.6395 20.5405 22.8367 20.4501 22.9812 20.3095C23.1089 20.1851 23.2065 20.0331 23.2663 19.8652C23.334 19.6752 23.334 19.4583 23.334 19.0244V11.0833M2.33398 9.91667L13.5833 4.29204C13.7363 4.21551 13.8128 4.17725 13.8931 4.16219C13.9642 4.14886 14.0371 4.14886 14.1082 4.16219C14.1885 4.17725 14.265 4.21551 14.4181 4.29204L25.6673 9.91667L14.4181 15.5413C14.265 15.6178 14.1885 15.6561 14.1082 15.6711C14.0371 15.6845 13.9642 15.6845 13.8931 15.6711C13.8128 15.6561 13.7363 15.6178 13.5833 15.5413L2.33398 9.91667Z"
        stroke="currentColor" stroke-width="2" stroke-linecap="round" stroke-linejoin="round" />
</svg>