<svg width="20" height="20" viewBox="0 0 20 20" fill="none" xmlns="http://www.w3.org/2000/svg">
<path fill-rule="evenodd" clip-rule="evenodd" d="M2.62397 7.954C3.19097 10.158 4.38697 12.428 5.78597 13.827C7.69897 15.74 9.55597 16.492 11.133 16.553C12.704 16.613 14.099 15.989 15.121 14.965C15.581 14.503 15.877 13.835 16.001 13.005C16.126 12.178 16.076 11.225 15.883 10.238C15.147 6.463 11.633 3.461 7.29497 2.405C5.37097 1.937 3.90297 2.014 3.10097 2.818C2.65297 3.268 2.37697 3.974 2.29797 4.888C2.22097 5.796 2.34097 6.855 2.62397 7.954ZM1.22797 4.844C1.31397 3.832 1.62797 2.897 2.29197 2.23C3.56397 0.954996 5.66197 1.044 7.61197 1.519C12.282 2.656 16.13 5.899 16.942 10.065C17.147 11.115 17.208 12.16 17.066 13.1C16.926 14.036 16.578 14.903 15.929 15.554C15.2952 16.1947 14.5347 16.6962 13.6962 17.0264C12.8576 17.3566 11.9595 17.5084 11.059 17.472C9.10397 17.398 6.99897 16.471 4.96397 14.436C3.42597 12.898 2.16897 10.48 1.57497 8.173C1.27697 7.016 1.13997 5.864 1.22797 4.844Z" fill="#15CD72"/>
<path fill-rule="evenodd" clip-rule="evenodd" d="M11.1049 6.91189C11.3979 6.95489 11.5949 7.19189 11.5439 7.44189L11.0329 9.97989L13.4429 12.7379L14.9599 14.7619L16.9669 17.7719C17.1139 17.9929 17.0239 18.2739 16.7659 18.3989C16.5079 18.5249 16.1799 18.4479 16.0329 18.2269L14.0399 15.2369L12.6779 13.4219L8.67592 12.8939C8.38292 12.8549 8.18192 12.6199 8.22692 12.3699C8.27192 12.1199 8.54692 11.9469 8.83992 11.9859L11.7829 12.3749L10.0559 10.3969L6.13592 7.03689C6.08688 6.99807 6.04727 6.94863 6.02007 6.8923C5.99287 6.83597 5.97879 6.77421 5.97888 6.71165C5.97898 6.6491 5.99325 6.58738 6.02062 6.53113C6.04799 6.47488 6.08776 6.42557 6.13692 6.38689C6.24476 6.30032 6.37899 6.2533 6.51728 6.25366C6.65556 6.25403 6.78955 6.30175 6.89692 6.38889L10.1099 9.14289L10.4839 7.28689C10.5339 7.03689 10.8119 6.86889 11.1049 6.91189Z" fill="#15CD72"/>
</svg>
