<svg width="375" height="375" viewBox="0 0 375 375" fill="none" xmlns="http://www.w3.org/2000/svg">
<path d="M46.3525 145.548C69.8108 145.548 69.8108 124.658 93.2691 124.658C116.727 124.658 116.727 145.548 140.186 145.548C163.644 145.548 163.644 124.658 187.102 124.658C210.56 124.658 210.56 145.548 234.019 145.548C257.477 145.548 257.477 124.658 280.935 124.658C304.394 124.658 304.394 145.548 327.852 145.548" stroke="#000000" stroke-width="12.5"/>
<path d="M37.4565 106.871L71.8537 278.857H302.169L337.602 106.871" stroke="#000000" stroke-width="12.5" stroke-linecap="round" stroke-linejoin="round"/>
<path fill-rule="evenodd" clip-rule="evenodd" d="M206.5 205.75C206.5 210.723 204.525 215.492 201.008 219.008C197.492 222.525 192.723 224.5 187.75 224.5C182.777 224.5 178.008 222.525 174.492 219.008C170.975 215.492 169 210.723 169 205.75C169 200.777 170.975 196.008 174.492 192.492C178.008 188.975 182.777 187 187.75 187C192.723 187 197.492 188.975 201.008 192.492C204.525 196.008 206.5 200.777 206.5 205.75Z" fill="#000000" stroke="#000000" stroke-width="1.25"/>
</svg>
