<svg width="375" height="375" viewBox="0 0 375 375" fill="none" xmlns="http://www.w3.org/2000/svg">
<path d="M111.85 98.2994H300L337.5 281.25H37.5C37.5 281.25 93.75 187.5 150 187.5C206.25 187.5 318.75 187.5 318.75 187.5" stroke="#000000" stroke-width="12.5" stroke-linecap="round" stroke-linejoin="round"/>
<path fill-rule="evenodd" clip-rule="evenodd" d="M163.525 235.625C163.525 225.27 155.791 216.875 146.25 216.875C136.709 216.875 128.975 225.27 128.975 235.625C128.975 245.98 136.709 254.375 146.25 254.375C155.791 254.375 163.525 245.98 163.525 235.625Z" fill="#000000" fill-opacity="0.75" stroke="#000000" stroke-width="1.33333"/>
<path fill-rule="evenodd" clip-rule="evenodd" d="M224.375 235.625C224.375 225.27 216.641 216.875 207.1 216.875C197.559 216.875 189.825 225.27 189.825 235.625C189.825 245.98 197.559 254.375 207.1 254.375C216.641 254.375 224.375 245.98 224.375 235.625Z" fill="#000000" fill-opacity="0.75" stroke="#000000" stroke-width="1.33333"/>
<path fill-rule="evenodd" clip-rule="evenodd" d="M287.275 235.625C287.275 225.27 279.541 216.875 270 216.875C260.459 216.875 252.725 225.27 252.725 235.625C252.725 245.98 260.459 254.375 270 254.375C279.541 254.375 287.275 245.98 287.275 235.625Z" fill="#000000" fill-opacity="0.75" stroke="#000000" stroke-width="1.33333"/>
</svg>
