<svg width="375" height="375" viewBox="0 0 375 375" fill="none" xmlns="http://www.w3.org/2000/svg">
<path fill-rule="evenodd" clip-rule="evenodd" d="M183.925 235C183.925 224.645 176.19 216.25 166.65 216.25C157.109 216.25 149.375 224.645 149.375 235C149.375 245.355 157.109 253.75 166.65 253.75C176.19 253.75 183.925 245.355 183.925 235Z" fill="#000000" fill-opacity="0.75" stroke="#000000" stroke-width="1.33333"/>
<path fill-rule="evenodd" clip-rule="evenodd" d="M256.025 235C256.025 224.645 248.291 216.25 238.75 216.25C229.209 216.25 221.475 224.645 221.475 235C221.475 245.355 229.209 253.75 238.75 253.75C248.291 253.75 256.025 245.355 256.025 235Z" fill="#000000" fill-opacity="0.75" stroke="#000000" stroke-width="1.33333"/>
<path d="M112.666 98.2618H300.816L338.316 281.212H38.3164C38.3164 281.212 94.5664 187.462 150.816 187.462C207.066 187.462 317.066 187.462 317.066 187.462" stroke="#000000" stroke-width="12.5" stroke-linecap="round" stroke-linejoin="round"/>
</svg>
