<svg width="375" height="375" viewBox="0 0 375 375" fill="none" xmlns="http://www.w3.org/2000/svg">
<path fill-rule="evenodd" clip-rule="evenodd" d="M297.025 187.186C297.035 124.521 247.996 73.7152 187.501 73.7152C127.006 73.7152 77.9672 124.521 77.9766 187.186C77.9672 249.851 127.006 300.657 187.501 300.657C247.996 300.657 297.035 249.851 297.025 187.186Z" stroke="#000000" stroke-width="9.75768"/>
<path d="M311.272 63.728H63.728V311.272H311.272V63.728Z" stroke="#000000" stroke-width="12.5"/>
<path fill-rule="evenodd" clip-rule="evenodd" d="M206.25 187.5C206.25 192.473 204.275 197.242 200.758 200.758C197.242 204.275 192.473 206.25 187.5 206.25C182.527 206.25 177.758 204.275 174.242 200.758C170.725 197.242 168.75 192.473 168.75 187.5C168.75 182.527 170.725 177.758 174.242 174.242C177.758 170.725 182.527 168.75 187.5 168.75C192.473 168.75 197.242 170.725 200.758 174.242C204.275 177.758 206.25 182.527 206.25 187.5Z" fill="#000000" stroke="#000000" stroke-width="1.25"/>
</svg>
