<svg width="375" height="375" viewBox="0 0 375 375" fill="none" xmlns="http://www.w3.org/2000/svg">
<path fill-rule="evenodd" clip-rule="evenodd" d="M297.025 187.186C297.035 124.521 247.996 73.7152 187.501 73.7152C127.006 73.7152 77.9672 124.521 77.9766 187.186C77.9672 249.851 127.006 300.657 187.501 300.657C247.996 300.657 297.035 249.851 297.025 187.186Z" stroke="#000000" stroke-width="9.75768"/>
<path d="M311.272 63.728H63.728V311.272H311.272V63.728Z" stroke="#000000" stroke-width="12.5"/>
<path fill-rule="evenodd" clip-rule="evenodd" d="M168.75 187.5C168.75 192.473 166.775 197.242 163.258 200.758C159.742 204.275 154.973 206.25 150 206.25C145.027 206.25 140.258 204.275 136.742 200.758C133.225 197.242 131.25 192.473 131.25 187.5C131.25 182.527 133.225 177.758 136.742 174.242C140.258 170.725 145.027 168.75 150 168.75C154.973 168.75 159.742 170.725 163.258 174.242C166.775 177.758 168.75 182.527 168.75 187.5Z" fill="#000000" stroke="#000000" stroke-width="1.25"/>
<path fill-rule="evenodd" clip-rule="evenodd" d="M243.75 187.5C243.75 192.473 241.775 197.242 238.258 200.758C234.742 204.275 229.973 206.25 225 206.25C220.027 206.25 215.258 204.275 211.742 200.758C208.225 197.242 206.25 192.473 206.25 187.5C206.25 182.527 208.225 177.758 211.742 174.242C215.258 170.725 220.027 168.75 225 168.75C229.973 168.75 234.742 170.725 238.258 174.242C241.775 177.758 243.75 182.527 243.75 187.5Z" fill="#000000" stroke="#000000" stroke-width="1.25"/>
</svg>
