<svg width="375" height="375" viewBox="0 0 375 375" fill="none" xmlns="http://www.w3.org/2000/svg">
<path fill-rule="evenodd" clip-rule="evenodd" d="M297.025 187.186C297.035 124.521 247.996 73.7152 187.501 73.7152C127.006 73.7152 77.9672 124.521 77.9766 187.186C77.9672 249.851 127.006 300.657 187.501 300.657C247.996 300.657 297.035 249.851 297.025 187.186Z" stroke="#000000" stroke-width="9.75768"/>
<path d="M311.272 63.728H63.728V311.272H311.272V63.728Z" stroke="#000000" stroke-width="12.5"/>
<path fill-rule="evenodd" clip-rule="evenodd" d="M148.5 186.75C148.5 191.723 146.525 196.492 143.008 200.008C139.492 203.525 134.723 205.5 129.75 205.5C124.777 205.5 120.008 203.525 116.492 200.008C112.975 196.492 111 191.723 111 186.75C111 181.777 112.975 177.008 116.492 173.492C120.008 169.975 124.777 168 129.75 168C134.723 168 139.492 169.975 143.008 173.492C146.525 177.008 148.5 181.777 148.5 186.75Z" fill="#000000" stroke="#000000" stroke-width="1.25"/>
<path fill-rule="evenodd" clip-rule="evenodd" d="M206.5 186.75C206.5 191.723 204.525 196.492 201.008 200.008C197.492 203.525 192.723 205.5 187.75 205.5C182.777 205.5 178.008 203.525 174.492 200.008C170.975 196.492 169 191.723 169 186.75C169 181.777 170.975 177.008 174.492 173.492C178.008 169.975 182.777 168 187.75 168C192.723 168 197.492 169.975 201.008 173.492C204.525 177.008 206.5 181.777 206.5 186.75Z" fill="#000000" stroke="#000000" stroke-width="1.25"/>
<path fill-rule="evenodd" clip-rule="evenodd" d="M264.5 186.75C264.5 191.723 262.525 196.492 259.008 200.008C255.492 203.525 250.723 205.5 245.75 205.5C240.777 205.5 236.008 203.525 232.492 200.008C228.975 196.492 227 191.723 227 186.75C227 181.777 228.975 177.008 232.492 173.492C236.008 169.975 240.777 168 245.75 168C250.723 168 255.492 169.975 259.008 173.492C262.525 177.008 264.5 181.777 264.5 186.75Z" fill="#000000" stroke="#000000" stroke-width="1.25"/>
</svg>
