<svg width="375" height="375" viewBox="0 0 375 375" fill="none" xmlns="http://www.w3.org/2000/svg">
<path d="M46.3525 145.548C69.8108 145.548 69.8108 124.658 93.2691 124.658C116.727 124.658 116.727 145.548 140.186 145.548C163.644 145.548 163.644 124.658 187.102 124.658C210.56 124.658 210.56 145.548 234.019 145.548C257.477 145.548 257.477 124.658 280.935 124.658C304.394 124.658 304.394 145.548 327.852 145.548" stroke="#000000" stroke-width="12.5"/>
<path d="M37.4565 106.871L71.8537 278.857H302.169L337.602 106.871" stroke="#000000" stroke-width="12.5" stroke-linecap="round" stroke-linejoin="round"/>
<path fill-rule="evenodd" clip-rule="evenodd" d="M173.5 205.75C173.5 210.723 171.525 215.492 168.008 219.008C164.492 222.525 159.723 224.5 154.75 224.5C149.777 224.5 145.008 222.525 141.492 219.008C137.975 215.492 136 210.723 136 205.75C136 200.777 137.975 196.008 141.492 192.492C145.008 188.975 149.777 187 154.75 187C159.723 187 164.492 188.975 168.008 192.492C171.525 196.008 173.5 200.777 173.5 205.75Z" fill="#000000" stroke="#000000" stroke-width="1.25"/>
<path fill-rule="evenodd" clip-rule="evenodd" d="M237.5 205.75C237.5 210.723 235.525 215.492 232.008 219.008C228.492 222.525 223.723 224.5 218.75 224.5C213.777 224.5 209.008 222.525 205.492 219.008C201.975 215.492 200 210.723 200 205.75C200 200.777 201.975 196.008 205.492 192.492C209.008 188.975 213.777 187 218.75 187C223.723 187 228.492 188.975 232.008 192.492C235.525 196.008 237.5 200.777 237.5 205.75Z" fill="#000000" stroke="#000000" stroke-width="1.25"/>
</svg>
