<svg width="23" height="32" viewBox="0 0 23 32" fill="none" xmlns="http://www.w3.org/2000/svg">
<g clip-path="url(#clip0_13185_151885)">
<path d="M22.1121 11.0563C22.1121 19.2817 14.5442 28.6228 11.9286 31.6037C11.8195 31.7285 11.685 31.8285 11.5341 31.897C11.3832 31.9656 11.2194 32.001 11.0536 32.001C10.8879 32.001 10.7241 31.9656 10.5731 31.897C10.4222 31.8285 10.2877 31.7285 10.1786 31.6037C7.56467 28.6228 -0.00488281 19.2817 -0.00488281 11.0563C-0.00488281 4.95007 4.94519 0 11.0514 0C17.1576 0 22.1121 4.95007 22.1121 11.0563Z" fill="#D83535"/>
<path d="M11.0561 16.2725C13.937 16.2725 16.2724 13.9371 16.2724 11.0562C16.2724 8.17531 13.937 5.8399 11.0561 5.8399C8.17525 5.8399 5.83984 8.17531 5.83984 11.0562C5.83984 13.9371 8.17525 16.2725 11.0561 16.2725Z" fill="white"/>
</g>
<defs>
<clipPath id="clip0_13185_151885">
<rect width="22.1126" height="32" fill="white"/>
</clipPath>
</defs>
</svg>
