<svg xmlns="http://www.w3.org/2000/svg" width="57" height="86" fill="none" xmlns:v="https://vecta.io/nano"><path d="M10.505 69.643c-.145 1.332-.273 2.57.181 3.733s1.51 2.289 2.834 2.933c1.018.495 2.202.71 3.44.71l1.1-.054c1.626-.155 3.265-.633 4.635-1.097l3.532-1.349.298-.122.244.596-.298.122-3.569 1.363c-1.384.469-3.079.966-4.78 1.128l-1.161.057c-1.308 0-2.595-.226-3.722-.775-1.453-.707-2.633-1.945-3.153-3.278s-.363-2.733-.222-4.037l.035-.32.641.07-.035.32z" fill="#e9cfff"/><path d="M19.989 63.8l-.09.45c-.898 4.435-.743 7.653.467 9.654.611 1.213 1.541 2.372 2.791 3.478 1.249 1.129 2.79 2.031 4.621 2.706 1.742.691 3.869.832 6.383.422.4-.017 1.648-.385 3.745-1.105l7.091-2.969c.701-.275 1.351-.491 1.952-.648 1.246-.337 2.376-.353 3.39-.047 1.869.877 2.542 2.199 2.018 3.966-.249.651-.618 1.242-1.107 1.776-.244.349-1.3 1.306-3.169 2.87-.479.486-.883 1.035-1.213 1.647.784-.62 1.35-1.009 1.698-1.167l3.511-1.421c.844-.476 1.441-.889 1.794-1.238 1.561-1.499 2.477-3.071 2.747-4.713.407-2.611-.397-4.881-2.414-6.809-1.17-1.002-2.532-1.654-4.087-1.957-.888-.134-1.523-.181-1.904-.141l-3.79.249c-.589-.02-1.12-.166-1.593-.44-1.087-.507-2.143-2.661-3.17-6.463L19.989 63.8z" fill="#f68437"/><path d="M19.473 53.623l-.332 3.264c-.137 5.721-.145 9.265-.025 10.633l6.403 1.464c.646.117 3.128.826 7.448 2.127.739.2 1.389.327 1.95.382 1.126.153 1.787-.244 1.983-1.19.126-.551.074-1.531-.156-2.941.732-3.787 1.197-6.687 1.394-8.699.175-1.734.177-3.209.004-4.427-.194-1.431-.655-2.958-1.383-4.582l-17.286 3.97z" fill="#b0eff2"/><path d="M21.344 55.078l11.64-1.406 1.207 8.776c.22 1.357.452 2.175.696 2.456-.387-.186-.697-.259-.93-.218-.871.289-1.929.562-3.174.818l-8.65 1.584-.789-12.01z" fill="#fff" fill-opacity=".439"/><path d="M24.457 55.19l.335.265 1.647 1.225.933.55c.634.303 1.151.422 1.552.358.372-.016.758-.185 1.159-.506.161-.149.28-.306.355-.47.04-.05.072-.188.096-.414-.009-.272-.096-.488-.261-.649-.165-.167-.36-.225-.586-.175-.392.157-.576.347-.553.569.014.13.126.223.337.276.142.008.303-.057.481-.196-.022.188-.053.308-.095.36-.077.134-.225.225-.442.272a.58.58 0 0 1-.472-.11c-.198-.163-.316-.459-.355-.888-.013-.314.067-.575.239-.783a1.5 1.5 0 0 1 1.099-.492c.447-.001.838.139 1.172.419.884.727.993 1.658.326 2.794-.299.517-.61.862-.934 1.037-.104.094-.673.215-1.709.364.456.688.997 1.044 1.623 1.068.149.01.299-.05.447-.181.149-.174.202-.336.156-.486-.096-.256-.399-.311-.91-.163.397-.351.777-.438 1.138-.263.46.259.505.664.136 1.216-.341.433-.825.612-1.451.538-.516-.029-1.136-.308-1.86-.835-.082.439-.251.784-.506 1.033-.33.332-.68.516-1.049.553-.246.017-.494-.045-.744-.188-.239-.161-.353-.321-.34-.482.065-.402.224-.634.478-.695.094-.028.265.032.512.18-.306.023-.483.089-.528.196-.098.167-.066.3.095.397.118.061.28.059.485-.006a.83.83 0 0 0 .402-.272c.219-.308.048-.714-.512-1.216-.246-.216-.534-.335-.866-.358-.042-.009-.162.009-.361.052l-.879.317c-.151.038-.292.043-.423.013-.29-.055-.499-.247-.627-.574-.077-.346.023-.614.301-.801.255-.063.405-.004.45.178.009.039-.022.131-.091.276.013-.15-.013-.235-.078-.256-.113-.044-.2-.015-.262.086-.104.242-.087.428.051.559.093.046.229.01.407-.108.104-.057.197-.189.279-.397.124-.147.193-1.21.207-3.188z" fill="url(#A)"/><path d="M30.662 54.978l.059.075-.106-.036-.211-.105-.247-.036-.412.047.248-.067.273-.025.397.147zm-.171 3.018l.049-.054.186-.167.162-.125-.075.083-.289.238-.033.026zm.654-.345l-.175.137.158-.173.114-.099-.096.136zm.107-.02l-.137.073.217-.276.032-.1.045-.047.094-.167.129-.559.046-.124-.102-.535-.279-.539-.403-.49-.263-.161-.631-.104-.513.118-.541.341-.254.553.034.293.106.245.468.38.121-.068.243-.158-.352.174.27-.164-.198.08-.413-.197.019-.048-.118-.271.031-.47.338-.345-.317.364-.007.065.234-.327-.216.322.214-.288-.087.114.112-.082.227-.107.424-.202.195-.021.22-.024.187.065.218.118.093.139.24.275.049.111.219.474.072.465.025-.02.019.191-.002.142.042-.386-.081.568-.199.394.085-.197-.124.143.156-.271-.026.017-.193.227-.288.339-.338.232-.093.031-.218.06-.391.048-.524-.038-.495-.114-.069-.007.057.045.473.11.34.038.33-.018-.004.043-.21.003-.193-.015-.399-.037-.445-.106-.273-.032-.471-.171-.155-.041.117.087.053.056-.293-.09-.277-.185-.077-.017-.201-.153-.196-.152-.044-.071-.444-.315-.155-.154-.288-.233-.014.024-.028.022.12.134.017.084.117.165-.026.006.335.288.105.019.182.121.13.11.334.2-.265-.213.07-.011.015.022.293.21.115.045.266.128.069.054.168.107-.386-.156.238.101.089.097.392.151.321.122.293.064-.163-.018.144.067.537.07h-.199l-.168.01.667.039.628-.134.156-.066.537-.351.438-.489.09-.164-.213.295zm-4.472-.127l-.174-.144.203.132-.081-.032.052.043zm-.042-.347l.305.204.06.028-.185-.157-.189-.163-.241-.135-.148-.12-.008-.002.084.089.409.302-.088-.047z" fill="url(#B)"/><path d="M29.796 60.385l.052-.019.109-.003.313.007.104.012-.332.031-.245-.027zm-2.298-1.12l.109.059.162.127-.023.006-.248-.191zm.339.507h.092l.133.05-.038.009.362.216.158.13.561.23.582.163.371.033.516-.028.578-.236.338-.411.007-.234-.229-.482-.076-.06.048.075.001.078.16.384-.019.133-.28.38-.047.012.109-.104-.177.101-.027.001.133-.112-.278.125-.476.124-.08.006-.296-.018-.09-.027-.426-.103-.25-.107-.498-.215-.128-.024-.136-.026.205.112-.472-.216-.066-.073-.02-.055.216.124-.296-.231-.361-.238-.108-.134-.207-.283-.284-.395-.313-.421.031.088.262.368.19.242.051.125-.188-.251-.165-.21-.263-.349-.292-.278-.08-.073.062.15-.223-.216-.169-.247-.091-.107-.165-.252-.156-.191-.172-.243-.161-.17.021.091.081.174-.005.083.028.09.2.217.128.128.192.239-.087-.157.15.148.038.066.126.092.125.23.003.036-.086-.089.081.164.26.359.138.196-.089-.071.245.316-.121-.096.159.219.399.433.205.19.515.367-.018-.017-.05-.048zm-2.079-2.728l.227.276-.071-.152-.221-.294-.114-.114-.018.006.157.207.04.072z" fill="url(#C)"/><path d="M24.806 58.18l.019.095-.084.242-.187.308-.297.246-.495.037-.284-.132-.044-.019.142.142.388.117-.012.017.038.022.26-.028.211-.122.209-.184.215-.376-.007-.109.034-.226-.001.157.067-.303.032-.325-.019-.534v.332l-.016.081-.015-.302-.068-.416-.049.027-.029-.254-.017-.199-.055-.245-.029.112.005.211.033.127.053.049.019.138-.018.149-.014.088.016.329-.013.15.002.17v.42l.01.008zm.034-1.583l.031.056-.043-.218.018.173-.006-.012z" fill="url(#D)"/><g fill="#86cae1"><path d="M36.761 56.897a.6.6 0 0 0 .005-.102l-.008-.109c-.004-.034-.009-.066-.091-.414l-.277-1.061-.067-.177-.094-.204-.124-.227a3.2 3.2 0 0 0-.16-.238l-.19-.241a3.71 3.71 0 0 0-.347-.357l-.511-.472-.314-.273c-.07-.052-.07-.052-.032-.009a1.31 1.31 0 0 0 .141.237l.376.479.401.492.166.243.142.234.125.22.108.192.079.159.289.724.277.689.039.093c.014.033.029.069.042.087.017.038.023.016.026.036zM18.262 58.23a3.66 3.66 0 0 0 .268-.282l.528-.617a10.03 10.03 0 0 0 .593-.814l.248-.349a2.79 2.79 0 0 1 .188-.199l.211-.191c.065-.05.065-.05.019-.021l-.194.093a1.77 1.77 0 0 0-.458.334 11.34 11.34 0 0 0-.593.705c-.234.304-.409.569-.539.783s-.216.376-.236.445c-.044.108-.012.074-.035.113z"/><path d="M19.455 56.897c-.023.039-.061.132-.1.244l-.13.397-.174.629c-.076.306-.142.735-.153.83l-.038.325a2.23 2.23 0 0 0-.018.37c.008.112.008.112.019.04 0 0 .072-.136.102-.264l.082-.342.149-.607.169-.777.075-.453a1.68 1.68 0 0 0 .024-.297c.003-.094-.015-.054-.007-.096zm14.704 14.218c-.089-.197-.295-.548-.492-.876l-.529-.951-.416-.9-.349-.989-.336-1.152-.309-1.195c-.085-.344-.085-.344-.048-.111l.072.92.217 1.251c.089.389.198.749.317 1.081l.39.946c.15.31.338.619.556.929s.466.62.627.755c.292.299.169.128.299.293z"/><path d="M34.598 71.053a3.11 3.11 0 0 0-.154-.298l-.173-.319a2.81 2.81 0 0 1-.139-.331l-.139-.436-.116-.439-.094-.504-.1-.89-.033-1.082.039-1.092c.02-.311.02-.311-.011-.106l-.186.796a8.3 8.3 0 0 0-.125 1.139 6.31 6.31 0 0 0 .043 1.049l.107.623.131.449.182.466c.07.158.126.263.19.364a2.64 2.64 0 0 0 .221.3c.083.098.177.193.24.229.108.088.071.029.116.081zm-4.47-1.961l-1.154-1.226a11.97 11.97 0 0 1-1.213-1.545 12 12 0 0 1-.88-1.616c-.209-.47-.209-.47-.085-.15a11.43 11.43 0 0 0 .483 1.275 8.37 8.37 0 0 0 1.049 1.718c.419.527.917.991 1.217 1.168.577.384.306.168.583.376z"/><path d="M33.639 69.221l-.1-.803c-.013-.121-.019-.513-.019-1.175-.008-.453.052-1.05.178-1.789.004-.002.01.018.017.06l.086.744.08.456c.094.465.185.801.273 1.009.18.479.46.83.84 1.054l-1.356.443z"/><path d="M31.793 65.401c.051.224.149.516.295.876l.987 2.273c.239.491.686 1.079 1.342 1.764l-.574.368c-.133-.038-.284-.187-.454-.447-.379-.685-.62-1.199-.722-1.543-.282-.78-.435-1.402-.458-1.867l-.416-1.424zm-12.604-7.974c.32-.502.776-1.331 1.368-2.487.084-.076.112.074.085.451-.093.642-.236 1.182-.43 1.618-.089.285-.5 1.029-1.232 2.232l.209-1.814z"/></g><path d="M25.995 61.4l-.549.408-5.482 3.744c-1.128.64-2.384 1.02-3.768 1.14a24.16 24.16 0 0 0 1.382 2.667c.417.6.675.928.773.985a2.64 2.64 0 0 0 .568.433c.419.236.907.285 1.464.147.496-.081 1.25-.494 2.262-1.24 1.556-1.225 3.519-3.148 5.889-5.768L25.995 61.4z" fill="#d2a0ff"/><path d="M34.155 57.766l.206-.212 1.088.046c-.223 1.117-.505 2.118-.846 3.002-.873 2.207-2.113 4.121-3.719 5.74-1.073 1.111-2.476 2.235-4.208 3.373-2.003 1.324-4.971 3.035-8.903 5.134l-.932-1.309 10.531-7.502 6.784-8.271z" fill="#7626bc"/><path d="M9.219 69.534l.744-.576c-.114-.158-.159-.252-.136-.284.016-.041.111-.054.285-.039-.103-.147-.142-.234-.117-.263.018-.037.11-.046.277-.028-.081-.179-.106-.29-.076-.334.018-.052.117-.085.295-.099-.03-.148-.035-.246-.016-.296s.094-.057.235-.01c-.026-.206-.012-.33.041-.372.038-.053.167-.072.386-.058-.038-.119-.046-.201-.023-.245s.121-.061.292-.04c.003-.142.049-.234.139-.276.099-.045.345-.032.736.039l-.638-1.298.899-.619c.784-.012 1.695-.336 2.733-.973.475-.3 1.019-.688 1.634-1.165l3.786-3.029 1.224-.918c.787-.578 1.804-1.197 3.051-1.857l9.22.931.183.425c-.887 2.663-1.749 4.509-2.588 5.538-.782 1.109-2.669 2.878-5.66 5.306 1.505-2.091 2.337-3.612 2.497-4.561.051-.412-.03-.747-.242-1.005-.337-.38-.805-.648-1.405-.805-1.509-.47-2.719-.501-3.629-.091-.946.3-2.96 1.529-6.044 3.687-.108.06-.108.208.001.445.594 1.114 1.104 1.919 1.528 2.414.461.554.929.76 1.404.616.143-.017.427-.15.854-.398l4.086-2.633c1.018-.665 1.687-1.213 2.008-1.645.297-.42.338-.807.125-1.162-.161-.369-.722-.959-1.681-1.77 1.726.189 2.911.399 3.557.631 1.135.331 1.504.969 1.107 1.914-.492 1.134-1.912 2.629-4.26 4.485-2.44 1.89-5.247 3.659-8.421 5.31-.728-.804-1.37-1.609-1.927-2.415l-2.932-4.511c.009.231-.001.367-.029.408.008.059-.097.077-.315.052-.031.038-.026.139.014.301l-.34-.061-.024.34-.319-.076.097.308-.446-.015.199.267-.347.114.13.198-.399.126.191.809-1.944-.736z" fill="#b76bfa"/><path d="M24.972 56.808l-.204 2.508c-.974.473-1.899 1.007-2.776 1.6l-1.269.924-4.114 3.203c-.624.465-1.206.833-1.745 1.103a2.26 2.26 0 0 1-1.128.239l-1.197-1.65c.823-.037 1.748-.401 2.775-1.09.49-.311 1.247-.855 2.271-1.633l3.676-2.904 1.112-.833 1.101-.729 1.496-.739z" fill="#d2a0ff"/><path d="M28.402 57.105l.056.054c.116.105.216.22.299.345.054.084.091.178.112.282.011.023.015.108.01.255a6.43 6.43 0 0 1-.085.568l-.018.263c.009.157.057.277.145.36.123.114.267.163.432.148.181-.02.347-.107.497-.261s.251-.349.307-.582a1.48 1.48 0 0 0 .02-.646c-.034-.194-.168-.398-.401-.612l-1.373-.174zm-16.785 8.2l1.073 2.096 1.053-1.011-1.205-1.655-.922.569zm12.063-5.394c.153-.857.222-1.413.205-1.668 0-.286-.092-.543-.276-.771.252-.196.705-.423 1.36-.68.179.141.302.268.37.38.087.129.134.303.14.521.009.102-.015.317-.073.643l-.215.912-1.512.663z" fill="#fff6f0"/><path d="M25.543 63.5l.058.118c.07.271-.049.612-.355 1.023s-.744.801-1.303 1.164c-.541.336-1.026.534-1.452.592s-.691-.046-.791-.31c-.07-.271.049-.612.355-1.023s.744-.801 1.303-1.164c.541-.336 1.026-.533 1.452-.592a1.33 1.33 0 0 1 .369-.003l.149.038.123.065.093.093z" fill="#7626bc"/><path d="M25.207 63.058l.058.118c.07.271-.049.612-.355 1.023s-.744.801-1.303 1.164c-.541.336-1.026.533-1.452.592s-.691-.046-.791-.31c-.07-.271.049-.612.355-1.023s.744-.801 1.303-1.164c.542-.336 1.026-.534 1.452-.592a1.33 1.33 0 0 1 .369-.003l.149.038.122.065.093.093z" fill="#fff6f0"/><path d="M34.289 45.308l.416.298c1.528 1.068 2.767 2.12 3.715 3.154.83.875 1.613 1.952 2.35 3.231.795 1.553 1.267 2.753 1.416 3.603.263 1.068.383 2.218.361 3.449-.069 1.86-.372 3.841-.91 5.943l-2.308 7.412c-.834 1.357-2.417 1.414-4.749.17-.185-.145-.312-.288-.381-.428a1.44 1.44 0 0 1-.134-.624c-.253-.449-.412-.773-.479-.973-.147-.467-.193-.812-.135-1.033.083-.367.158-.591.225-.674l1.523-2.482c.293-.56.549-1.238.768-2.036.407-1.52.678-3.486.813-5.9.113-2.129-.006-3.507-.359-4.133 1.081-1.492 1.606-2.515 1.575-3.07-.031-.233-.18-.4-.448-.501l-2.402-.581c-.485-.154-.973-.377-1.462-.668-.857-.505-1.964-1.344-3.321-2.516l3.926-1.64zM20.357 48.79l-1.179.88-7.555 5.988c-1.291 1.241-1.898 2.453-1.819 3.638l.062.427c.061.281.155.55.28.808a4.63 4.63 0 0 0 1.025 1.364c.424.387.874.687 1.349.901.536.252 1.395.519 2.578.802.397.141.61.236.641.283.074.03.206.157.395.383l.643 1.206a1.8 1.8 0 0 0 .599.529c.845.457 1.898.201 3.158-.768 1.285-1.021 1.941-1.808 1.97-2.361.006-.174-.03-.34-.108-.499-.502-.918-.787-1.51-.856-1.778l-.123-.463-.111-.865c-.077-.265-.375-.419-.892-.464-.531-.058-1.444-.054-2.739.012l3.094-2.789c.056-.056.109-.152.157-.288 0-.32.052-.557.156-.712.199-.346.357-.59.476-.734.732-.977 2.24-2.748 4.524-5.313l-5.724-.185z" fill="#f68437"/><path d="M21.041 56.044l-2.729 2.448c-1.408-.559-2.475-1.14-3.2-1.744-.722-.546-1.827-1.691-3.315-3.434.73-.316 1.252-.587 1.567-.814 1.293-1.146 2.361-1.932 3.205-2.358 1.067-.559 2.689-1.257 4.866-2.093 4.427-1.282 7.428-1.971 9.004-2.065 1.443-.156 2.734-.1 3.873.169 1.401.355 2.595.945 3.583 1.769 2.025 1.655 3.77 4.367 5.233 8.136-1.919.229-4.026.354-6.321.375l-.433-2.071-1.885-2.565-3.976 2.102-9.185.989-.286 1.157z" fill="#b0eff2"/><path d="M21.418 48.874l.233.232c.846.869 1.615 1.453 2.307 1.753.764.335 1.64.442 2.628.322 1.057-.14 1.944-.471 2.661-.993.546-.349 1.221-1.119 2.024-2.309l-9.854.994z" fill="#f68437"/><g fill="#f1672a"><path d="M12.383 57.315l.307.011.433.035.443.068.336.077.225.077.319.122.336.129c.102.039.179.071.317.145l.512.297.437.289.321.212c.093.058.18.103.248.128l.231.08c.095.03.215.056.36.071a2.02 2.02 0 0 0 .515-.018 3.27 3.27 0 0 0 .603-.167c.181-.067.181-.067.057-.038l-.469.019a3.06 3.06 0 0 1-.53-.029 1.81 1.81 0 0 1-.349-.088l-.223-.095c-.058-.027-.114-.055-.179-.1l-.257-.191-.396-.281-.571-.346-.39-.198-.33-.122-.353-.112-.259-.073c-.06-.015-.184-.038-.327-.054a4.23 4.23 0 0 0-.459-.026 3.32 3.32 0 0 0-.469.029 1.06 1.06 0 0 0-.338.091c-.105.05-.052.044-.102.06z"/><path d="M17.884 58.472a3.02 3.02 0 0 0-.396.233.28.28 0 0 1-.038.044l-.041.04-.06.055-.103.086-.098.084c-.026.027-.026.027-.005.017 0 0 .054.003.099-.012a1.03 1.03 0 0 0 .132-.054l.101-.053.052-.032.051-.033c.017-.011.039-.018.12-.145.19-.221.074-.135.183-.229zm3.449 5.779l-.301-.107a2.3 2.3 0 0 1-.382-.197c-.134-.084-.273-.191-.41-.315l-.417-.399a5.56 5.56 0 0 1-.42-.481l-.382-.522c-.103-.153-.103-.153-.043-.046l.203.439a5.44 5.44 0 0 0 .348.583 3.23 3.23 0 0 0 .395.484 2.45 2.45 0 0 0 .467.353 1.95 1.95 0 0 0 .458.204c.147.041.288.053.355.034.129-.021.067-.029.128-.031zm-1.775 1.481l-.382-.129c-.146-.05-.285-.114-.418-.195a3.16 3.16 0 0 1-.383-.285 3.46 3.46 0 0 1-.347-.326c-.11-.122-.218-.266-.323-.431a5.29 5.29 0 0 1-.284-.505c-.074-.153-.074-.153-.035-.047a4.45 4.45 0 0 0 .109.429c.065.204.146.388.24.552s.203.308.323.428.268.231.425.32.319.155.485.195.335.052.421.028c.169-.024.086-.034.169-.034zm15.686 6.627l-.268-.138-.038-.032c-.013-.012-.026-.025-.038-.04s-.022-.028-.059-.092a1.44 1.44 0 0 1-.099-.205c-.028-.073-.052-.152-.072-.237a2.21 2.21 0 0 1-.045-.343 3.14 3.14 0 0 1 0-.531l.054-.538c.003-.164.003-.164-.032-.065 0 0-.172.164-.238.362s-.102.399-.11.6a1.64 1.64 0 0 0 .059.498 1.92 1.92 0 0 0 .109.281c.042.086.09.165.145.236s.114.133.138.153a.49.49 0 0 0 .071.051.46.46 0 0 0 .074.035c.025.009.058.016.158.004.19.009.101-.021.192 0zm.967.681l-.014-.133-.016-.182-.007-.212.011-.238.025-.246.035-.286.051-.436a4.98 4.98 0 0 1 .102-.484l.13-.465c.043-.129.043-.129.005-.047l-.19.307c-.086.156-.153.317-.208.48a3.29 3.29 0 0 0-.127.489 2.14 2.14 0 0 0-.038.34l.003.261.02.257c.01.085.026.165.045.235a1.57 1.57 0 0 0 .065.192c.024.058.05.108.07.129.029.043.028.017.038.039zm1.413.025l.05-.263a3.59 3.59 0 0 1 .1-.383l.143-.44.119-.358c.042-.107.09-.213.144-.318l.163-.289c.052-.076.052-.076.012-.03l-.183.168a1.87 1.87 0 0 0-.234.285 2.27 2.27 0 0 0-.182.323c-.052.113-.112.288-.146.454a2.64 2.64 0 0 0-.056.449c-.004.134.008.252.03.304.029.099.032.05.039.097zm.888-.009c.138-.055.37-.208.572-.377a3.71 3.71 0 0 0 .527-.539 3.96 3.96 0 0 0 .348-.515l.122-.245.075-.18c.023-.062.044-.125.111-.379l.56-2.198.389-1.63.044-.225.037-.263c.005-.081.005-.081-.013-.032 0 0-.079.081-.125.164l-.117.225c-.032.067-.059.126-.333.888s-.698 2.262-.803 2.706l-.134.558-.046.172-.05.165a3.57 3.57 0 0 1-.189.441 3.41 3.41 0 0 1-.375.568l-.41.492c-.196.199-.076.121-.19.207zm3.629-15.248c-.002.003-.006.011-.009.025l-.012.056a1.1 1.1 0 0 0-.016.13l-.016.281-.006.228-.002.136-.005.125-.007.139-.011.171-.033.38-.061.675-.063.898-.075.818-.114.788-.144.738c-.045.203-.045.203-.009.069l.168-.526.204-.784.151-.775.115-.915.065-.774.023-.49.004-.218-.002-.146-.006-.137-.008-.124-.021-.196-.046-.295-.033-.171-.014-.064-.007-.032zm-.407 10.207c.014.079.086.228.205.368s.279.274.475.4.429.243.697.351a7.16 7.16 0 0 0 .786.268l.425.091a3.2 3.2 0 0 0 .333.029h.355l.34-.02.256-.031.346-.061.485-.101.56-.136c.168-.04.168-.04.054-.024l-.437.008-.542.027-.394.023-.244.007-.302-.013-.348-.02-.317-.027-.283-.041c-.088-.017-.409-.099-.695-.179a6.04 6.04 0 0 1-.753-.263c-.217-.093-.401-.19-.553-.292s-.275-.209-.34-.256c-.1-.113-.074-.043-.109-.109z"/></g><path d="M32.212 47.512a2.3 2.3 0 0 0-.336.394c-.092.12-.406.58-.942 1.38l-.241.334c-.188.243-.359.441-.513.592-.232.221-.425.383-.578.486-.263.191-.764.508-1.501.95a.67.67 0 0 0-.175.153l.16-.002a4.34 4.34 0 0 0 .442-.13c.32-.112.589-.227.807-.343.358-.18.736-.461 1.133-.842.357-.359.706-.813 1.047-1.363a9.63 9.63 0 0 0 .514-1.021l.133-.344.061-.232z" fill="#86cae1"/><path d="M23.844 50.335l.009.005c.111.046.338.081.683.107l1.098.036c1.083-.037 1.911-.111 2.485-.223.593-.12 1.034-.25 1.324-.392.584-.283 1.005-.556 1.264-.82.003.005-.072.025-.225.06l-.117.038-1.543.543c-.171.057-.431.121-.781.191l-1.058.138c-.245.026-.764.056-1.559.09l-.826.072c-.416.04-.668.092-.756.154z" fill="#f1672a"/><path d="M11.165 56.547l-.004.002c-.141.09-.33.296-.567.618-.157.212-.29.463-.4.755-.07.259-.105.548-.104.866l.026.48.031.207c.003.024.018.083.044.176.002.008.003.018.003.032-.001-.007.001-.02.006-.039.028-.077.053-.169.075-.276l.101-.573.052-.262.063-.258.115-.383a4.12 4.12 0 0 1 .181-.468l.285-.587.053-.119c.04-.094.053-.151.041-.171z" fill="#f9c257"/><path d="M21.07 74.172l.002.012c.168.412.56.995 1.175 1.747.788.913 1.47 1.581 2.047 2.004.58.453 1.352.895 2.317 1.327.783.315 1.421.501 1.913.556a5.02 5.02 0 0 0-.697-.41l-1.622-.773-.448-.232c-.43-.231-.835-.491-1.216-.778a10.17 10.17 0 0 1-1.031-.908l-.494-.516-.744-.853-.629-.683c-.275-.294-.465-.458-.572-.493zm31.271 2.585l-.002.007a1.28 1.28 0 0 0 .008.291l.182 1.308.039.658a3 3 0 0 1-.285 1.222c-.168.391-.465.83-.89 1.317l-.476.483-1.333 1.194c-.096.088-.202.202-.318.341a6.62 6.62 0 0 0 2.277-1.596c.704-.746 1.147-1.487 1.327-2.22a3.63 3.63 0 0 0 .043-1.443c-.06-.319-.146-.631-.259-.936-.139-.377-.243-.585-.313-.624z" fill="#f1672a"/><path d="M36.879 62.537l.003-.003c.081-.111.185-.386.312-.827a7.22 7.22 0 0 0 .164-.962l.041-.572.015-.695c-.019-.459-.058-.787-.116-.984.001.007 0 .014-.002.02l-.035.157-.01.065-.037.38-.021.363-.02.727-.039.518-.062.454-.069.372-.03.17-.083.504-.022.198a.46.46 0 0 0 .002.081c.001.013.004.022.009.028v.004z" fill="#f9c257"/><path d="M6.606 28.497l-.151-.166c-1.763-1.793-2.563-4.006-2.399-6.637.085-1.048.252-1.9.5-2.557.057-.407.889-2.104 2.496-5.09.329-.789.471-1.492.427-2.11.327.46.975.95 1.943 1.47.294.2 1.144.49 2.549.869.429.176.936.454 1.518.832l19.986-.97c.242-.521.535-.943.878-1.267l3.918-3.15c1.054-.985 1.663-1.735 1.826-2.25l.191-.029c.078.308.27.629.576.963l3.837 4.107c.543.794 1.233 2.25 2.071 4.368.383 1.311.481 2.476.294 3.494-.401 2.372-.841 3.739-1.318 4.099 1.653 1.921 3.999 2.684 7.037 2.29l-1.72 2.164c.475.007.873-.042 1.193-.146l.552-.265c.293-.183.475-.338.547-.467l.012.059c-.317 1.681-1.063 3.688-2.238 6.021.589-.177 1.333-.727 2.232-1.651-.069.803-.598 2.206-1.587 4.209-1.318 2.792-3.587 5.165-6.805 7.12-4.459 2.971-10.412 5.08-17.857 6.327-2.675.346-6.004.337-9.987-.025-4.157-.391-7.112-.982-8.863-1.774-2.521-1.129-4.443-2.662-5.765-4.597-.666-.918-1.01-1.91-1.033-2.976.673.251 1.196.38 1.572.386C1.854 40.155.841 38.617 0 36.536c1.048.016 1.738-.188 2.068-.612-.472.045-1.114-.174-1.924-.657 2.892-1.359 5.046-3.616 6.463-6.77z" fill="#f68437"/><path d="M19.446 39.317l-.266.195c-.967.724-1.807 1.256-2.52 1.595-.507.269-1.249.514-2.226.735-1.937.409-3.453.291-4.546-.353-1.225-.702-2.095-1.695-2.61-2.98-.42-1.243-.515-3.174-.285-5.795 1.63-.672 2.917-1.045 3.862-1.119 1.123-.104 2.069.072 2.839.527.91.497 1.786 1.265 2.628 2.303.284.335.598.823.944 1.464.134.246.394.856.779 1.829a4.08 4.08 0 0 0 .323.621c.262.387.621.712 1.078.977zm9.038-.913l.084-.063c.393-.295.631-.646.715-1.052.021-.041.061-.254.119-.637l.274-2.072c.08-.447.201-.899.364-1.357a9.62 9.62 0 0 1 1.397-2.536c.285-.369.578-.689.879-.959.217-.226.609-.488 1.178-.785.8-.362 1.806-.553 3.021-.575 1.868-.019 2.962.052 3.279.214l.102 1.139.476 3.419c.073.848.076 1.441.009 1.779-.203 1.19-.846 2.205-1.928 3.046-.749.533-1.418.879-2.007 1.037-.806.28-1.816.459-3.032.536-1.637.1-3.281-.278-4.931-1.133z" fill="#fcfcfc"/><path d="M37.739 18.323l-.042-.171c-.375-1.431-.372-2.752.009-3.962a7.32 7.32 0 0 1 .602-1.48c.056-.163.537-.923 1.444-2.282a3.18 3.18 0 0 0 .366-.846c.222.439.439.766.651.981l.338.329 1.743 1.507c.429.411.863.912 1.302 1.501.792 1.127 1.295 2.183 1.51 3.169.32 1.416.409 2.708.268 3.875-.082.908-.409 1.879-.98 2.914l-1.421-1.504 1.078-.234c.202-.054.29-.101.262-.142l-.188-.079c-.583-.115-1.296-.309-2.138-.584 1.056-.33 1.742-.425 2.059-.285l-1.089-.882c-.728-.586-1.395-.97-2.003-1.152-.428-.143-1.116-.151-2.063-.023l1.276-.683-2.983.032zM7.018 27.624l-.107-.142c-1.049-1.36-1.634-2.806-1.758-4.338-.126-1.212.161-2.735.862-4.568.451-1.187 1.174-2.614 2.17-4.281 1.511.895 2.514 1.688 3.009 2.38.551.645 1.153 1.929 1.804 3.851l-2.486.403.746.319-.355.245a9.23 9.23 0 0 1-1.288.686l-3.077 1.314c.507-.053 1.191.089 2.051.424-1.292.73-1.92 1.135-1.884 1.214l1.296-.095c-.171 1.016-.499 1.879-.984 2.588z" fill="#fabcbd"/><g fill="#a83d11"><path d="M26.295 40.812l-.148-.037c-.884-.234-1.569-.31-2.054-.227a3.06 3.06 0 0 0-.359.076c-.06.009-.238.071-.534.186-.295.122-.706.333-1.232.635.371.543.708.949 1.011 1.218.246.226.566.4.962.523.279.072.5.074.664.005.065-.019.161-.075.287-.167l.603-.487c.189-.191.321-.376.398-.553.101-.189.235-.58.401-1.173z"/><path d="M24.47 43.001l.491 2.665c.007.037-.018.072-.054.079s-.072-.018-.079-.054l-.491-2.665c-.007-.037.018-.072.054-.079s.072.018.079.054z"/><path d="M28.295 42.266c-.15.657-.305 1.346-.775 1.983a4.39 4.39 0 0 1-2.097 1.489h.001 0-.001c-.387.126-.79.191-1.194.191a3.64 3.64 0 0 1-1.443-.295c-.835-.36-1.566-1.055-2.273-1.725-.058-.054-.06-.145-.005-.203s.145-.06.203-.005c.717.68 1.41 1.334 2.189 1.67.424.183.876.271 1.329.271a3.57 3.57 0 0 0 1.105-.177h-.001 0-.001l.002-.001c.798-.26 1.523-.801 1.955-1.386s.575-1.213.726-1.876c.018-.077.095-.126.172-.108s.125.095.108.172z"/><path d="M28.881 42.803c-.21-.192-.389-.353-.6-.413l-.061-.018.101.023-.04-.006a.97.97 0 0 0-.269-.033 3.66 3.66 0 0 0-.512.051c-.078.011-.151-.043-.163-.121s.043-.151.121-.162l.553-.054a1.24 1.24 0 0 1 .348.044c.288.083.517.296.715.478.058.054.062.144.009.203s-.144.062-.203.009zm-8.885 1.277l-.003.004h0l.003-.004c.156-.179.337-.39.585-.501s.544-.117.803-.125c.079-.003.145.06.148.139s-.06.145-.139.148c-.275.008-.511.018-.694.1s-.321.239-.486.428l.003-.004h0c-.055.064-.146.07-.205.018s-.066-.143-.014-.202z"/></g><g fill="#f1672a"><path d="M19.058 19.196l-.003.006c-.027.096-.037.27-.03.521a7.24 7.24 0 0 0 .088.879c.079.488.202.896.368 1.226.154.293.4.599.74.916.434.376.824.633 1.17.77-.011-.008-.026-.024-.044-.049a2.55 2.55 0 0 0-.203-.281l-.651-.778a4.52 4.52 0 0 1-.395-.6l-.35-.744-.128-.339-.071-.209-.325-1.01c-.071-.193-.127-.296-.166-.308zM6.926 23.35h.008c.119-.004.334-.061.645-.171l2.25-.854.992-.34 1.287-.41.26-.099.227-.108c.011-.006.027-.011.048-.014-.374-.042-.847-.023-1.419.055a7.73 7.73 0 0 0-1.468.334l-.751.294-.908.473c-.737.43-1.127.71-1.171.841zm3.469-2.403l.005.002c.057.022.162.041.313.055a4.96 4.96 0 0 0 .406.02l.574-.004.434-.023.172-.019a7.79 7.79 0 0 0 1.055-.293l.411-.164c.074-.031.177-.087.308-.168.02-.011.034-.016.042-.016-.012.004-.03.005-.053.005l-.252-.005-.281.018-.782.08-.465.043-.103.012-1.359.286c-.273.071-.414.128-.424.17zM6.76 25.029l.003.001c.183.004.41-.032.68-.108a4.31 4.31 0 0 0 .769-.293 5.47 5.47 0 0 0 .673-.541l.255-.257c.063-.069.128-.151.196-.246l.033-.032c-.011.008-.027.017-.049.026l-.212.082-.144.068-.959.498-.386.248-.535.307-.135.082c-.14.09-.203.145-.188.165zm8.848-7.859l-.004-.009c-.045-.113-.377-.408-.998-.886-.612-.451-1.08-.755-1.404-.913l-1.171-.566-.627-.248-1.563-.576c-.35-.146-.627-.279-.833-.399a3.47 3.47 0 0 1-.576-.429l-.887-.91c.072.257.15.463.232.617.319.635.774 1.112 1.365 1.431.119.068.342.167.668.296l2.233.849.598.288 2.327 1.23c.316.159.529.234.638.224zm21.623 1.302l.005.002c.116.034.372.042.767.025l.194-.009.743-.039.471-.075c.048-.008.153-.02.315-.035l.184-.011.103-.003.157-.001.255.001.2-.01a.21.21 0 0 1 .053.007c-.013-.003-.032-.012-.057-.025l-.154-.09-.117-.054c-.358-.152-.839-.215-1.443-.19-.325.051-.709.142-1.152.271-.316.095-.491.173-.525.235zm2.019.64l.003.001a1.3 1.3 0 0 0 .26.04l.743.032.379.034c.249.028.51.089.783.182.274.101.532.22.775.356l1.542.922.318.178c.209.107.37.161.486.161.011.003.054-.005.129-.024-.035.015-.093-.013-.174-.083l-1.322-1.177a5.05 5.05 0 0 0-1.138-.699c-.402-.181-.854-.268-1.355-.26a4.29 4.29 0 0 0-.89.121c-.336.088-.515.16-.538.215zm2.172 2.152l.003.003c.097.08.3.18.607.302l1.076.355 1.114.118.386.01a2.84 2.84 0 0 0 .314-.025.12.12 0 0 1 .044.003c-.011-.001-.028-.007-.051-.017l-.264-.125-.288-.104-1.165-.346-1.355-.191a3.08 3.08 0 0 0-.3-.014.63.63 0 0 0-.087.009c-.011.002-.022.009-.033.021zm1.867 1.421l.001.006c.44.8 1.148 1.659 2.121 2.575.922.874 1.794 1.485 2.616 1.834a6.1 6.1 0 0 0 2.651.455c.906-.087 1.673-.389 2.301-.904-.099.003-.477.081-1.135.233l-.361.059c-.386.05-.776.066-1.168.05-.722-.013-1.408-.152-2.058-.419-.464-.185-.995-.512-1.591-.979l-.682-.581-2.032-1.867c-.388-.334-.609-.488-.663-.462zm7.207 6.395v.002c.042.299.191.489.446.571.104.04.261.056.471.047a2.77 2.77 0 0 0 .362-.047 3.17 3.17 0 0 0 .296-.072c.378-.164.664-.357.857-.578.185-.207.302-.466.35-.775a.36.36 0 0 1-.047.061l-.347.353a1.7 1.7 0 0 1-.303.219l-.189.093-.123.051-.354.116-.46.17-.14.037-.073.016-.102.016.004.001c-.129.005-.199.003-.209-.006a.47.47 0 0 1-.15-.059c-.036-.017-.121-.088-.253-.211-.006-.007-.017-.008-.033-.003zm.149 5.427h0a1.19 1.19 0 0 0 .567.092 1.31 1.31 0 0 0 .3-.058 1.98 1.98 0 0 0 .375-.161c.105-.057.283-.219.535-.486l.231-.273c.06-.078.116-.163.17-.253.015-.021.026-.034.033-.038-.007.007-.021.016-.041.027l-.234.115-.169.099-.431.272-.242.145-.246.179a1.57 1.57 0 0 1-.164.098 1.43 1.43 0 0 1-.221.093 4.39 4.39 0 0 1-.363.098l-.087.027c-.006-.002-.01.006-.01.024z"/><path d="M40.125 7.67l-.024.068c-.088.276-.108.492-.061.647.006.153.145.466.415.94.159.281.424.649.796 1.105l1.687 1.729 1.182 1.487c.747.996 1.332 2.167 1.753 3.514.341 1.242.415 2.681.223 4.318-.167 1.509-.536 2.395-1.108 2.658l.57.73c.525-.704.886-1.346 1.081-1.926a10.39 10.39 0 0 0 .529-3.532c-.03-1.167-.249-2.209-.658-3.124-.237-.644-.813-1.611-1.728-2.901-1.425-1.918-2.721-3.342-3.891-4.271-.141-.172-.293-.409-.456-.71l-.311-.731z"/></g><path d="M6.274 25.8l-.121-.238-.452-.965a5.82 5.82 0 0 1-.322-1.022c-.037-.178-.064-.36-.08-.547l-.014-.285a5.81 5.81 0 0 1 .122-1.2 10.2 10.2 0 0 1 1.079-2.887c.29-.488.541-.816.753-.983.233-.184.379-.21.439-.079.022.053.024.127.004.222-.006.065-.061.209-.166.433l-.227.417-.66 1.098-.314.656c-.197.463-.372 1.076-.525 1.84-.06.331-.095.638-.103.921-.01.144.001.374.033.69.05.447.234 1.09.552 1.929z" fill="#fdeced"/><path d="M10.011 47.593c-1.433-.358-2.554-.836-3.363-1.435-.546-.367-1.241-.971-2.085-1.811-.284-.282-.534-.572-.751-.868-.123-.176-.19-.332-.199-.47-.001-.109.033-.178.1-.207.082-.025.168.006.258.093.015.008.071.072.17.192l.677.877c.106.132.322.366.65.702.572.58 1.159 1.087 1.761 1.521l.669.455 2.113.951z" fill="#f9c257"/><path d="M13.291 42.459l-.135-.171-.866-1.198c-.215-.343-.369-.685-.462-1.026a3.56 3.56 0 0 1-.119-.986 4.09 4.09 0 0 1 .052-.585c.008-.078.066-.346.175-.805l.027-.176c.009-.175-.018-.291-.082-.35-.11-.116-.226-.146-.347-.092-.106.044-.182.178-.229.4-.056.224-.071.66-.047 1.31.018.441.064.784.136 1.029.128.459.351.922.67 1.387.254.378.663.799 1.227 1.263zm20.896-2.088l-.076-.041c-.281-.145-.502-.288-.661-.429-.185-.16-.347-.366-.485-.618-.147-.292-.242-.538-.283-.74-.03-.072-.098-.47-.202-1.193-.004-.034-.021-.105-.05-.214-.038-.151-.109-.256-.215-.315-.237-.088-.34.075-.31.49a7.8 7.8 0 0 0 .226 1.163 2.6 2.6 0 0 0 .259.666c.165.292.461.599.889.92a1.2 1.2 0 0 0 .291.153 1.09 1.09 0 0 0 .215.046l.404.112z" fill="#fbf275"/><path d="M38.23 17.525l-.002-.015c-.087-.708-.108-1.214-.064-1.519a4.42 4.42 0 0 1 .288-1.148c.066-.197.215-.481.447-.851.092-.149.419-.563.981-1.24.035-.037.139-.188.313-.454.198-.314.291-.541.28-.681a.18.18 0 0 0-.057-.127c-.053-.04-.123-.061-.21-.063-.161.008-.305.091-.432.247-.064.075-.125.16-.183.255l-.397.726-.513.844a7.62 7.62 0 0 0-.499 1.015 4.6 4.6 0 0 0-.172.529l-.059.269-.038.272-.013.391a4 4 0 0 0 .088.691c.107.467.188.753.244.859z" fill="#fdeced"/><path d="M37.509 36.056c.283 2.792-.888 5.337-2.769 5.528s-3.54-2.067-3.823-4.859.888-5.337 2.769-5.528 3.54 2.067 3.823 4.859zm-.322.033c-.281-2.767-1.887-4.731-3.469-4.57s-2.761 2.407-2.48 5.174 1.887 4.731 3.469 4.57 2.761-2.407 2.48-5.174z" fill="#f68538"/><path d="M32.11 36.814c.029.001.062.008.098.022h0c.101.057.169.158.206.304h0 0l.05.212h0l.203 1.197h0c.042.202.136.449.284.741h0a2.23 2.23 0 0 0 .488.622c.151.133.356.268.616.405l-.267-.074h-.003c-.064-.006-.135-.021-.212-.045s-.172-.074-.287-.151c-.426-.32-.72-.625-.884-.916-.111-.196-.197-.417-.257-.662h0c-.12-.457-.195-.844-.226-1.16-.023-.321.033-.486.169-.496.007-.001.015-.001.022 0zm1.866-5.318a1.82 1.82 0 0 0-.258.008c-1.596.162-2.775 2.422-2.493 5.191.266 2.62 1.72 4.53 3.228 4.592a1.82 1.82 0 0 0 .258-.008c1.596-.162 2.774-2.422 2.493-5.191-.266-2.62-1.72-4.53-3.228-4.592z" fill="#f6c54a"/><path d="M16.815 38.494c.374 2.675-.642 5.151-2.409 5.399s-3.424-1.855-3.798-4.53.642-5.151 2.409-5.399 3.424 1.855 3.798 4.53zm-.274.038c-.372-2.657-1.976-4.506-3.486-4.294s-2.545 2.429-2.173 5.086 1.976 4.506 3.486 4.294 2.545-2.429 2.173-5.086z" fill="#f68638"/><path d="M11.589 37.054c.088-.022.184.014.288.11.021.025.038.052.051.083l.018.048.013.066c.005.046.005.096 0 .15l-.027.176-.175.805c-.03.182-.048.377-.052.585a3.56 3.56 0 0 0 .119.987c.094.342.248.685.463 1.028.171.285.46.685.866 1.199l.103.13c-.543-.451-.938-.861-1.186-1.229a4.68 4.68 0 0 1-.67-1.386c-.072-.244-.118-.586-.136-1.027-.024-.649-.009-1.085.047-1.308s.122-.353.199-.381h.001c.025-.017.051-.029.077-.036zm1.279-2.785c-1.414.358-2.351 2.507-1.995 5.057.372 2.658 1.978 4.511 3.492 4.299a1.75 1.75 0 0 0 .183-.036c1.414-.358 2.351-2.507 1.995-5.057-.372-2.658-1.977-4.511-3.492-4.299-.062.009-.123.021-.183.036z" fill="#f6c54a"/><path d="M17.485 14.397l-.611.004c-1.693-.033-2.751.11-3.173.43-.923.484-1.315 1.128-1.177 1.93.269 1.012.793 1.78 1.572 2.303.593.464 1.816.886 3.669 1.266 2.885.687 5.755.88 8.61.578 1.491-.124 3.912-.59 7.263-1.399 1.279-.27 2.049-.615 2.31-1.037.315-.799-.343-2.006-1.974-3.623-.459-.383-.881-.605-1.265-.668-.222-.074-.754-.055-1.595.057-.154-.001-.283-.022-.389-.064-.304-.108-.587-.402-.848-.883s-.533-1.193-.815-2.134l-1.716-6.023c-.377-1.073-.78-1.869-1.211-2.387 1.753-.094 2.532-.268 2.337-.522-.048-.097-.162-.208-.341-.335L26.181.538c-.299-.215-.586-.333-.861-.352-.289-.028-.65.219-1.083.739-.829.983-1.511 1.955-2.046 2.919-.566.86-2.135 4.378-4.707 10.552z" fill="#b76bfa"/><path d="M24.764.398l.109-.009c.894-.137 1.578.278 2.054 1.244.157.391-.171.725-.983 1.002-.278-.563-.618-.816-1.019-.76.502.367.837.797 1.004 1.29l2.151 5.354c.586 1.682.774 3.177.565 4.483 1.186.792 1.683 1.463 1.491 2.013-.11.277-.541.529-1.292.757-.602.207-1.755.403-3.459.59-2.074.228-4.64.144-7.697-.252.52.78 2.533 1.193 6.038 1.238 1.383-.011 2.477-.1 3.279-.266l.999-.222 2.465-.715.657-.143c.6-.06 1.003-.04 1.21.06.565.204.965.5 1.198.888.296.461.35.888.16 1.279-.647 1.061-1.73 1.742-3.249 2.044 2.546-.535 4.256-1.184 5.129-1.949.791-.655 1.004-1.695.639-3.121-.083-.571-.743-1.047-1.98-1.43-.924-.255-1.919-.183-2.983.216l-.887-1.517c-.401-1.956-.987-3.843-1.757-5.66-.585-1.288-1.319-2.597-2.203-3.925.929-.223 1.928-.169 2.995.161C28.302 1.456 27.474.53 26.916.271c-.744-.399-1.462-.357-2.152.128z" fill="#ac5cf9"/><path d="M30.32 12.548h-.001l-1.932.564c-.528.123-1.039.203-1.545.275l-.177.025-.068.009h-.001l-.003.005c.043.109.085.257.118.601.041.427.071 1.163.056 1.57-.011.309-.047.436-.094.517l.003.005.008-.001.063-.009c1.48-.214 2.939-.577 4.4-.943h.001l.003-.003-.06-1.055c-.023-.16-.054-.312-.099-.452-.136-.429-.396-.765-.669-1.107l-.003-.001h-.001z" fill="#b0eff2"/><path d="M26.626 14.456l.047-.063c.14-.19.298-.333.474-.428.096-.067.309-.149.638-.247.734-.184 1.37-.238 1.908-.163.189.024.361.086.517.188l.106.092a.82.82 0 0 1 .153.226c.109.145.147.562.113 1.251l.623-.116c.004-.764-.047-1.288-.153-1.574-.087-.303-.324-.662-.712-1.077-.528.149-1.803.422-3.825.82l.11 1.093z" fill="#86cae1"/><g fill="#a471f5"><path d="M22.106 13.637l-2.397-.234c-.677-.096-1.166-.219-1.652-.341l.075-.032c-.248.427-.486.839-.531 1.336s.105 1.092.26 1.699l-.058-.051 4.431.332.842.012a25.71 25.71 0 0 0 3.67-.251c1.498-.216 2.973-.586 4.453-.956l-.051.067c-.009-.564-.018-1.114-.16-1.56s-.415-.788-.697-1.142l.074.022-.022.007-1.956.572c-.644.15-1.263.236-1.878.321h0 0l-.041.006-.024-.035-.115-.168.046.029c-.526-.08-1.048-.16-1.687-.16h-.07c-.673.006-1.477.101-2.287.197l.049-.031-.208.331-.022.035-.041-.003zm.011-.135l-.063.031.208-.331.017-.027.032-.004 2.302-.198h.072c.65 0 1.181.081 1.707.162l.029.004.017.024.115.168-.065-.029h0 0l1.866-.319c.631-.147 1.286-.357 1.945-.569l.022-.007.044-.014.029.037c.281.352.571.715.721 1.186s.158 1.041.166 1.599l.001.054-.052.013-4.467.959c-1.224.177-2.463.252-3.689.252a31.27 31.27 0 0 1-.846-.012l-4.441-.332h-.001-.001l-.047-.005-.012-.046c-.153-.6-.311-1.216-.264-1.744s.303-.969.549-1.391l.026-.044.049.012 1.638.338 2.389.233z"/><path d="M22.288 16.476c-.153-.263-.312-.535-.379-.947s-.042-.949 0-1.302a2.7 2.7 0 0 1 .164-.695c.013-.035.052-.053.087-.041s.053.051.041.087a2.55 2.55 0 0 0-.157.665c-.041.343-.064.875 0 1.264s.21.639.363.901c.019.032.008.074-.024.092s-.074.008-.092-.024zm4.275-3.128c.056.124.11.248.151.68a15.23 15.23 0 0 1 .056 1.571c-.014.408-.074.502-.144.591-.023.029-.066.035-.095.012s-.035-.066-.012-.095c.046-.059.102-.117.115-.512a15.21 15.21 0 0 0-.056-1.553c-.041-.423-.091-.528-.14-.637-.015-.034 0-.074.034-.089s.074 0 .089.034z"/></g><g fill="#f68638"><path d="M22.939 13.814c.529-.09 1.066-.182 1.528-.182h.058c.477.008.865.121 1.244.232l.03.009.013.029c.088.196.179.4.224.663s.043.579.041.889v.051l-.049.014c-.46.131-.929.265-1.472.285l-.153.003c-.502 0-1.058-.084-1.607-.167l-.051-.008-.006-.051c-.034-.296-.068-.6-.043-.89s.109-.564.19-.83l.012-.04.041-.007zm.023.133l.053-.047c-.082.268-.161.528-.185.801s.009.564.043.863l-.057-.059 1.586.166.148-.003c.525-.019.978-.148 1.44-.28l-.049.065c.002-.313.003-.619-.039-.866s-.126-.434-.214-.631l.043.037c-.381-.111-.752-.218-1.209-.226l-.056-.001c-.447 0-.972.089-1.505.18z"/><path d="M22.884 14.63c.238.146.465.286.823.34.117.018.249.026.39.026.292 0 .62-.036.929-.099.507-.103.829-.252.822-.337-.007-.093-.373-.264-.892-.319-.118-.012-.238-.018-.358-.018-.37 0-.734.055-.999.132-.347.101-.525.241-.709.386l-.006-.111zm-.071.115l-.082-.051.076-.06c.188-.148.383-.301.755-.41.278-.081.654-.138 1.037-.138a3.52 3.52 0 0 1 .372.019c.463.049.995.214 1.013.443.018.237-.508.395-.93.48-.317.064-.654.102-.956.102a2.79 2.79 0 0 1-.41-.027c-.387-.058-.635-.211-.874-.358z"/></g><g fill="#f6c54a"><path d="M23.632 13.704c.314-.044.619-.075.893-.07.475.008.863.121 1.241.231l.003.001h0l.029.008.012.028.001.002.001.002a2.61 2.61 0 0 1 .222.659c.044.26.043.576.041.885v.004.049l-.048.014-.003.001h-.003l-1.051.246a4.03 4.03 0 0 1-.415.037c-.54.02-1.151-.073-1.755-.164l-.005-.001-.05-.008-.006-.05v-.004-.004c-.033-.293-.067-.595-.043-.882s.108-.561.189-.826l.001-.003.012-.039.04-.007.006-.001.005-.001.681-.11zm-1.269-.404l-.001.001-.162.258.001.002h-.001l-.004.017-.002.005a2.56 2.56 0 0 0-.155.66c-.041.347-.064.875 0 1.265.058.357.188.601.328.843l.002.001h0 .001c1.371.032 2.762-.026 4.137-.209l.002-.002c.001-.012.006-.023.014-.034.053-.068.103-.143.116-.513.014-.4-.015-1.13-.056-1.553-.04-.414-.09-.526-.139-.634v-.002-.001l-.095-.14v.001-.002h-.003c-.535-.082-1.068-.161-1.727-.155-.664.006-1.456.099-2.254.193h-.001z"/><path d="M24.043 14.258a3.22 3.22 0 0 0-.444.093c-.299.088-.473.204-.634.327l.003.006h0c.209.127.424.241.739.288.284.043.651.031 1.018-.021l.302-.052c.505-.102.832-.252.825-.341-.023-.106-.397-.269-.896-.322a3.81 3.81 0 0 0-.913.021z"/></g><g fill="#b0eff2"><path d="M22.035 13.636h.001-.001 0-.001l.001-.001zm-4.187 2.389h0 0-.001zm.001 0h.001 0-.001zm.256-2.957l-.001.001-.002.002-.001.001c-.238.411-.463.813-.506 1.294a2.8 2.8 0 0 0 .026.633 9.86 9.86 0 0 0 .222 1.023l.002.002.004.002.001-.003h0v.003h.001 0 0 .001-.001l.012.001.01.001 4.336.324.003-.001.003-.004.001-.003h0 0v-.001h0 0 0 0c-.127-.225-.247-.471-.303-.814-.066-.407-.042-.948 0-1.3.034-.286.08-.452.128-.593l-.001-.001h0v-.006l-.003-.003-2.324-.229a14.46 14.46 0 0 1-1.601-.328h-.001-.001-.001-.001zm4.736 1.542l-.002.002h.001l.001-.001v-.001h0zm.809-.777l-.649.104v.004l-.002-.002a4.12 4.12 0 0 0-.163.67h0 0 0 0 .001l.002.002-.002-.002h.003 0 0v.001h-.001 0 0 0 .001c.178-.14.371-.281.721-.383a3.36 3.36 0 0 1 .462-.097 3.96 3.96 0 0 1 .945-.022c.331.035.688.128.877.258l.004-.002h0 0c-.041-.135-.094-.256-.148-.379l-.001.002v-.003c-.371-.108-.735-.21-1.181-.218a5.61 5.61 0 0 0-.872.069z"/><path d="M22.827 14.75l-.002.002c-.015.243.012.499.041.761l.003.002h.001.001c.59.089 1.17.174 1.682.155.138-.005.272-.018.402-.036.345-.049.666-.138.989-.23h.001l.002-.002v-.002l-.023-.699-.003-.002h-.001l-.002.001c-.153.153-.537.261-.861.327l-.31.053c-.376.053-.756.066-1.055.021-.38-.057-.626-.206-.86-.351h-.002-.001z"/></g><path d="M19.242 12.245h0l3.166-7.642c.469-.832.851-1.341 1.145-1.526a.93.93 0 0 1 .548-.215c.202.023.302.102.3.237-.012.121-.049.216-.111.285-.545.597-.893 1.023-1.047 1.278-.129.177-.374.583-.736 1.218l-1.158 2.164-2.106 4.201zm-5.863 4.73l.004-.067c.007-.134.023-.265.047-.392a1.16 1.16 0 0 1 .076-.242c.036-.077.08-.149.135-.216.014-.023.111-.132.291-.326l.069-.085.029-.042a.71.71 0 0 0 .044-.08c.024-.053.038-.099.041-.14s-.003-.072-.019-.094-.032-.027-.053-.028c-.06-.001-.128.03-.204.092-.082.066-.164.156-.247.271-.095.14-.158.245-.187.317-.043.091-.075.182-.095.273l-.012.067a.98.98 0 0 0-.011.131c-.003.151.029.338.093.561z" fill="#e8a9fe"/><path d="M17.953 13.343c.404.122.756.209 1.056.261a10.51 10.51 0 0 0 .998.108l.295.044a1.48 1.48 0 0 1 .525.197c.228.15.383.399.463.749.075.204.124.749.147 1.633l.862.061c-.231-.376-.351-.726-.36-1.049-.028-.299.037-.884.196-1.753L18.113 13l-.16.344z" fill="#86cae1"/><path d="M34.082 62.975a2.81 2.81 0 0 0-.08.285l-.098.348-.108.31-.046.128-.03.074-.054.11-.129.253-.114.226-.073.145c-.018.03-.018.03-.004.011l.074-.08a2.2 2.2 0 0 0 .142-.177l.178-.256.093-.144.041-.075.04-.084a2.68 2.68 0 0 0 .093-.279c.034-.125.059-.249.077-.372a1.1 1.1 0 0 0 .012-.304c-.008-.119-.017-.061-.014-.119zm-.893-5.812a.65.65 0 0 0-.008-.065l-.008-.059-.001-.037.004-.025.01-.049.013-.068.007-.05.005-.048.005-.056.002-.063-.002-.066c-.002-.022-.003-.045-.029-.201l-.105-.534-.062-.223-.035-.12-.021-.08-.033-.132-.023-.098-.014-.065-.009-.05-.008-.051-.017-.124-.036-.249-.039-.196c-.016-.049-.016-.049-.014-.016 0 0-.021.068-.023.142v.239l.005.197.003.055.004.054.007.061.013.091.021.125.021.114.02.093.044.191.115.455.078.317.009.058.006.056.003.055.003.049.002.04c.001.011 0 .04 0 .065v.062l.002.037c.001.008.004.023.009.04a.35.35 0 0 0 .023.056c.01.02.023.042.033.052.016.023.016.008.021.021zm-11.576-1.664c.042-.003.126-.021.214-.042l.284-.068.276-.06.12-.02.088-.008.168-.007.391-.018.329-.02.196-.015.151-.016.194-.026.279-.043.442-.09.442-.123.368-.136c.096-.039.096-.039.031-.016l-.271.072-.432.099-.47.08-.326.044-.208.024-.159.014-.163.01-.281.011-.42.013-.235.012-.097.011-.087.013a4.41 4.41 0 0 0-.247.064l-.295.096a.98.98 0 0 0-.209.099c-.073.042-.033.032-.071.047z" fill="#fff"/><path d="M38.383 38.214l-.353.157c-1.279.594-2.431.955-3.454 1.082a8.73 8.73 0 0 1-.91.069l-.548-.001-.626-.029-1.745-.144-.664-.033c-.326-.005-.509.043-.55.145-.027.024.003.097.091.22l.182.183.265.211c.204.15.449.309.733.476a13.52 13.52 0 0 0 3 1.306c.627.181 1.234.251 1.822.209.218-.017.427-.05.626-.096.109-.009.391-.105.847-.288a10.68 10.68 0 0 0 1.503-.874l-.219-2.593zM17.82 40.527l-.339.205c-.673.424-1.368.78-2.087 1.068a5.63 5.63 0 0 1-1.513.351c-.321.035-.733.019-1.238-.048-.121-.009-.46-.076-1.017-.2l-1.368-.344c-.137-.029-.248-.044-.333-.045-.069.003-.11.01-.123.022-.07.034-.058.122.037.264-.014.029.206.266.659.71l1.093.903.836.582c.635.395 1.102.636 1.399.723.347.125.688.172 1.024.141a1.74 1.74 0 0 0 .367-.081l.168-.066a2.12 2.12 0 0 0 .311-.175 5.25 5.25 0 0 0 .81-.731l1.312-3.277z" fill="#f68437"/><path d="M7.348 41.688l.003.008c.488.599 1.172 1.134 2.052 1.606.696.338 1.495.534 2.398.587a9.4 9.4 0 0 0 3.005-.317c.915-.297 1.694-.713 2.336-1.246-.006.01-.105.031-.297.061l-.203.052-1.476.45-1.191.287c-.688.132-1.404.178-2.147.139-.612-.037-1.162-.142-1.649-.316-.237-.082-.573-.226-1.008-.432l-1.529-.797a1.4 1.4 0 0 0-.177-.068l-.074-.017c-.03.006-.044.007-.044.002zm22.511-1.287l.006.006c.212.145.587.3 1.125.464.582.173 1.08.28 1.493.321.423.049.947.06 1.57.032.697-.048 1.31-.13 1.838-.246 1.143-.236 2.141-.593 2.994-1.072.838-.532 1.491-1.126 1.958-1.782l-.511.267-1.271.771-1.012.529c-.753.333-1.509.575-2.266.724a11.71 11.71 0 0 1-2.308.254c-.208.004-.516-.012-.927-.046l-.886-.085-1.414-.163c-.214-.015-.344-.006-.39.027z" fill="#f1672a"/><defs><radialGradient id="A" cx="0" cy="0" r="1" gradientUnits="userSpaceOnUse" gradientTransform="translate(29.1681 62.0052) scale(8.84432 8.84426)"><stop stop-color="#fa0"/><stop offset=".34" stop-color="#fff"/><stop offset=".555" stop-color="#af39ff"/><stop offset=".823" stop-color="#ff3bcb"/><stop offset="1" stop-color="#ffd1aa"/></radialGradient><radialGradient id="B" cx="0" cy="0" r="1" gradientUnits="userSpaceOnUse" gradientTransform="translate(32.5003 56.6708) scale(8.78498 8.78491)"><stop stop-color="#ffd1aa"/><stop offset=".177" stop-color="#dd00a2"/><stop offset=".338" stop-color="#fff"/><stop offset=".676" stop-color="#af39ff"/><stop offset="1" stop-color="#fff"/></radialGradient><radialGradient id="C" cx="0" cy="0" r="1" gradientUnits="userSpaceOnUse" gradientTransform="translate(30.8951 61.4179) scale(7.07077 7.0707)"><stop stop-color="#fff"/><stop offset=".324" stop-color="#af39ff"/><stop offset=".662" stop-color="#fff"/><stop offset=".823" stop-color="#ff3bcb"/><stop offset="1" stop-color="#ffd1aa"/></radialGradient><radialGradient id="D" cx="0" cy="0" r="1" gradientUnits="userSpaceOnUse" gradientTransform="translate(24.9461 56.1636) scale(3.28608 3.28604)"><stop stop-color="#fff"/><stop offset=".324" stop-color="#af39ff"/><stop offset=".662" stop-color="#fff"/><stop offset=".823" stop-color="#dd00a2"/><stop offset="1" stop-color="#ffd1aa"/></radialGradient></defs></svg>