<svg width="28" height="28" viewBox="0 0 28 28" fill="none" xmlns="http://www.w3.org/2000/svg">
    <path
        d="M9.33398 24.5V8.16667C9.33398 7.0817 9.33398 6.53922 9.45324 6.09413C9.77688 4.88631 10.7203 3.94289 11.9281 3.61926C12.3732 3.5 12.9157 3.5 14.0007 3.5C15.0856 3.5 15.6281 3.5 16.0732 3.61926C17.281 3.94289 18.2244 4.88631 18.5481 6.09413C18.6673 6.53922 18.6673 7.0817 18.6673 8.16667V15.75M18.6673 20.4167V24.5M7.93398 24.5H20.0673C22.0275 24.5 23.0076 24.5 23.7563 24.1185C24.4149 23.783 24.9503 23.2475 25.2858 22.589C25.6673 21.8403 25.6673 20.8602 25.6673 18.9V13.7667C25.6673 11.8065 25.6673 10.8264 25.2858 10.0777C24.9503 9.41913 24.4149 8.8837 23.7563 8.54814C23.0076 8.16667 22.0275 8.16667 20.0673 8.16667H7.93398C5.9738 8.16667 4.99371 8.16667 4.24502 8.54814C3.58645 8.8837 3.05102 9.41913 2.71546 10.0777C2.33398 10.8264 2.33398 11.8065 2.33398 13.7667V18.9C2.33398 20.8602 2.33398 21.8403 2.71546 22.589C3.05102 23.2475 3.58645 23.783 4.24502 24.1185C4.99371 24.5 5.9738 24.5 7.93398 24.5ZM14.934 20.4167H20.6507C20.9773 20.4167 21.1407 20.4167 21.2655 20.3531C21.3752 20.2972 21.4645 20.2079 21.5204 20.0982C21.584 19.9734 21.584 19.81 21.584 19.4833V16.6833C21.584 16.3566 21.584 16.1933 21.5204 16.0685C21.4645 15.9587 21.3752 15.8695 21.2655 15.8136C21.1407 15.75 20.9773 15.75 20.6507 15.75H14.934C14.6073 15.75 14.4439 15.75 14.3192 15.8136C14.2094 15.8695 14.1202 15.9587 14.0642 16.0685C14.0007 16.1933 14.0007 16.3566 14.0007 16.6833V19.4833C14.0007 19.81 14.0007 19.9734 14.0642 20.0982C14.1202 20.2079 14.2094 20.2972 14.3192 20.3531C14.4439 20.4167 14.6073 20.4167 14.934 20.4167Z"
        stroke="currentColor" stroke-width="2" stroke-linecap="round" stroke-linejoin="round" />
</svg>