<svg width="24" height="24" viewBox="0 0 24 24" fill="none" xmlns="http://www.w3.org/2000/svg">
<path d="M10 15.0002L6.92474 18.1139C6.49579 18.5482 6.28131 18.7654 6.09695 18.7807C5.93701 18.794 5.78042 18.7297 5.67596 18.6078C5.55556 18.4674 5.55556 18.1622 5.55556 17.5517V15.9918C5.55556 15.4441 5.10707 15.0479 4.5652 14.9685V14.9685C3.25374 14.7764 2.22378 13.7464 2.03168 12.435C2 12.2187 2 11.9607 2 11.4446V6.80018C2 5.12003 2 4.27995 2.32698 3.63821C2.6146 3.07373 3.07354 2.61478 3.63803 2.32716C4.27976 2.00018 5.11984 2.00018 6.8 2.00018H14.2C15.8802 2.00018 16.7202 2.00018 17.362 2.32716C17.9265 2.61478 18.3854 3.07373 18.673 3.63821C19 4.27995 19 5.12003 19 6.80018V11.0002M19 22.0002L16.8236 20.4871C16.5177 20.2744 16.3647 20.168 16.1982 20.0926C16.0504 20.0257 15.8951 19.977 15.7356 19.9476C15.5558 19.9145 15.3695 19.9145 14.9969 19.9145H13.2C12.0799 19.9145 11.5198 19.9145 11.092 19.6965C10.7157 19.5047 10.4097 19.1988 10.218 18.8225C10 18.3946 10 17.8346 10 16.7145V14.2002C10 13.0801 10 12.52 10.218 12.0922C10.4097 11.7159 10.7157 11.4099 11.092 11.2182C11.5198 11.0002 12.0799 11.0002 13.2 11.0002H18.8C19.9201 11.0002 20.4802 11.0002 20.908 11.2182C21.2843 11.4099 21.5903 11.7159 21.782 12.0922C22 12.52 22 13.0801 22 14.2002V16.9145C22 17.8464 22 18.3123 21.8478 18.6798C21.6448 19.1699 21.2554 19.5592 20.7654 19.7622C20.3978 19.9145 19.9319 19.9145 19 19.9145V22.0002Z" stroke="#FCFCFC" stroke-width="2" stroke-linecap="round" stroke-linejoin="round"/>
</svg>
