<svg width="375" height="375" viewBox="0 0 375 375" fill="none" xmlns="http://www.w3.org/2000/svg">
<path d="M89.3959 92.3329C87.7359 92.7859 85.8914 94.3193 85.0061 95.9223C83.9732 97.8041 83.8994 100.731 84.8216 102.474C85.2274 103.275 102.676 119.375 131.117 145.302C156.202 168.198 176.749 186.981 176.749 187.12C176.749 187.225 156.202 206.043 131.117 228.904C102.639 254.866 85.2274 270.965 84.8216 271.767C83.8625 273.614 83.9732 276.472 85.0799 278.423C86.9981 281.664 91.2403 283.093 94.7079 281.664C95.9252 281.141 107.287 271 139.675 241.484C163.506 219.773 184.2 200.955 185.602 199.631L188.184 197.261L202.755 210.573C267.495 269.676 280.001 280.967 281.439 281.594C286.493 283.755 292.137 280.235 292.137 274.938C292.137 273.475 291.916 272.569 291.252 271.488C290.699 270.582 273.103 254.308 244.993 228.729C220.056 206.008 199.62 187.26 199.62 187.12C199.62 186.876 223.745 164.817 279.005 114.531C285.313 108.781 290.846 103.45 291.326 102.683C291.916 101.672 292.137 100.697 292.137 99.2677C292.137 94.0056 286.493 90.4859 281.439 92.6465C280.37 93.1344 267.348 104.774 237.911 131.572C214.818 152.586 194.197 171.404 192.058 173.39L188.184 176.98L142.147 135.057C108.246 104.146 95.7408 92.9602 94.6341 92.542C93.0848 91.9496 91.0559 91.8799 89.3959 92.3329Z" fill="#000000"/>
<path d="M55.7902 122.485C44.8711 124.158 35.4276 128.27 26.7218 135.1C25.1724 136.32 23.5124 137.888 23.0329 138.62L22.1844 139.909L22.0738 186.397L22 232.885L22.7747 234.418C24.2133 237.275 32.3658 243.095 39.1902 246.231C47.1213 249.821 55.3844 251.598 64.2378 251.633C76.6324 251.633 86.7769 248.741 97.2902 242.154C100.278 240.272 104.225 236.718 126.728 215.565C144.508 198.803 152.882 190.683 153.361 189.742C155.648 185.107 151.812 179.462 146.352 179.462C143.254 179.462 143.733 179.079 116.989 204.204C98.5076 221.559 90.7609 228.598 88.7689 229.888C83.3831 233.338 77.776 235.463 71.6156 236.509C66.6724 237.31 58.3724 236.962 53.7982 235.777C48.228 234.313 43.5431 232.222 39.0796 229.156L37.5302 228.075L37.4933 186.885V145.694L38.7844 144.718C42.3258 141.965 49.1133 138.899 54.536 137.609C58.52 136.668 66.6356 136.32 70.5827 136.947C74.5298 137.539 79.104 138.829 82.424 140.258C88.3631 142.871 90.8716 144.823 103.451 156.602L115.366 167.753L107.435 175.28C102.307 180.124 99.2822 183.226 98.9133 184.062C96.3311 190.021 103.082 196.154 109.242 193.436C110.201 193.018 114.333 189.359 121.084 182.912C130.601 173.851 131.523 172.841 132.113 171.133C132.962 168.694 132.74 164.895 131.634 162.874C131.191 162.038 127.428 158.274 122.448 153.605C100.905 133.602 98.6182 131.72 91.0191 128.026C86.3711 125.726 82.3133 124.367 76.78 123.182C73.0173 122.346 71.3573 122.206 65.7133 122.102C61.176 122.032 58.0404 122.137 55.7902 122.485Z" fill="#000000"/>
<path d="M182.651 122.205C179.626 122.449 173.134 123.773 169.814 124.784C166.162 125.899 158.12 129.453 158.12 129.941C158.12 130.115 160.739 132.59 163.949 135.447L169.74 140.674L171.585 139.873C174.499 138.618 180.217 137.294 184.311 136.946C191.357 136.388 199.141 137.608 205.338 140.291L208.326 141.58L213.933 136.388C216.995 133.53 219.54 131.056 219.54 130.882C219.54 130.429 212.753 127.049 209.285 125.794C201.133 122.797 191.32 121.473 182.651 122.205Z" fill="#000000"/>
<path d="M301.581 122.659C292.469 124.227 283.653 127.852 276.349 133.044C272.697 135.623 223.45 182.215 222.639 183.818C219.761 189.638 226.254 196.015 232.562 193.576C233.521 193.192 241.673 185.735 259.196 169.217C280.222 149.423 285.018 145.102 287.637 143.464C293.281 139.944 299.146 137.818 305.676 136.912C309.844 136.355 317.517 136.703 321.538 137.644C326.776 138.864 333.748 142 337.252 144.718L338.507 145.694V186.885L338.47 228.075L336.92 229.156C332.457 232.222 327.772 234.313 322.202 235.777C317.554 236.997 308.922 237.31 304.126 236.474C297.929 235.359 292.506 233.268 287.231 229.888C285.424 228.703 280.407 224.312 272.549 216.959L260.671 205.807L268.565 198.28C276.865 190.439 277.64 189.464 277.64 186.71C277.603 182.912 273.951 179.462 269.893 179.462C266.942 179.462 266.426 179.845 255.396 190.195C243.333 201.521 242.817 202.183 242.817 206.121C242.854 210.198 243.075 210.512 256.171 222.569C275.685 240.516 277.824 242.259 285.092 245.709C293.871 249.891 301.728 251.633 311.762 251.633C323.235 251.598 334.006 248.566 343.487 242.607C348.282 239.575 352.303 236.195 353.225 234.418L354 232.885L353.926 186.397L353.816 139.909L352.967 138.585C351.971 137.121 347.323 133.358 343.45 130.953C337.769 127.364 330.391 124.437 323.308 122.973C318.181 121.893 306.93 121.718 301.581 122.659Z" fill="#000000"/>
<path d="M204.341 233.686C197.886 236.265 190.655 237.31 184.052 236.648C179.995 236.265 175.347 235.185 171.953 233.895L170.108 233.198L164.317 238.426C161.107 241.318 158.488 243.757 158.488 243.897C158.488 244.315 166.235 247.695 169.739 248.81C176.047 250.797 180.363 251.424 188.184 251.424C195.894 251.389 199.066 250.971 205.337 249.089C209.69 247.8 213.231 246.336 216.588 244.524C218.027 243.757 219.207 243.095 219.244 243.06C219.466 242.921 208.251 232.606 207.809 232.536C207.551 232.501 206.001 233.024 204.341 233.686Z" fill="#000000"/>
</svg>
