<svg width="49" height="49" viewBox="0 0 49 49" fill="none" xmlns="http://www.w3.org/2000/svg">
<path d="M30.5 22.5V22.52M10.846 17.256C9.96879 16.5818 9.29508 15.6782 8.89931 14.6451C8.50355 13.6119 8.40115 12.4895 8.60343 11.4018C8.8057 10.3141 9.30478 9.30345 10.0455 8.48166C10.7862 7.65986 11.7397 7.05886 12.8007 6.7451C13.8616 6.43133 14.9886 6.41701 16.0572 6.70372C17.1257 6.99043 18.0942 7.567 18.8556 8.36971C19.6169 9.17242 20.1415 10.17 20.3714 11.2522C20.6012 12.3344 20.5274 13.4591 20.158 14.502" stroke="#A0A0A7" stroke-width="3" stroke-linecap="round" stroke-linejoin="round"/>
<path d="M32.5 8.5V16.106C34.9752 17.5382 36.8597 19.8049 37.816 22.5H40.498C41.0284 22.5 41.5371 22.7107 41.9122 23.0858C42.2873 23.4609 42.498 23.9696 42.498 24.5V28.5C42.498 29.0304 42.2873 29.5391 41.9122 29.9142C41.5371 30.2893 41.0284 30.5 40.498 30.5H37.814C37.142 32.4 36 34.1 34.498 35.446V39.5C34.498 40.2956 34.1819 41.0587 33.6193 41.6213C33.0567 42.1839 32.2936 42.5 31.498 42.5C30.7023 42.5 29.9393 42.1839 29.3767 41.6213C28.8141 41.0587 28.498 40.2956 28.498 39.5V38.334C27.8371 38.4447 27.1681 38.5002 26.498 38.5H18.498C17.8279 38.5002 17.1589 38.4447 16.498 38.334V39.5C16.498 40.2956 16.1819 41.0587 15.6193 41.6213C15.0567 42.1839 14.2936 42.5 13.498 42.5C12.7023 42.5 11.9393 42.1839 11.3767 41.6213C10.8141 41.0587 10.498 40.2956 10.498 39.5V35.446C8.68592 33.8259 7.40855 31.6938 6.83496 29.3317C6.26138 26.9697 6.41862 24.4891 7.28588 22.2184C8.15314 19.9477 9.68952 17.9939 11.6917 16.6157C13.6938 15.2374 16.0673 14.4996 18.498 14.5H23.498L32.498 8.5H32.5Z" stroke="#A0A0A7" stroke-width="3" stroke-linecap="round" stroke-linejoin="round"/>
</svg>
