<svg width="30" height="24" viewBox="0 0 30 24" fill="none" xmlns="http://www.w3.org/2000/svg">
<path d="M2.58968 1.8631L8.52227 7.08316L13.8078 0.575242C13.9558 0.393304 14.143 0.247101 14.3553 0.147519C14.5676 0.0479378 14.7997 -0.00245552 15.0342 9.1992e-05C15.2688 0.0026395 15.4997 0.0580622 15.7098 0.162233C15.9199 0.266403 16.1039 0.416638 16.2479 0.601747L21.2918 7.0816L27.4161 1.78671C27.6566 1.5792 27.9548 1.4501 28.2707 1.41669C28.5865 1.38328 28.9051 1.44715 29.1837 1.59976C29.4623 1.75237 29.6876 1.98643 29.8295 2.27061C29.9715 2.5548 30.0232 2.87555 29.9778 3.18995L27.6391 19.3225H2.39167L0.0170713 3.26323C-0.0300975 2.94709 0.0210389 2.62409 0.163554 2.33798C0.30607 2.05186 0.533078 1.81647 0.813832 1.66367C1.09459 1.51087 1.41552 1.44806 1.73316 1.48373C2.05081 1.5194 2.34981 1.65184 2.58968 1.8631ZM2.51328 20.8817H27.4598V22.4408C27.4598 22.8544 27.2955 23.2509 27.0031 23.5433C26.7107 23.8357 26.3141 24 25.9006 24H4.07244C3.65892 24 3.26234 23.8357 2.96995 23.5433C2.67755 23.2509 2.51328 22.8544 2.51328 22.4408V20.8817Z" fill="#FFA422"/>
</svg>
