<svg width="48" height="48" viewBox="0 0 48 48" fill="none" xmlns="http://www.w3.org/2000/svg">
<g opacity="0.3">
<path d="M8 3.19995C6.72696 3.19995 5.50606 3.70566 4.60588 4.60584C3.70571 5.50601 3.2 6.72691 3.2 7.99995V32C3.2 35.3947 4.54856 38.6505 6.94903 41.0509C9.3495 43.4514 12.6052 44.7999 16 44.7999V41.5999C13.4539 41.5999 11.0121 40.5885 9.21177 38.7882C7.41142 36.9878 6.4 34.546 6.4 32V22.4H17.6C18.873 22.4 20.0939 21.8942 20.9941 20.9941C21.8943 20.0939 22.4 18.873 22.4 17.6V7.99995C22.4 6.72691 21.8943 5.50601 20.9941 4.60584C20.0939 3.70566 18.873 3.19995 17.6 3.19995H8ZM30.4 3.19995C29.127 3.19995 27.9061 3.70566 27.0059 4.60584C26.1057 5.50601 25.6 6.72691 25.6 7.99995V32C25.6 35.3947 26.9486 38.6505 29.349 41.0509C31.7495 43.4514 35.0052 44.7999 38.4 44.7999V41.5999C35.8539 41.5999 33.4121 40.5885 31.6118 38.7882C29.8114 36.9878 28.8 34.546 28.8 32V22.4H40C41.273 22.4 42.4939 21.8942 43.3941 20.9941C44.2943 20.0939 44.8 18.873 44.8 17.6V7.99995C44.8 6.72691 44.2943 5.50601 43.3941 4.60584C42.4939 3.70566 41.273 3.19995 40 3.19995H30.4Z" fill="#A0A0A7"/>
</g>
</svg>
