<svg width="25" height="24" viewBox="0 0 25 24" fill="none" xmlns="http://www.w3.org/2000/svg">
<path d="M14.8335 5.50001L16.3335 7.00001M11.8335 8.50001L13.3335 10M8.83346 11.5L10.3335 13M5.83346 14.5L7.33346 16M2.89911 17.5657L6.76774 21.4344C6.96574 21.6324 7.06475 21.7314 7.17891 21.7685C7.27933 21.8011 7.38751 21.8011 7.48793 21.7685C7.60209 21.7314 7.7011 21.6324 7.89911 21.4344L21.7677 7.56573C21.9657 7.36772 22.0647 7.26872 22.1018 7.15455C22.1345 7.05413 22.1345 6.94596 22.1018 6.84554C22.0647 6.73137 21.9657 6.63237 21.7677 6.43436L17.8991 2.56573C17.7011 2.36772 17.6021 2.26872 17.4879 2.23163C17.3875 2.199 17.2793 2.199 17.1789 2.23163C17.0647 2.26872 16.9657 2.36772 16.7677 2.56573L2.89911 16.4344C2.7011 16.6324 2.60209 16.7314 2.565 16.8455C2.53237 16.946 2.53237 17.0541 2.565 17.1546C2.60209 17.2687 2.7011 17.3677 2.89911 17.5657Z" stroke="#70707B" stroke-width="2" stroke-linecap="round" stroke-linejoin="round"/>
</svg>
