<svg width="25" height="24" viewBox="0 0 25 24" fill="none" xmlns="http://www.w3.org/2000/svg">
<path d="M10.9995 13.5001L21.4995 3.00005M11.1271 13.8281L13.7552 20.5861C13.9867 21.1815 14.1025 21.4791 14.2693 21.566C14.4139 21.6414 14.5862 21.6415 14.7308 21.5663C14.8977 21.4796 15.0139 21.1821 15.2461 20.587L21.8364 3.69925C22.0461 3.16207 22.1509 2.89348 22.0935 2.72185C22.0437 2.5728 21.9268 2.45583 21.7777 2.40604C21.6061 2.34871 21.3375 2.45352 20.8003 2.66315L3.91258 9.25349C3.3175 9.48572 3.01997 9.60183 2.93326 9.76873C2.85809 9.91342 2.85819 10.0857 2.93353 10.2303C3.02043 10.3971 3.31811 10.5128 3.91345 10.7444L10.6715 13.3725C10.7923 13.4195 10.8527 13.443 10.9036 13.4793C10.9487 13.5114 10.9881 13.5509 11.0203 13.596C11.0566 13.6468 11.0801 13.7073 11.1271 13.8281Z" stroke="#FCFCFC" stroke-width="2" stroke-linecap="round" stroke-linejoin="round"/>
</svg>
