<svg width="65px" height="65px" viewBox="0 0 48 48" fill="#2d64ae" class="inline">
    <path
        d="M38.6 7c-.4-.6-1-1-1.7-1H11.2c-.7 0-1.4.4-1.7 1L5 15c0 3.9 3.1 7 7 7 2.6 0 4.8-1.4 6-3.4 1.2 2 3.4 3.4 6 3.4s4.8-1.4 6-3.4c1.2 2 3.4 3.4 6 3.4 3.9 0 7-3.1 7-7l-4.4-8zM36 20c-1.8 0-3.4-.9-4.3-2.4-.8-1.3-2.7-1.3-3.4 0-.9 1.5-2.5 2.4-4.3 2.4-1.8 0-3.4-.9-4.3-2.4-.8-1.3-2.7-1.3-3.4 0-.9 1.5-2.5 2.4-4.3 2.4-2.6 0-4.7-2-5-4.5L11.2 8h25.6l4.2 7.5c-.3 2.5-2.4 4.5-5 4.5zM38 40h-8V26H18v14h-8V23.8c-.7-.2-1.4-.4-2-.7V42h12V28h8v14h12V23.1c-.6.3-1.3.6-2 .7V40z"></path>
</svg>