<svg xmlns="http://www.w3.org/2000/svg" width="24" height="24" viewBox="0 0 24 24" fill="none">
    <path fill-rule="evenodd" clip-rule="evenodd"
        d="M21.75 12C21.75 14.5859 20.7228 17.0658 18.8943 18.8943C17.0658 20.7228 14.5859 21.75 12 21.75C9.41414 21.75 6.93419 20.7228 5.10571 18.8943C3.27723 17.0658 2.25 14.5859 2.25 12C2.25 9.41414 3.27723 6.93419 5.10571 5.10571C6.93419 3.27723 9.41414 2.25 12 2.25C14.5859 2.25 17.0658 3.27723 18.8943 5.10571C20.7228 6.93419 21.75 9.41414 21.75 12ZM24 12C24 15.1826 22.7357 18.2348 20.4853 20.4853C18.2348 22.7357 15.1826 24 12 24C8.8174 24 5.76516 22.7357 3.51472 20.4853C1.26428 18.2348 0 15.1826 0 12C0 8.8174 1.26428 5.76516 3.51472 3.51472C5.76516 1.26428 8.8174 0 12 0C15.1826 0 18.2348 1.26428 20.4853 3.51472C22.7357 5.76516 24 8.8174 24 12ZM7.878 7.05C8.39469 6.75272 9.00823 6.67263 9.58392 6.82731C10.1596 6.98199 10.6504 7.35879 10.9485 7.875C11.0464 8.04717 11.0722 8.25107 11.0203 8.4422C10.9684 8.63333 10.843 8.79618 10.6715 8.89521C10.5 8.99423 10.2963 9.0214 10.1048 8.97078C9.91334 8.92016 9.74966 8.79585 9.6495 8.625C9.5837 8.51127 9.48918 8.41682 9.3754 8.35111C9.26162 8.2854 9.13257 8.25073 9.00118 8.25058C8.86979 8.25043 8.74066 8.28479 8.62673 8.35024C8.5128 8.41569 8.41806 8.50992 8.352 8.6235C8.25215 8.79556 8.08803 8.9209 7.89576 8.97196C7.70349 9.02302 7.49881 8.9956 7.32675 8.89575C7.15469 8.7959 7.02935 8.63178 6.97829 8.43951C6.92723 8.24724 6.95465 8.04256 7.0545 7.8705C7.2528 7.5294 7.53582 7.24643 7.878 7.05ZM12 18C13.5913 18 15.1174 17.3679 16.2426 16.2426C17.3679 15.1174 18 13.5913 18 12H6C6 13.5913 6.63214 15.1174 7.75736 16.2426C8.88258 17.3679 10.4087 18 12 18ZM13.878 7.05C14.3947 6.75272 15.0082 6.67263 15.5839 6.82731C16.1596 6.98199 16.6504 7.35879 16.9485 7.875C16.9985 7.96033 17.0312 8.05471 17.0446 8.15271C17.058 8.2507 17.0519 8.35038 17.0266 8.44601C17.0013 8.54163 16.9573 8.63131 16.8973 8.70988C16.8372 8.78846 16.7622 8.85437 16.6765 8.90382C16.5908 8.95328 16.4962 8.9853 16.3982 8.99805C16.3001 9.0108 16.2004 9.00402 16.105 8.97811C16.0095 8.95219 15.9201 8.90765 15.842 8.84705C15.7638 8.78645 15.6984 8.71098 15.6495 8.625C15.5837 8.51127 15.4892 8.41682 15.3754 8.35111C15.2616 8.2854 15.1326 8.25073 15.0012 8.25058C14.8698 8.25043 14.7407 8.28479 14.6267 8.35024C14.5128 8.41569 14.4181 8.50992 14.352 8.6235C14.2521 8.79556 14.088 8.9209 13.8958 8.97196C13.7035 9.02302 13.4988 8.9956 13.3267 8.89575C13.1547 8.7959 13.0293 8.63178 12.9783 8.43951C12.9272 8.24724 12.9546 8.04256 13.0545 7.8705C13.2528 7.5294 13.5373 7.24643 13.8795 7.05H13.878Z"
        fill="url(#paint0_linear_3878_5684)" />
    <defs>
        <linearGradient id="paint0_linear_3878_5684" x1="-7.45263" y1="6.8" x2="25.457" y2="8.55936"
            gradientUnits="userSpaceOnUse">
            <stop stop-color="#FF1E1E" />
            <stop offset="1" stop-color="#FFA217" />
        </linearGradient>
    </defs>
</svg>