<svg width="4" height="16" viewBox="0 0 4 16" fill="none" xmlns="http://www.w3.org/2000/svg">
<path d="M2.00016 2.16683L2.00016 2.17516M2.00016 8.00016L2.00016 8.0085M2.00016 13.8335L2.00016 13.8418M2.00016 3.00016C1.53993 3.00016 1.16683 2.62707 1.16683 2.16683C1.16683 1.70659 1.53993 1.3335 2.00016 1.3335C2.4604 1.3335 2.8335 1.70659 2.8335 2.16683C2.8335 2.62707 2.4604 3.00016 2.00016 3.00016ZM2.00016 8.8335C1.53993 8.8335 1.16683 8.4604 1.16683 8.00016C1.16683 7.53993 1.53993 7.16683 2.00016 7.16683C2.4604 7.16683 2.8335 7.53993 2.8335 8.00016C2.8335 8.4604 2.4604 8.8335 2.00016 8.8335ZM2.00016 14.6668C1.53993 14.6668 1.16683 14.2937 1.16683 13.8335C1.16683 13.3733 1.53993 13.0002 2.00016 13.0002C2.4604 13.0002 2.8335 13.3733 2.8335 13.8335C2.8335 14.2937 2.4604 14.6668 2.00016 14.6668Z" stroke="#6B7280" stroke-width="2" stroke-linecap="round" stroke-linejoin="round"/>
</svg>
