<svg width="28" height="28" viewBox="0 0 28 28" fill="none" xmlns="http://www.w3.org/2000/svg">
    <path
        d="M23.3327 24.5C23.3327 22.8718 23.3327 22.0578 23.1317 21.3953C22.6793 19.9039 21.5122 18.7367 20.0207 18.2843C19.3583 18.0833 18.5442 18.0833 16.916 18.0833H11.0827C9.45453 18.0833 8.64045 18.0833 7.97802 18.2843C6.48655 18.7367 5.3194 19.9039 4.86696 21.3953C4.66602 22.0578 4.66602 22.8718 4.66602 24.5M19.2493 8.75C19.2493 11.6495 16.8988 14 13.9993 14C11.0999 14 8.74935 11.6495 8.74935 8.75C8.74935 5.8505 11.0999 3.5 13.9993 3.5C16.8988 3.5 19.2493 5.8505 19.2493 8.75Z"
        stroke="currentColor" stroke-width="2" stroke-linecap="round" stroke-linejoin="round" />
</svg>