<svg width="28" height="28" viewBox="0 0 28 28" fill="none" xmlns="http://www.w3.org/2000/svg">
    <path
        d="M18.6673 21L21.0007 23.3333L25.6673 18.6667M14.0007 17.5H9.33398C7.15959 17.5 6.07239 17.5 5.21479 17.8552C4.07133 18.3289 3.16285 19.2373 2.68921 20.3808C2.33398 21.2384 2.33398 22.3256 2.33398 24.5M18.084 3.83922C19.7942 4.5315 21.0007 6.2082 21.0007 8.16667C21.0007 10.1251 19.7942 11.8018 18.084 12.4941M15.7507 8.16667C15.7507 10.744 13.6613 12.8333 11.084 12.8333C8.50666 12.8333 6.41732 10.744 6.41732 8.16667C6.41732 5.58934 8.50666 3.5 11.084 3.5C13.6613 3.5 15.7507 5.58934 15.7507 8.16667Z"
        stroke="currentColor" stroke-width="2" stroke-linecap="round" stroke-linejoin="round" />
</svg>